<?xml version="1.0" standalone="no"?>
<!DOCTYPE svg PUBLIC "-//W3C//DTD SVG 1.1//EN" "http://www.w3.org/Graphics/SVG/1.1/DTD/svg11.dtd" >
<svg>
<metadata>
Created by FontForge 20090622 at Thu Aug  4 08:23:20 2016
 By deploy user
Copyright (c) 2011 by AndrijType. All rights reserved.
</metadata>
<defs>
<font id="BanderaPro" horiz-adv-x="467" >
  <font-face 
    font-family="Bandera Pro"
    font-weight="400"
    font-stretch="normal"
    units-per-em="1000"
    panose-1="2 6 5 4 4 2 0 2 0 4"
    ascent="750"
    descent="-250"
    x-height="500"
    cap-height="650"
    bbox="-70 -297 1804 944"
    underline-thickness="30"
    underline-position="-120"
    unicode-range="U+0020-U+FB06"
  />
<missing-glyph horiz-adv-x="619" 
d="M344 102h-65v188h-185v61h185v187h65v-187h182v-61h-182v-188zM136 440l-54 54l56 56l54 -54zM483 91l-54 54l56 56l54 -54zM485 440l-56 56l54 53l56 -55zM138 91l-56 56l54 53l56 -55z" />
    <glyph glyph-name="arrowleft" unicode="&#x3c;&#x2d;&#x2d;" horiz-adv-x="731" 
d="M415 466l-213 -161l477 2v-58l-476 1l212 -160l-35 -44l-300 232l300 232z" />
    <glyph glyph-name="arrowright" unicode="&#x2d;&#x2d;&#x3e;" horiz-adv-x="709" 
d="M653 278l-300 -232l-35 44l210 160l-474 -1v58l475 -2l-211 161l35 44z" />
    <glyph glyph-name="ff" unicode="ff" horiz-adv-x="678" 
d="M720 614h-57l-5 58q-26 31 -67 31q-47 0 -66 -28t-19 -102v-73h171v-63h-171v-379l60 -2l-4 -56h-192l-4 60l60 2v375h-237v-378l60 -3v-56h-196l-4 60l60 3v374h-61v60l61 3v71q0 98 40 145t139 47q56 0 176 -39q36 39 109 39q50 0 92 -33l8 24h47v-140zM189 563v-63
h237v81q0 57 11 93q-93 28 -132 28q-67 0 -91.5 -31t-24.5 -108z" />
    <glyph glyph-name="fi" unicode="fi" horiz-adv-x="629" 
d="M249 0h-196l-4 60l60 3v374h-61v60l61 3v71q0 98 40 145t139 47q48 0 156 -33l5 24h63v-148h-64l-5 66q-100 30 -138 30q-67 0 -91.5 -31t-24.5 -108v-63h171v-63h-171v-378l60 -3v-56zM592 0h-192l-4 60l60 3v374l-59 3l3 60h136v-441l60 -3z" />
    <glyph glyph-name="fl" unicode="fl" horiz-adv-x="632" 
d="M249 0h-196l-4 60l60 3v374h-61v60l61 3v71q0 98 40 145t139 47q52 0 171 -37v24h81v-691l60 -3l-4 -56h-193l-4 60l60 2v605q-115 35 -154 35q-67 0 -91.5 -31t-24.5 -108v-63h171v-63h-171v-378l60 -3v-56z" />
    <glyph glyph-name="ffi" unicode="ffi" horiz-adv-x="946" 
d="M249 0h-196l-4 60l60 3v374h-61v60l61 3v71q0 98 40 145t139 47q58 0 184 -41q43 41 133 41q48 0 156 -33l5 24h64v-148h-65l-5 66q-97 30 -137 30q-67 0 -91.5 -31t-24.5 -108v-63h171v-63h-171v-378l60 -3v-56h-197l-3 60l59 3v374h-237v-378l60 -3v-56zM189 563v-63
h237v71q0 63 14 102q-97 29 -135 29q-67 0 -91.5 -31t-24.5 -108zM909 0h-192l-4 60l60 3v374l-59 3l3 60h136v-441l60 -3z" />
    <glyph glyph-name="ffl" unicode="ffl" horiz-adv-x="942" 
d="M249 0h-196l-4 60l60 3v374h-61v60l61 3v71q0 98 40 145t139 47q58 0 184 -41q43 41 133 41q49 0 164 -35v22h80v-691l60 -3l-4 -56h-192l-4 60l60 2v608q-101 32 -146 32q-67 0 -91.5 -31t-24.5 -108v-63h171v-63h-171v-378l60 -3v-56h-197l-3 60l59 3v374h-237v-378
l60 -3v-56zM189 563v-63h237v71q0 63 14 102q-97 29 -135 29q-67 0 -91.5 -31t-24.5 -108z" />
    <glyph glyph-name="ft" unicode="ft" horiz-adv-x="684" 
d="M650 437h-152v-285q0 -52 15.5 -75.5t51.5 -23.5l77 8v-54q-44 -15 -102 -15q-63 0 -92.5 33t-29.5 109v303h-229v-379l60 -2l-4 -56h-192l-4 60l60 2v375h-61v60l61 3v81q0 94 32 138t100 44q43 0 87 -33l7 24h47v-133h-58l-2 55q-25 27 -59 27q-41 0 -57.5 -27
t-16.5 -103v-73h229l9 150h71v-150h152v-63z" />
    <glyph glyph-name="tt" unicode="tt" horiz-adv-x="668" 
d="M634 437h-152v-285q0 -52 15.5 -75.5t51.5 -23.5l77 8v-54q-44 -15 -102 -15q-63 0 -92.5 33t-29.5 109v303h-221v-285q0 -52 15.5 -75.5t51.5 -23.5l77 8v-54q-44 -15 -102 -15q-63 0 -92.5 33t-29.5 109v303h-61v60l61 2l9 151h71v-150h221l9 150h71v-150h152v-63z" />
    <glyph glyph-name="afii10056_afii10056" unicode="&#x407;&#x407;" horiz-adv-x="665" 
d="M272 750q-13 -10 -30 -10q-18 0 -29 10q-13 12 -13 29q0 18 13 30q13 10 29 10q15 0 30 -10q12 -12 12 -30q0 -17 -12 -29zM104 750q-11 -10 -29 -10t-29 10q-13 12 -13 29q0 18 13 30q13 10 29 10t29 -10q13 -13 13 -30q0 -16 -13 -29zM612 750q-13 -10 -30 -10
q-18 0 -29 10q-13 12 -13 29q0 18 13 30q13 10 29 10q15 0 30 -10q12 -12 12 -30q0 -17 -12 -29zM444 750q-11 -10 -29 -10t-29 10q-13 12 -13 29q0 18 13 30q13 10 29 10t29 -10q13 -13 13 -30q0 -16 -13 -29zM282 0h-236l-4 60l80 3v528l-81 3l4 56h239v-60l-78 -3v-528
l80 -3zM618 0h-236l-4 60l80 3v528l-81 3l4 56h239v-60l-78 -3v-528l80 -3z" />
    <glyph glyph-name="quoteright_afii10104" unicode="&#x27;&#x457;" horiz-adv-x="344" 
d="M33 492l-29 26q38 29 66 74t31 81q-15 2 -23 10q-14 12 -14 29q0 18 14 30q11 10 30 10q18 0 31 -10q4 -4 5 -6q2 -2 2 -3q5 -8 6 -14q11 -44 -27 -116.5t-92 -110.5zM326 614q-13 -10 -30 -10q-19 0 -30 10q-13 12 -13 30q0 19 13 31q13 10 30 10q15 0 30 -10
q13 -13 13 -31q0 -17 -13 -30zM308 0h-192l-4 60l60 3v374l-59 3l3 60h136v-441l60 -3z" />
    <glyph glyph-name="afii10104_afii10104" unicode="&#x457;&#x457;" horiz-adv-x="554" 
d="M223 614q-13 -10 -30 -10q-19 0 -30 10q-13 12 -13 30q0 19 13 31q13 10 30 10q15 0 30 -10q13 -13 13 -31q0 -17 -13 -30zM69 614q-11 -10 -30 -10q-18 0 -29 10q-13 12 -13 30q0 19 13 31q13 10 29 10q17 0 30 -10q13 -13 13 -31q0 -17 -13 -30zM527 614
q-13 -10 -30 -10q-19 0 -30 10q-12 12 -12 30q0 19 12 31q13 10 30 10q15 0 30 -10q13 -13 13 -31q0 -17 -13 -30zM376 614q-13 -10 -30 -10q-19 0 -30 10q-13 12 -13 30q0 19 13 31q13 10 30 10q15 0 30 -10q12 -12 12 -31q0 -18 -12 -30zM233 0h-192l-4 60l60 3v374l-59 3
l3 60h136v-441l60 -3zM518 0h-192l-4 60l60 3v374l-59 3l3 60h136v-441l60 -3z" />
    <glyph glyph-name="afii10103_afii10104" unicode="&#x456;&#x457;" horiz-adv-x="554" 
d="M540 614q-11 -10 -30 -10q-18 0 -29 10q-13 12 -13 30q0 19 13 31q13 10 29 10q17 0 30 -10q13 -13 13 -31q0 -17 -13 -30zM369 614q-11 -10 -30 -10q-18 0 -29 10q-13 12 -13 30q0 19 13 31q13 10 29 10q17 0 30 -10q13 -13 13 -31q0 -17 -13 -30zM233 0h-192l-4 60
l60 3v374l-59 3l3 60h136v-441l60 -3zM173 609q-13 -10 -35 -10q-24 0 -36 11q-14 11 -14 34q0 22 14 35q14 11 35 11q20 0 36 -11q14 -14 14 -35t-14 -35zM518 0h-192l-4 60l60 3v374l-59 3l3 60h136v-441l60 -3z" />
    <glyph glyph-name=".notdef" horiz-adv-x="619" 
d="M344 102h-65v188h-185v61h185v187h65v-187h182v-61h-182v-188zM136 440l-54 54l56 56l54 -54zM483 91l-54 54l56 56l54 -54zM485 440l-56 56l54 53l56 -55zM138 91l-56 56l54 53l56 -55z" />
    <glyph glyph-name=".null" horiz-adv-x="0" 
 />
    <glyph glyph-name="nonmarkingreturn" horiz-adv-x="333" 
 />
    <glyph glyph-name="space" unicode=" " horiz-adv-x="271" 
 />
    <glyph glyph-name="exclam" unicode="!" horiz-adv-x="316" 
d="M192 212h-65l-10 447v91h84v-91zM195 3q-15 -12 -35 -12q-22 0 -35 12q-16 13 -16 34t16 34q13 12 35 12q20 0 35 -12q16 -14 16 -34t-16 -34z" />
    <glyph glyph-name="quotedbl" unicode="&#x22;" horiz-adv-x="339" 
d="M97 522h-58l-1 226h74zM259 522h-58l-1 226h74z" />
    <glyph glyph-name="numbersign" unicode="#" horiz-adv-x="556" 
d="M168 89l-47 12l28 117h-93v52h106l26 108h-132v53h145l34 137l48 -12l-31 -125h101l31 129l48 -13l-28 -116h95v-53h-108l-26 -108h134v-52h-147l-33 -138l-47 13l30 125h-102zM239 378l-26 -108h101l26 108h-101z" />
    <glyph glyph-name="dollar" unicode="$" horiz-adv-x="469" 
d="M268 -50h-60l-4 102q-42 1 -79 7.5t-53 12.5l-16 6l-7 127l50 4l6 -83q57 -17 114 -17q67 0 101 26.5t34 65.5q0 34 -30.5 55t-74 33t-86.5 26.5t-73.5 46.5t-30.5 81q0 56 40 92t104 43l1 122h60l4 -124q45 -8 89 -39l11 34h41v-138h-54l-6 49q-47 41 -105 41
q-47 0 -76 -19t-29 -52q0 -34 30.5 -55.5t74.5 -34.5t87.5 -28t74 -46t30.5 -78q0 -61 -41 -103.5t-126 -52.5z" />
    <glyph glyph-name="percent" unicode="%" horiz-adv-x="931" 
d="M328 2l-62 10l330 629l62 -10zM237 286q-87 0 -134.5 51t-47.5 137t48.5 137.5t133.5 51.5q84 0 133.5 -52t49.5 -137q0 -86 -48.5 -137t-134.5 -51zM237 343q55 0 86 36t31 96t-31 95.5t-86 35.5t-85.5 -35.5t-30.5 -95.5q0 -61 30 -96.5t86 -35.5zM693 -14
q-87 0 -134.5 51t-47.5 137t48.5 137.5t133.5 51.5q84 0 133.5 -52t49.5 -137q0 -86 -48.5 -137t-134.5 -51zM693 43q55 0 86 36t31 96t-31 95.5t-86 35.5t-85.5 -35.5t-30.5 -95.5q0 -61 30 -96.5t86 -35.5z" />
    <glyph glyph-name="ampersand" unicode="&#x26;" horiz-adv-x="700" 
d="M434 509h-58l-3 61q-36 31 -79 31q-57 0 -90 -30.5t-33 -82.5q0 -56 35.5 -91t78.5 -37h151l28 140h47v-140h152v-57h-152v-165q0 -49 17.5 -69.5t54.5 -20.5q18 0 37.5 2t29.5 4l10 2v-56q-29 -14 -98 -14q-87 0 -113 60q-58 -60 -160 -60q-119 0 -176.5 56.5
t-57.5 141.5q0 60 39 98.5t99 55.5q-44 23 -72.5 63.5t-28.5 94.5q0 76 52 121.5t132 45.5q47 0 104 -37l7 28h47v-145zM434 129v174h-158q-57 -3 -98 -31.5t-41 -83.5q0 -58 40 -98.5t120 -40.5q37 0 65 9.5t42.5 25t20.5 25.5t9 20z" />
    <glyph glyph-name="quotesingle" unicode="'" horiz-adv-x="178" 
d="M97 522h-58l-1 226h74z" />
    <glyph glyph-name="parenleft" unicode="(" horiz-adv-x="352" 
d="M305 -158l-60 -25q-6 6 -15.5 17.5t-34.5 53.5t-44 90.5t-34.5 127.5t-15.5 166t15 166t36 130t42 90t36 56l15 18l60 -25q-5 -6 -13.5 -18.5t-30 -54.5t-37.5 -89t-29.5 -121t-13.5 -152t13 -150.5t31 -121t36 -86t31 -54.5z" />
    <glyph glyph-name="parenright" unicode=")" horiz-adv-x="352" 
d="M47 707l60 25q6 -6 15.5 -17.5t34.5 -53.5t44 -90.5t34.5 -127.5t15.5 -166t-15 -166t-36 -130t-42 -90t-36 -57l-15 -17l-60 25q5 6 13.5 18.5t29.5 54.5t37 89t29.5 121t13.5 152t-12.5 150.5t-30.5 121t-36.5 86t-30.5 55.5z" />
    <glyph glyph-name="asterisk" unicode="*" horiz-adv-x="456" 
d="M137 310l-60 44l120 133l-175 40l23 70l163 -74l-18 181h75l-20 -180l166 73l23 -70l-175 -38l119 -135l-60 -44l-90 155z" />
    <glyph glyph-name="plus" unicode="+" horiz-adv-x="471" 
d="M269 80h-65v167h-165v61h165v167h65v-167h163v-61h-163v-167z" />
    <glyph glyph-name="comma" unicode="," horiz-adv-x="258" 
d="M85 -163l-40 26q35 33 52 77t13 79q-8 3 -16 9q-14 12 -14 29q0 18 14 30q11 10 30 10q18 0 31 -10q22 -19 22 -64q0 -49 -25.5 -103t-66.5 -83z" />
    <glyph glyph-name="hyphen" unicode="-" horiz-adv-x="341" 
d="M303 247h-264v61h264v-61z" />
    <glyph glyph-name="period" unicode="." horiz-adv-x="277" 
d="M172 3q-15 -12 -35 -12q-21 0 -35 12q-16 13 -16 34t16 34q14 12 35 12q20 0 35 -12q16 -14 16 -34t-16 -34z" />
    <glyph glyph-name="slash" unicode="/" horiz-adv-x="482" 
d="M69 -250h-76l439 1000h75z" />
    <glyph glyph-name="zero" unicode="0" horiz-adv-x="653" 
d="M326 -14q-128 0 -194.5 93.5t-66.5 254.5q0 159 65.5 244t195.5 85q131 0 196.5 -85t65.5 -244q0 -161 -66.5 -254.5t-195.5 -93.5zM326 48q87 0 131.5 74t44.5 212q0 267 -176 267q-175 0 -175 -267q0 -138 44 -212t131 -74z" />
    <glyph glyph-name="one" unicode="1" horiz-adv-x="426" 
d="M231 650h67v-591l60 -3l-4 -56h-226l-3 60l93 3v515l-133 -57l-21 58z" />
    <glyph glyph-name="two" unicode="2" horiz-adv-x="553" 
d="M123 498h-58l4 156h47l8 -43q66 52 146 52q102 0 154.5 -47t52.5 -130q0 -57 -33.5 -120.5t-89 -120.5t-104 -98t-101.5 -79h288l9 77l56 -4l-4 -141h-449v67q3 1 37 26.5t85 70.5t100 96.5t83.5 111t34.5 107.5q0 61 -34 89.5t-108 28.5q-78 0 -120 -48z" />
    <glyph glyph-name="three" unicode="3" horiz-adv-x="551" 
d="M468 603l-201 -229q3 0 10.5 0.5t11.5 0.5q93 0 149.5 -47t56.5 -128q0 -96 -76 -155t-196 -59q-52 0 -92 7.5t-53 14.5l-14 8l-4 125l54 4l8 -82q41 -13 102 -13q87 0 138 42.5t51 107.5q0 55 -38 86.5t-108 31.5q-19 0 -36 -5.5t-25 -10.5l-7 -6l-37 39l208 248h-237
l-7 -81h-56l4 152l65 -4h329v-47z" />
    <glyph glyph-name="four" unicode="4" horiz-adv-x="573" 
d="M505 0h-200l-4 56l68 3v114h-330l-5 50q109 191 184 436l76 -9q-67 -214 -174 -416h249v231l11 90h69v-321h84v-56l-84 -5v-118l60 -3z" />
    <glyph glyph-name="five" unicode="5" horiz-adv-x="539" 
d="M64 16l-4 125l54 3l8 -80q37 -14 105 -14q82 0 131 46.5t49 115.5q0 58 -46 94t-121 36q-28 0 -52 -5.5t-34.5 -11t-12.5 -8.5l-42 5l33 328h270l6 36l56 -4l-4 -103l-68 4h-199l-20 -192q38 9 74 9q111 0 176.5 -50t65.5 -138q0 -102 -74.5 -164t-189.5 -62
q-56 0 -96.5 7.5t-52.5 14.5z" />
    <glyph glyph-name="six" unicode="6" horiz-adv-x="601" 
d="M481 509h-58l-4 51q-44 41 -102 41q-160 0 -175 -248q74 60 174 60q108 0 169 -51t61 -142q0 -97 -61 -165.5t-173 -68.5q-117 0 -182 73.5t-65 200.5q0 30 3 63q12 169 75 254.5t166 85.5q58 0 115 -43l10 34h47v-145zM307 359q-65 0 -104 -27t-52 -54q-4 -12 -4 -41
q0 -88 41.5 -140.5t123.5 -52.5q77 0 114.5 53t37.5 124q0 60 -39.5 99t-117.5 39z" />
    <glyph glyph-name="seven" unicode="7" horiz-adv-x="488" 
d="M467 584q-75 -125 -144 -283.5t-103 -300.5h-93q64 257 247 579h-276l-6 -81h-56l4 156l64 -4h363v-66z" />
    <glyph glyph-name="eight" unicode="8" horiz-adv-x="582" 
d="M513 497q0 -114 -134 -163q27 -7 50.5 -19t47 -31t37.5 -50t14 -69q0 -91 -62.5 -135t-174.5 -44t-174 44.5t-62 137.5q0 64 41.5 104t102.5 61q-129 44 -129 166q0 78 59.5 121t161.5 43q103 0 162.5 -43.5t59.5 -122.5zM440 170q0 37 -16.5 64.5t-43 41.5t-48 20.5
t-44.5 8.5q-20 -2 -40.5 -8.5t-46.5 -20.5t-42 -41.5t-16 -63.5q0 -65 39 -98t109 -33t109.5 33t39.5 97zM153 495q0 -37 15 -64.5t39.5 -42t45 -21t41.5 -9.5q19 3 38 9.5t43 21t39 42t15 63.5q0 115 -138 115t-138 -114z" />
    <glyph glyph-name="nine" unicode="9" horiz-adv-x="601" 
d="M261 48q83 0 136.5 64t60.5 181q-64 -69 -173 -69q-106 0 -168 60.5t-62 154.5q0 95 64 159.5t178 64.5q239 0 239 -254q0 -52 -3 -82q-7 -166 -81 -253.5t-191 -87.5q-46 0 -86 5t-57 10l-16 5l-4 134l54 4l8 -86q48 -10 101 -10zM294 278q33 0 61 8t46.5 20.5t29 23.5
t17.5 21q6 30 6 78q0 176 -157 176q-78 0 -119 -49t-41 -117q0 -64 40.5 -112.5t116.5 -48.5z" />
    <glyph glyph-name="colon" unicode=":" horiz-adv-x="279" 
d="M172 382q-15 -12 -35 -12q-21 0 -35 12q-16 13 -16 34t16 34q13 12 35 12q20 0 35 -12q16 -14 16 -34t-16 -34zM172 3q-15 -12 -35 -12q-21 0 -35 12q-16 13 -16 34t16 34q14 12 35 12q20 0 35 -12q16 -14 16 -34t-16 -34z" />
    <glyph glyph-name="semicolon" unicode=";" horiz-adv-x="277" 
d="M96 -163l-40 26q35 33 52 77t13 79q-8 3 -16 9q-14 12 -14 29q0 18 14 30q11 10 30 10q18 0 31 -10q22 -19 22 -64q0 -49 -25.5 -103t-66.5 -83zM172 382q-15 -12 -35 -12q-21 0 -35 12q-16 13 -16 34t16 34q13 12 35 12q20 0 35 -12q16 -14 16 -34t-16 -34z" />
    <glyph glyph-name="less" unicode="&#x3c;" horiz-adv-x="427" 
d="M352 118l-281 200l281 199l35 -38l-234 -161l235 -162z" />
    <glyph glyph-name="equal" unicode="=" horiz-adv-x="543" 
d="M504 148h-465v61h465v-61zM504 346h-465v61h465v-61z" />
    <glyph glyph-name="greater" unicode="&#x3e;" horiz-adv-x="427" 
d="M357 318l-282 -200l-36 38l235 162l-235 161l36 38z" />
    <glyph glyph-name="question" unicode="?" horiz-adv-x="476" 
d="M99 602h-57l3 152h47l8 -35q63 44 131 44q99 0 147.5 -51t48.5 -119q0 -49 -19 -85.5t-47 -56.5l-60.5 -43t-59 -44.5t-42 -61t-10.5 -92.5l-46 -4q-9 40 -9 71q0 41 15 72.5t38 50.5t49.5 38.5l49.5 36.5t38 45t15 63q0 49 -29.5 82.5t-100.5 33.5q-64 0 -106 -42z
M202 3q-15 -12 -35 -12q-21 0 -35 12q-16 13 -16 34t16 34q14 12 35 12q20 0 35 -12q16 -14 16 -34t-16 -34z" />
    <glyph glyph-name="at" unicode="@" horiz-adv-x="968" 
d="M769 -77l24 -51q-3 -4 -9.5 -11t-31.5 -24.5t-55.5 -31t-82 -24.5t-110.5 -11q-213 0 -326 113t-113 315q0 209 116.5 322.5t337.5 113.5q188 0 289.5 -93t101.5 -258q0 -153 -56.5 -224.5t-143.5 -71.5t-103 53q-45 -54 -129 -54q-86 0 -138.5 56t-52.5 158
q0 96 54.5 152t148.5 56q74 0 119 -41l15 27h36v-307q0 -53 54 -53q55 0 93.5 57t38.5 188q0 144 -83.5 221t-243.5 77q-184 0 -283 -93.5t-99 -285.5q0 -176 98.5 -272t268.5 -96q51 0 97 9.5t75.5 23t51.5 27.5t32 24zM492 34q81 0 111 74v198q-25 55 -107 55
q-71 0 -107.5 -42.5t-36.5 -118.5q0 -77 37 -121.5t103 -44.5z" />
    <glyph glyph-name="A" unicode="A" horiz-adv-x="700" 
d="M209 0h-217l-4 60l79 3l228 587h111l228 -591l79 -3l-4 -56h-225v48l66 2l-59 150h-290l-59 -148l71 -2zM346 583l-124 -328h247z" />
    <glyph glyph-name="B" unicode="B" horiz-adv-x="631" 
d="M320 0h-274l-4 60l80 3v528l-81 3l4 56h273q112 0 167 -40.5t55 -114.5q0 -90 -87 -147q124 -33 124 -151q0 -92 -62.5 -144.5t-194.5 -52.5zM356 308h-159v-247h118q181 0 181 136q0 111 -140 111zM197 363h155q38 0 74 31.5t36 92.5q0 55 -37.5 78.5t-110.5 23.5h-117
v-226z" />
    <glyph glyph-name="C" unicode="C" horiz-adv-x="665" 
d="M593 429h-66l-6 121q-59 45 -133 45q-110 0 -178.5 -70.5t-68.5 -194.5q0 -126 68.5 -201t184.5 -75q63 0 117.5 26t78.5 52l23 25l32 -54q-3 -5 -9.5 -13t-29.5 -28t-50.5 -35.5t-73 -28t-95.5 -12.5q-158 0 -245 93.5t-87 250.5q0 152 90.5 242.5t230.5 90.5
q80 0 152 -49l14 40h51v-225z" />
    <glyph glyph-name="D" unicode="D" horiz-adv-x="750" 
d="M46 0l-4 60l80 3v528l-81 3l4 56h309q164 0 252.5 -79.5t88.5 -237.5t-88.5 -245.5t-251.5 -87.5h-309zM354 582h-148v-514h150q122 0 187 68.5t65 196.5q0 249 -254 249z" />
    <glyph glyph-name="E" unicode="E" horiz-adv-x="601" 
d="M533 505h-66l-4 80h-257v-226l296 1v-63h-296v-232h284l8 90l62 -4l-4 -151h-510l-4 60l80 3v528l-81 3l4 56h416l72 4v-149z" />
    <glyph glyph-name="F" unicode="F" horiz-adv-x="550" 
d="M543 505h-66l-4 80h-267v-228h284v-63h-284v-235l100 -3l-4 -56h-256l-4 60l80 3v528l-81 3l4 56h426l72 4v-149z" />
    <glyph glyph-name="G" unicode="G" horiz-adv-x="723" 
d="M593 459h-62l-6 92q-53 44 -133 44q-125 0 -188 -67t-63 -195q0 -129 64 -204t173 -75q50 0 87.5 12.5t56.5 32t27 32t12 24.5v101h-157v55h228v-311h-50l-11 70q-72 -84 -211 -84q-144 0 -224.5 94t-80.5 253q0 155 88 242.5t240 87.5q76 0 148 -48l11 39h51v-195z" />
    <glyph glyph-name="H" unicode="H" horiz-adv-x="766" 
d="M282 0h-236l-4 60l80 3v528l-81 3l4 56h239v-60l-78 -3v-233h354v233l-81 3l3 60h239v-60l-77 -3v-528l80 -3l-4 -56h-236l-4 60l80 3v228h-354v-229l80 -2z" />
    <glyph glyph-name="I" unicode="I" horiz-adv-x="329" 
d="M282 0h-236l-4 60l80 3v528l-81 3l4 56h239v-60l-78 -3v-528l80 -3z" />
    <glyph glyph-name="J" unicode="J" horiz-adv-x="449" 
d="M407 590l-63 -3v-400q0 -113 -47 -157t-131 -44q-42 0 -77 6t-49 12l-13 5l-7 139l58 4l7 -92q34 -10 72 -10q103 0 103 137v404l-95 3l4 56h238v-60z" />
    <glyph glyph-name="K" unicode="K" horiz-adv-x="713" 
d="M713 0h-153l-39 34l-221 254l-94 -64v-162l80 -2l-4 -60h-236l-4 60l80 3v528l-81 3l4 56h231v-52l-70 -3v-289l92 62l207 230l-44 2v50h229v-60l-107 -3l-220 -245l245 -281l109 -1z" />
    <glyph glyph-name="L" unicode="L" horiz-adv-x="559" 
d="M46 0l-4 60l80 3v528l-81 3l4 56h239v-60l-78 -3v-522h276l8 94l62 -4l-4 -155h-502z" />
    <glyph glyph-name="M" unicode="M" horiz-adv-x="1002" 
d="M269 0h-223l-4 60l80 3l1 528l-81 3l3 56h186l272 -564l269 564h185v-60l-78 -3l1 -525l80 -2l-4 -60h-225l-4 52l72 3v481h-1l-258 -536h-80l-259 536h-1v-483l73 -3z" />
    <glyph glyph-name="N" unicode="N" horiz-adv-x="788" 
d="M674 -6h-88l-389 537h-1l4 -31v-440l81 -2l-4 -58h-231l-4 60l80 3v528l-81 3l4 56h165l387 -544l-2 23v461l-81 2l3 58h234v-60l-77 -3v-593z" />
    <glyph glyph-name="O" unicode="O" horiz-adv-x="761" 
d="M707 334q0 -157 -87.5 -252.5t-239.5 -95.5t-238.5 95t-86.5 253q0 155 86 242t239 87q154 0 240.5 -87t86.5 -242zM620 334q0 124 -63.5 192.5t-176.5 68.5t-176 -68.5t-63 -192.5q0 -127 63.5 -203.5t175.5 -76.5t176 76.5t64 203.5z" />
    <glyph glyph-name="P" unicode="P" horiz-adv-x="580" 
d="M291 0h-245l-4 60l80 3v528l-81 3l4 56h254q243 0 243 -196q0 -47 -14 -85.5t-37.5 -64.5t-55 -43.5t-65.5 -25.5t-70 -8h-100v-172l94 -3zM285 589h-85v-303h84q75 0 123 39.5t48 123.5q0 140 -170 140z" />
    <glyph glyph-name="Q" unicode="Q" horiz-adv-x="761" 
d="M652 -71l8 -63q-34 -12 -72 -12q-66 0 -129.5 35.5t-103.5 97.5q-141 8 -220.5 102t-79.5 245q0 155 86 242t239 87q154 0 240.5 -85.5t86.5 -239.5q0 -142 -72 -235.5t-198 -111.5q75 -72 158 -72q30 0 57 10zM380 54q112 0 176 76.5t64 203.5q0 124 -63.5 192.5
t-176.5 68.5t-176 -68.5t-63 -192.5q0 -127 63.5 -203.5t175.5 -76.5z" />
    <glyph glyph-name="R" unicode="R" horiz-adv-x="628" 
d="M642 0h-143l-33 33l-144 199h-122v-177l73 -3l-4 -52h-223l-4 60l80 6v525l-81 3l4 56h254q117 0 180 -48t63 -144q0 -74 -38.5 -128.5t-99.5 -79.5l142 -189l100 -1zM285 589h-85v-294h109q62 0 104.5 43t42.5 116q0 135 -171 135z" />
    <glyph glyph-name="S" unicode="S" horiz-adv-x="580" 
d="M497 501h-65l-5 55q-51 45 -121 45q-68 0 -105 -30t-37 -84q0 -45 37.5 -73.5t91 -44.5t107.5 -34t91.5 -55.5t37.5 -96.5q0 -90 -62 -143.5t-174 -53.5q-64 0 -119 10t-78 20l-23 10l-2 143l62 4l7 -101q70 -24 145 -24q80 0 121 35.5t41 90.5q0 43 -37.5 69t-91.5 41.5
t-108 34t-91.5 58.5t-37.5 103q0 82 56.5 132.5t154.5 50.5q73 0 142 -49l13 40h50v-153z" />
    <glyph glyph-name="T" unicode="T" horiz-adv-x="540" 
d="M60 494h-62l4 160l72 -4h396l72 4v-160h-62l-6 91h-162v-523l80 -2l-4 -60h-236l-4 60l80 3v522h-160z" />
    <glyph glyph-name="U" unicode="U" horiz-adv-x="742" 
d="M266 594l-78 -3v-352q0 -79 47.5 -129.5t136.5 -50.5q90 0 137.5 50.5t47.5 129.5v351l-82 2l3 58h237v-56l-77 -3v-369q0 -102 -67.5 -169t-199.5 -67q-131 0 -199 67.5t-68 168.5v369l-81 3l4 56h239v-56z" />
    <glyph glyph-name="V" unicode="V" horiz-adv-x="672" 
d="M393 0h-110l-226 591l-78 3l4 56h225v-56l-65 -3l197 -528l196 527l-69 2l4 58h221v-56l-74 -3z" />
    <glyph glyph-name="W" unicode="W" horiz-adv-x="1025" 
d="M335 0h-89l-190 591l-77 3l4 56h225v-56l-66 -3l153 -498l179 557h88l183 -555l148 495l-72 2l4 58h221v-56l-71 -3l-186 -591h-89l-184 547z" />
    <glyph glyph-name="X" unicode="X" horiz-adv-x="696" 
d="M244 594l-47 -2l151 -208v-1l1 1l151 207l-48 1v58h235v-60l-98 -2l-191 -261l199 -266l101 -1l-3 -60h-240v56l45 1l-154 210l-154 -208l47 -1v-58h-237l-4 60l102 2l196 263l-195 266l-97 3l3 56h237v-56z" />
    <glyph glyph-name="Y" unicode="Y" horiz-adv-x="637" 
d="M441 0h-236l-4 60l79 3v206l-220 322l-93 3l3 56h237v-56l-52 -2l170 -253l168 252l-51 1v58h228v-60l-92 -2l-213 -318v-208l80 -2z" />
    <glyph glyph-name="Z" unicode="Z" horiz-adv-x="608" 
d="M559 593l-407 -528h345l8 90l62 -4l-4 -151h-518v57l407 528h-331l-6 -80h-65l3 145v4l73 -4h433v-57z" />
    <glyph glyph-name="bracketleft" unicode="[" horiz-adv-x="385" 
d="M373 -76h-272v777h272v-57h-201v-662h201v-58z" />
    <glyph glyph-name="backslash" unicode="\" horiz-adv-x="482" 
d="M489 -250h-75l-439 1000h75z" />
    <glyph glyph-name="bracketright" unicode="]" horiz-adv-x="385" 
d="M283 -76h-272v58h201v661h-201v58h272v-777z" />
    <glyph glyph-name="asciicircum" unicode="^" horiz-adv-x="388" 
d="M70 488l-32 32l155 167l157 -167l-33 -32l-123 134z" />
    <glyph glyph-name="underscore" unicode="_" horiz-adv-x="723" 
d="M684 -153h-645v61h645v-61z" />
    <glyph glyph-name="grave" unicode="`" horiz-adv-x="237" 
d="M157 577l-57 -5l-116 139l77 9z" />
    <glyph glyph-name="a" unicode="a" horiz-adv-x="536" 
d="M146 348h-61l3 157h51l7 -37q63 46 135 46q172 0 172 -182v-273l60 -3l-4 -56h-122l-12 64q-5 -10 -14 -19.5t-27 -24.5t-49 -24.5t-69 -9.5q-85 0 -130.5 37.5t-45.5 105.5q0 110 165 146q39 8 168 21v35q0 66 -25.5 95t-87.5 29q-65 0 -110 -42zM240 42q27 0 50.5 7
t37.5 16.5t25 21.5t14.5 18.5l5.5 10.5v127q-137 -10 -181 -26q-70 -24 -70 -80q0 -95 118 -95z" />
    <glyph glyph-name="b" unicode="b" horiz-adv-x="593" 
d="M149 0h-64v687l-59 3l4 60h136v-305h1l5 7.5t16.5 16.5t30 21t45 16.5t61.5 7.5q105 0 167.5 -62.5t62.5 -177.5q0 -127 -63.5 -207.5t-177.5 -80.5q-43 0 -79.5 11.5t-51 21.5t-23.5 19zM302 452q-29 0 -53.5 -7.5t-39 -18t-25 -21t-14.5 -17.5l-4 -8v-287
q5 -6 15 -14.5t41.5 -20t69.5 -11.5q91 0 135.5 61t44.5 164q0 95 -43 137.5t-127 42.5z" />
    <glyph glyph-name="c" unicode="c" horiz-adv-x="487" 
d="M458 335h-62l-5 71q-46 49 -108 49q-84 0 -123 -46.5t-39 -152.5q0 -105 45.5 -158t127.5 -53q41 0 77.5 15t52.5 30l15 15l36 -40q-2 -3 -6.5 -8.5t-20.5 -19t-36 -24t-53.5 -19t-71.5 -8.5q-121 0 -185 69.5t-64 199.5q0 127 60 193t173 66q63 0 124 -49l11 40h52v-170
z" />
    <glyph glyph-name="d" unicode="d" horiz-adv-x="600" 
d="M563 0h-126l-8 55q-8 -12 -22 -25t-52.5 -28.5t-87.5 -15.5q-102 0 -165.5 72t-63.5 189q0 125 61 196t175 71q48 0 86 -12t52 -24l14 -12h1v221l-59 3l4 60h135v-691l60 -3zM291 48q40 0 72.5 16.5t44.5 29.5t19 24v288q-47 47 -126 47q-93 0 -136.5 -51.5t-43.5 -152.5
q0 -97 44.5 -149t125.5 -52z" />
    <glyph glyph-name="e" unicode="e" horiz-adv-x="518" 
d="M474 235h-356q4 -93 50 -140.5t125 -47.5q45 0 82.5 16.5t52.5 32.5l15 17l38 -41q-2 -3 -6.5 -9t-21.5 -21t-37 -26t-53.5 -20.5t-71.5 -9.5q-118 0 -185.5 69t-67.5 196q0 124 64.5 193.5t174.5 69.5q102 0 155.5 -54.5t53.5 -162.5q0 -16 -3 -31.5t-6 -23.5zM278 455
q-72 0 -112 -43t-47 -122h293q1 13 1 23q0 142 -135 142z" />
    <glyph glyph-name="f" unicode="f" horiz-adv-x="361" 
d="M403 614h-57l-5 58q-26 31 -67 31q-47 0 -66 -28t-19 -102v-73h171v-63h-171v-379l60 -2l-4 -56h-192l-4 60l60 2v375h-61v60l61 3v81q0 95 34.5 138.5t112.5 43.5q50 0 92 -33l8 24h47v-140z" />
    <glyph glyph-name="g" unicode="g" horiz-adv-x="532" 
d="M513 439l-62 -2q23 -38 23 -97q0 -88 -55.5 -137.5t-148.5 -49.5q-4 0 -10 -0.5t-21.5 -2.5t-27.5 -5.5t-21.5 -11.5t-9.5 -19q0 -24 23 -38t87 -17q114 -5 170 -36t56 -109q0 -81 -60 -129.5t-178 -48.5q-119 0 -178 47.5t-59 127.5q0 94 102 127q-28 26 -28 72
q0 42 46 65q-49 23 -76 65.5t-27 99.5q0 63 33 103.5t79.5 55.5t107.5 15q60 0 108 -20l123 6zM267 -1q-28 2 -43 4q-42 -3 -74 -26.5t-32 -65.5q0 -53 40.5 -84t120.5 -31q77 0 118.5 30t41.5 82q0 51 -40 68.5t-132 22.5zM273 456q-138 0 -138 -116q0 -62 35.5 -97
t97.5 -35q61 0 94.5 35t33.5 98t-31.5 89t-91.5 26z" />
    <glyph glyph-name="h" unicode="h" horiz-adv-x="603" 
d="M229 0h-192l-4 60l60 3v624l-59 3l3 60h136v-293h1l4 3q3 3 9.5 8t16 11.5t23.5 12.5t30.5 11t38.5 8t46 3q178 0 178 -155v-300l60 -3l-4 -56h-136v344q0 102 -126 102q-43 0 -78 -13t-49 -25l-14 -13v-336l60 -3z" />
    <glyph glyph-name="i" unicode="i" horiz-adv-x="270" 
d="M233 0h-192l-4 60l60 3v374l-59 3l3 60h136v-441l60 -3zM172 609q-13 -10 -35 -10q-24 0 -36 11q-14 11 -14 34q0 22 14 35q14 11 35 11q20 0 36 -11q14 -14 14 -35t-14 -35z" />
    <glyph glyph-name="j" unicode="j" horiz-adv-x="266" 
d="M-65 -246l21 64q23 -10 59 -10q35 0 60.5 41t25.5 116v472l-58 3l4 60h134v-535q0 -112 -46.5 -170.5t-110.5 -58.5q-31 0 -53.5 4.5t-28.5 9.5zM176 609q-13 -10 -35 -10q-24 0 -36 11q-14 11 -14 34q0 22 14 35q14 11 35 11q20 0 36 -11q14 -14 14 -35t-14 -35z" />
    <glyph glyph-name="k" unicode="k" horiz-adv-x="545" 
d="M222 0h-185l-4 60l60 3v624l-59 3l3 60h136v-473l67 33l114 134l-34 2l4 54h192v-60l-92 -9l-131 -148l164 -218l92 -1l-4 -64h-123l-40 42l-156 202l-53 -26v-163l52 -3z" />
    <glyph glyph-name="l" unicode="l" horiz-adv-x="266" 
d="M229 0h-192l-4 60l60 3v624l-59 3l3 60h136v-691l60 -3z" />
    <glyph glyph-name="m" unicode="m" horiz-adv-x="852" 
d="M825 0h-137v359q0 51 -21 69.5t-68 18.5q-76 0 -127 -51q0 -3 0.5 -11.5t0.5 -12.5v-313l60 -3l-4 -56h-137v359q0 51 -20.5 69.5t-66.5 18.5q-77 0 -128 -51v-337l60 -3l-4 -56h-192l-4 60l60 3v374l-59 3l3 60h127l6 -49q57 63 157 63q98 0 127 -62q62 62 168 62
q73 0 108 -33t35 -110v-312l60 -3z" />
    <glyph glyph-name="n" unicode="n" horiz-adv-x="607" 
d="M233 0h-192l-4 60l60 3v374l-59 3l3 60h127l7 -44q7 9 20.5 19t56 24.5t94.5 14.5q179 0 179 -155v-300l59 -3l-3 -56h-137v344q0 102 -125 102q-43 0 -78.5 -13t-49.5 -25l-14 -13v-336l60 -3z" />
    <glyph glyph-name="o" unicode="o" horiz-adv-x="573" 
d="M286 -14q-120 0 -184 71.5t-64 196.5q0 124 63.5 192t184.5 68t184.5 -68t63.5 -192t-65 -196t-183 -72zM286 45q84 0 124.5 54.5t40.5 153.5q0 202 -165 202t-165 -202q0 -98 41 -153t124 -55z" />
    <glyph glyph-name="p" unicode="p" horiz-adv-x="600" 
d="M229 -250h-192l-4 60l60 3v624l-59 3l3 60h126l7 -56q54 70 167 70q104 0 164.5 -62t60.5 -178q0 -128 -61.5 -208t-174.5 -80q-48 0 -86 12t-52 24l-15 12v-225l60 -3zM309 452q-31 0 -57 -9t-42.5 -22.5t-24 -22t-12.5 -16.5v-290q6 -7 18 -15.5t42.5 -19t65.5 -10.5
q92 0 136 59.5t44 165.5q0 97 -42.5 138.5t-127.5 41.5z" />
    <glyph glyph-name="q" unicode="q" horiz-adv-x="593" 
d="M563 -250h-192l-4 60l60 3v246h-1q-2 -3 -5 -8t-16.5 -17.5t-30 -22t-45 -17.5t-61.5 -8q-103 0 -166 71.5t-63 189.5q0 125 62.5 196t177.5 71q41 0 77.5 -11.5t50.5 -21t22 -17.5l15 36h64v-691l59 -3zM292 48q93 0 135 70v288q-47 47 -125 47q-94 0 -137.5 -50.5
t-43.5 -153.5q0 -99 44.5 -150t126.5 -51z" />
    <glyph glyph-name="r" unicode="r" horiz-adv-x="424" 
d="M241 0h-200l-4 60l60 3v374l-64 3l4 60h123l7 -77h1q2 4 5.5 10t16.5 21.5t28.5 27.5t40 22t51.5 10q22 0 44 -3.5t33 -6.5l11 -4v-148h-58l-5 95q-24 2 -41 2q-36 0 -65 -19.5t-41 -38.5l-11 -19v-313l68 -3z" />
    <glyph glyph-name="s" unicode="s" horiz-adv-x="469" 
d="M409 367h-54l-6 49q-47 41 -105 41q-47 0 -76 -19t-29 -52q0 -34 30.5 -55.5t74.5 -34.5t87.5 -28t74 -46t30.5 -78q0 -69 -52.5 -113.5t-162.5 -44.5q-47 0 -88 6.5t-59 13.5l-18 6l-7 127l50 4l6 -83q57 -17 114 -17q67 0 101 26.5t34 65.5q0 34 -30.5 55t-74 33
t-86.5 26.5t-73.5 46t-30.5 81.5q0 62 49 99.5t124 37.5q66 0 125 -43l11 34h41v-138z" />
    <glyph glyph-name="t" unicode="t" horiz-adv-x="366" 
d="M333 437h-152v-285q0 -52 15.5 -75.5t51.5 -23.5l77 8v-54q-44 -15 -102 -15q-63 0 -92.5 33t-29.5 109v303h-61v60l61 2l9 151h71v-150h152v-63z" />
    <glyph glyph-name="u" unicode="u" horiz-adv-x="603" 
d="M430 105v332l-59 3l4 60h136v-441l59 -3l-3 -56h-127l-7 45q-59 -59 -172 -59q-83 0 -130.5 46.5t-47.5 128.5v276l-59 3l4 60h135v-324q0 -55 33.5 -88t92.5 -33q43 0 78 12.5t49 24.5z" />
    <glyph glyph-name="v" unicode="v" horiz-adv-x="515" 
d="M301 0h-87l-170 437l-70 3l4 60h131l150 -417h1l131 357l-47 2v58h194v-60l-68 -3z" />
    <glyph glyph-name="w" unicode="w" horiz-adv-x="784" 
d="M610 0h-85l-132 399l-136 -399h-85l-128 437l-66 3l4 60h130l104 -402h1l134 402h79l138 -402h1l93 346l-53 2v54h194v-60l-62 -3z" />
    <glyph glyph-name="x" unicode="x" horiz-adv-x="573" 
d="M186 0h-184v60l86 2l145 193l-137 182l-88 3l4 60h129l146 -204h1l105 146l-30 1l4 57h187v-60l-79 -3l-136 -182l149 -197l86 -2l-3 -56h-122l-40 44l-124 168l-114 -154h19z" />
    <glyph glyph-name="y" unicode="y" horiz-adv-x="527" 
d="M10 -243l8 55q35 -12 69 -12q70 0 145 200l-187 437l-71 3l4 60h130l166 -412h1l133 352l-53 2v58h193v-60l-66 -3l-175 -448q-99 -253 -210 -253q-32 0 -54 5.5t-27 10.5z" />
    <glyph glyph-name="z" unicode="z" horiz-adv-x="482" 
d="M436 446l-297 -385h235l7 90l58 -4l-4 -147h-395v54l296 385h-213l-6 -80h-57l3 141v4l65 -4h308v-54z" />
    <glyph glyph-name="braceleft" unicode="{" horiz-adv-x="433" 
d="M394 -107v-57q-113 0 -158 35.5t-45 105.5q0 36 15 100t15 93q0 38 -36 64t-72 26v64q36 0 72 26t36 64q0 29 -15 93t-15 100q0 70 45 105.5t158 35.5v-57q-73 0 -103 -26t-30 -77q0 -32 15 -95t15 -96q0 -65 -69 -105q69 -42 69 -105q0 -33 -15 -96t-15 -95
q0 -51 30 -77t103 -26z" />
    <glyph glyph-name="bar" unicode="|" horiz-adv-x="336" 
d="M205 -250h-74v1000h74v-1000z" />
    <glyph glyph-name="braceright" unicode="}" horiz-adv-x="433" 
d="M39 -164v57q73 0 103 26t30 77q0 32 -15 95t-15 96q0 64 69 105q-69 39 -69 105q0 33 15 96t15 95q0 51 -30 77t-103 26v57q113 0 158 -35.5t45 -105.5q0 -36 -15 -100t-15 -93q0 -38 36 -64t72 -26v-64q-36 0 -72 -26t-36 -64q0 -29 15 -93t15 -100q0 -70 -45 -105.5
t-158 -35.5z" />
    <glyph glyph-name="asciitilde" unicode="~" horiz-adv-x="665" 
d="M600 380l33 -35q-2 -4 -5.5 -9.5t-17 -20.5t-30 -26.5t-45 -21t-60.5 -9.5q-45 0 -82.5 13.5t-60.5 29.5t-61 29.5t-82 13.5q-38 0 -67.5 -13t-40.5 -25l-11 -13l-39 38q2 4 6 10.5t19.5 22.5t34 28.5t50.5 23t68 10.5q49 0 88.5 -14t62.5 -30.5t59 -30.5t77 -14
q33 0 59 10.5t35 21.5z" />
    <glyph glyph-name="nbspace" unicode="&#xa0;" horiz-adv-x="343" 
 />
    <glyph glyph-name="exclamdown" unicode="&#xa1;" horiz-adv-x="316" 
d="M199 -250h-85v91l10 447h65l10 -447v-91zM190 428q-15 -12 -35 -12q-21 0 -35 12q-16 13 -16 34t16 34q13 12 35 12q20 0 35 -12q16 -14 16 -34t-16 -34z" />
    <glyph glyph-name="cent" unicode="&#xa2;" horiz-adv-x="487" 
d="M304 -50h-61l-4 106q-97 13 -149 81.5t-52 184.5q0 117 51.5 182.5t149.5 74.5l1 121h60l4 -123q44 -9 91 -45l11 40h52v-170h-62l-5 71q-46 49 -108 49q-84 0 -123 -46.5t-39 -152.5q0 -105 45.5 -158t127.5 -53q41 0 77.5 15t52.5 30l15 15l36 -40q-2 -3 -6 -8
t-19 -17.5t-32.5 -23t-48 -19.5t-64.5 -11z" />
    <glyph glyph-name="sterling" unicode="&#xa3;" horiz-adv-x="590" 
d="M565 0h-512v67h44q65 42 65 158q0 14 -2 48l-107 2v61h102q-10 94 -10 147q0 83 50.5 131.5t137.5 48.5q59 0 115 -42l10 33h47v-145h-58l-5 55q-38 33 -90 33q-57 0 -88 -30t-31 -88q0 -49 6 -143h259v-63h-256q4 -144 -38 -206h301l8 78l56 -4z" />
    <glyph glyph-name="currency" unicode="&#xa4;" horiz-adv-x="629" 
d="M89 53l-30 37l115 109q-36 47 -36 115q0 67 36 114l-116 111l31 37l113 -119q48 38 113 38q63 0 110 -36l114 116l31 -37l-116 -108q38 -49 38 -116t-37 -115l116 -110l-31 -37l-113 119q-46 -38 -112 -38t-112 37zM315 183q56 0 90.5 35t34.5 96t-34.5 96t-90.5 35
t-90.5 -35t-34.5 -95q0 -61 34.5 -96.5t90.5 -35.5z" />
    <glyph glyph-name="yen" unicode="&#xa5;" horiz-adv-x="637" 
d="M441 0h-236l-4 60l79 3v95h-166v47h166v64l-16 23h-150v47h118l-172 252l-93 3l3 56h237v-56l-52 -2l170 -253l168 252l-51 1v58h228v-60l-92 -2l-167 -249h121v-47h-153l-14 -22v-65h167v-47h-167v-96l80 -2z" />
    <glyph glyph-name="brokenbar" unicode="&#xa6;" horiz-adv-x="336" 
d="M205 -250h-74v400h74v-400zM205 350h-74v400h74v-400z" />
    <glyph glyph-name="section" unicode="&#xa7;" horiz-adv-x="564" 
d="M477 513h-61l-5 53q-48 38 -104 38q-62 0 -88 -28t-26 -67q0 -36 33.5 -59t81.5 -37l96.5 -29t82 -46t33.5 -78q0 -79 -74 -125q30 -32 30 -75q0 -71 -46.5 -112t-161.5 -41q-57 0 -100.5 6t-58.5 12l-15 6l-4 149l57 4l13 -110q50 -8 103 -8q132 0 132 91
q0 30 -23.5 50.5t-58.5 31t-76.5 24.5t-76.5 28.5t-58.5 44.5t-23.5 72q0 75 67 120q-34 32 -34 80q0 66 48 110.5t132 44.5q65 0 126 -44l13 35h47v-141zM146 316q0 -44 38.5 -68.5t112.5 -45.5t104 -36q51 29 51 86q0 40 -39 63.5t-114 45t-107 36.5q-46 -24 -46 -81z" />
    <glyph glyph-name="dieresis" unicode="&#xa8;" horiz-adv-x="431" 
d="M295 614q-13 -10 -30 -10q-19 0 -30 10q-13 12 -13 30q0 19 13 31q13 10 30 10q15 0 30 -10q13 -13 13 -31q0 -17 -13 -30zM117 614q-11 -10 -30 -10q-18 0 -29 10q-13 12 -13 30q0 19 13 31q13 10 29 10q17 0 30 -10q13 -13 13 -31q0 -17 -13 -30z" />
    <glyph glyph-name="copyright" unicode="&#xa9;" horiz-adv-x="850" 
d="M764 323q0 -157 -90 -247t-251 -90q-160 0 -249 90t-89 247t90 248.5t248 91.5q160 0 250.5 -91.5t90.5 -248.5zM709 323q0 138 -76.5 216.5t-209.5 78.5q-132 0 -207.5 -78.5t-75.5 -216.5t75 -215t208 -77q134 0 210 77t76 215zM548 367h-46l-4 57q-29 29 -70 29
q-54 0 -85 -32t-31 -95q0 -61 37 -100.5t88 -39.5q36 0 64.5 12t38.5 24l11 11l18 -34q-2 -3 -5 -7t-15 -14.5t-26 -19t-38.5 -15t-52.5 -6.5q-75 0 -125.5 52.5t-50.5 136.5q0 82 47 128t117 46q47 0 86 -30l8 22h34v-125z" />
    <glyph glyph-name="ordfeminine" unicode="&#xaa;" horiz-adv-x="450" 
d="M373 320h-58l-12 53q-4 -7 -10.5 -15t-21 -20.5t-39.5 -20t-57 -7.5q-67 0 -102 26t-35 75q0 109 263 125v19q0 40 -22 59t-72 19q-33 0 -61 -9.5t-40 -19.5l-12 -9l-20 34l5.5 5.5t17 12.5t29 15.5t42 12t56.5 5.5q75 0 112 -31t37 -97v-232zM301 418v81
q-42 -3 -70.5 -7t-59 -13t-46.5 -24.5t-16 -37.5q0 -63 91 -63q22 0 40.5 6.5t29 16t18 19t10.5 16.5z" />
    <glyph glyph-name="guillemotleft" unicode="&#xab;" horiz-adv-x="560" 
d="M302 384l-133 -135l133 -137l-34 -38l-172 176l172 171zM490 384l-133 -135l133 -137l-34 -38l-172 176l172 171z" />
    <glyph glyph-name="logicalnot" unicode="&#xac;" horiz-adv-x="516" 
d="M454 121h-64v166h-330v61h394v-227z" />
    <glyph glyph-name="uni00AD" unicode="&#xad;" horiz-adv-x="356" 
d="M310 247h-264v61h264v-61z" />
    <glyph glyph-name="registered" unicode="&#xae;" horiz-adv-x="715" 
d="M656 453q0 -139 -79.5 -221t-219.5 -82q-141 0 -219 82t-78 221t80 221.5t217 82.5t218 -82.5t81 -221.5zM601 453q0 123 -64 192.5t-180 69.5t-179 -70t-63 -192q0 -123 62.5 -190.5t179.5 -67.5q116 0 180 67.5t64 190.5zM306 294h-44v317h96q132 0 132 -91
q0 -77 -79 -95l75 -131h-49l-72 125h-59v-125zM359 577h-53v-127h52q85 0 85 70q0 57 -84 57z" />
    <glyph glyph-name="macron" unicode="&#xaf;" horiz-adv-x="458" 
d="M334 633h-214v42h214v-42z" />
    <glyph glyph-name="degree" unicode="&#xb0;" horiz-adv-x="475" 
d="M237 385q-87 0 -134.5 51t-47.5 137t48.5 137.5t133.5 51.5q84 0 133.5 -52t49.5 -137q0 -86 -48.5 -137t-134.5 -51zM237 442q55 0 86 36t31 96t-31 95.5t-86 35.5t-85.5 -35.5t-30.5 -95.5q0 -61 30 -96.5t86 -35.5z" />
    <glyph glyph-name="plusminus" unicode="&#xb1;" horiz-adv-x="543" 
d="M306 328h-65v167h-165v61h165v167h65v-167h163v-61h-163v-167zM504 144h-465v61h465v-61z" />
    <glyph glyph-name="twosuperior" unicode="&#xb2;" 
d="M115 624h-53l4 129h43l8 -35q54 43 115 43q82 0 123.5 -42t41.5 -110q0 -42 -25 -89.5t-67 -90t-80 -75t-80 -61.5h212l7 60l52 -4l-4 -119h-361v61q3 2 29 21t66 54t78 74t65 83.5t27 79.5q0 49 -24 73.5t-80 24.5t-94 -41z" />
    <glyph glyph-name="threesuperior" unicode="&#xb3;" 
d="M389 707l-154 -176q4 1 12 1q72 0 117.5 -41.5t45.5 -108.5q0 -77 -61 -120.5t-158 -43.5q-41 0 -73 6t-44 12l-11 7l-3 104l50 3l7 -64q30 -10 78 -10q68 0 105.5 29.5t37.5 77.5q0 43 -28.5 69.5t-79.5 26.5q-16 0 -30 -4.5t-20 -8.5l-7 -5l-33 36l164 192h-180l-6 -64
h-51l3 128l60 -3h259v-43z" />
    <glyph glyph-name="acute" unicode="&#xb4;" horiz-adv-x="237" 
d="M116 572l-57 4l95 143l77 -8z" />
    <glyph glyph-name="uni00B5" unicode="&#xb5;" horiz-adv-x="613" 
d="M440 105v332l-59 3l4 60h136v-441l59 -3l-3 -56h-127l-7 45q-59 -59 -172 -59q-58 0 -99 23q0 -43 0.5 -129.5t0.5 -129.5h-81l1 533v154l-59 3l4 60h135v-324q0 -55 33.5 -88t92.5 -33q43 0 78 12.5t49 24.5z" />
    <glyph glyph-name="paragraph" unicode="&#xb6;" horiz-adv-x="719" 
d="M597 0h-82v581h-112v-581h-80v244q-268 0 -268 217q0 98 67.5 143.5t215.5 45.5h326v-69h-67v-581z" />
    <glyph glyph-name="periodcentered" unicode="&#xb7;" horiz-adv-x="277" 
d="M172 303q-15 -12 -35 -12q-21 0 -35 12q-16 13 -16 34t16 34q13 12 35 12q20 0 35 -12q16 -14 16 -34t-16 -34z" />
    <glyph glyph-name="cedilla" unicode="&#xb8;" horiz-adv-x="269" 
d="M43 -215l12 31q31 -29 79 -29q72 0 72 61q0 24 -24.5 38t-49 18.5t-24.5 5.5l13 87h41l-9 -65q0 -1 27 -6.5t54 -25t27 -53.5q0 -46 -28 -72t-82 -26q-34 0 -61 9t-37 18z" />
    <glyph glyph-name="onesuperior" unicode="&#xb9;" 
d="M236 750h62v-463l95 -2l-3 -55h-270l-4 55l109 5v389l-114 -55l-22 53z" />
    <glyph glyph-name="ordmasculine" unicode="&#xba;" horiz-adv-x="485" 
d="M242 310q-99 0 -149.5 49t-50.5 136t50.5 136t149.5 49t150 -49t51 -136t-51.5 -136t-149.5 -49zM242 355q126 0 126 140q0 138 -126 138t-126 -138q0 -140 126 -140z" />
    <glyph glyph-name="guillemotright" unicode="&#xbb;" horiz-adv-x="560" 
d="M275 244l-172 -170l-34 37l133 133l-132 138l33 39zM463 244l-172 -170l-34 37l133 133l-132 138l33 39z" />
    <glyph glyph-name="onequarter" unicode="&#xbc;" horiz-adv-x="909" 
d="M236 750h62v-463l95 -2l-3 -55h-270l-4 55l109 5v389l-114 -55l-22 53zM362 -4l-50 28l352 561l50 -27zM848 -265h-165l-3 51l52 2v90h-250l-5 45q88 159 137 340l70 -8q-46 -159 -129 -321h177v161l11 84h63v-245h63v-52l-63 -4v-89l45 -3z" />
    <glyph glyph-name="onehalf" unicode="&#xbd;" horiz-adv-x="968" 
d="M236 750h62v-463l95 -2l-3 -55h-270l-4 55l109 5v389l-114 -55l-22 53zM358 -4l-50 28l352 561l50 -27zM616 129h-53l4 129h43l8 -35q54 43 115 43q82 0 123.5 -42t41.5 -110q0 -136 -252 -316h212l7 60l52 -4l-4 -119h-361v61q3 2 29 21t66 54t78 74t65 83.5t27 79.5
q0 49 -24 73.5t-80 24.5t-94 -41z" />
    <glyph glyph-name="threequarters" unicode="&#xbe;" horiz-adv-x="903" 
d="M389 707l-154 -176q4 1 12 1q72 0 117.5 -41.5t45.5 -108.5q0 -77 -61 -120.5t-158 -43.5q-41 0 -73 6t-44 12l-11 7l-3 104l50 3l7 -64q30 -10 78 -10q68 0 105.5 29.5t37.5 77.5q0 43 -28.5 69.5t-79.5 26.5q-16 0 -30 -4.5t-20 -8.5l-7 -5l-33 36l164 192h-180l-6 -64
h-51l3 128l60 -3h259v-43zM356 -4l-50 28l352 561l50 -27zM842 -265h-165l-3 51l52 2v90h-250l-5 45q88 159 137 340l70 -8q-46 -159 -129 -321h177v161l11 84h63v-245h63v-52l-63 -4v-89l45 -3z" />
    <glyph glyph-name="questiondown" unicode="&#xbf;" horiz-adv-x="476" 
d="M414 -245q-48 -19 -144 -19q-120 0 -173.5 49t-53.5 118q0 42 14.5 74.5t37.5 53t50.5 38.5l54 36.5t48 40.5t32.5 57.5t7 81.5l46 4q9 -39 9 -68q0 -48 -21.5 -83.5t-53 -57.5l-62.5 -42.5t-52.5 -51.5t-21.5 -73q0 -49 33.5 -81t112.5 -32q45 0 76 9l7 102l58 -4z
M343 428q-15 -12 -35 -12q-22 0 -35 12q-16 13 -16 34t16 34q13 12 35 12q20 0 35 -12q16 -14 16 -34t-16 -34z" />
    <glyph glyph-name="Agrave" unicode="&#xc0;" horiz-adv-x="700" 
d="M209 0h-217l-4 60l79 3l228 587h111l228 -591l79 -3l-4 -56h-225v48l66 2l-59 150h-290l-59 -148l71 -2zM346 583l-124 -328h247zM389 712l-57 -5l-116 139l77 9z" />
    <glyph glyph-name="Aacute" unicode="&#xc1;" horiz-adv-x="700" 
d="M209 0h-217l-4 60l79 3l228 587h111l228 -591l79 -3l-4 -56h-225v48l66 2l-59 150h-290l-59 -148l71 -2zM346 583l-124 -328h247zM365 707l-57 4l95 143l77 -8z" />
    <glyph glyph-name="Acircumflex" unicode="&#xc2;" horiz-adv-x="700" 
d="M209 0h-217l-4 60l79 3l228 587h111l228 -591l79 -3l-4 -56h-225v48l66 2l-59 150h-290l-59 -148l71 -2zM346 583l-124 -328h247zM480 729l-130 95l-129 -95l-27 48l134 101h45l133 -101z" />
    <glyph glyph-name="Atilde" unicode="&#xc3;" horiz-adv-x="700" 
d="M209 0h-217l-4 60l79 3l228 587h111l228 -591l79 -3l-4 -56h-225v48l66 2l-59 150h-290l-59 -148l71 -2zM346 583l-124 -328h247zM520 807l10 -42q-2 -4 -6 -10.5t-25 -17t-51 -10.5q-35 0 -93 24.5t-89 24.5q-21 0 -40.5 -8t-28.5 -16l-9 -9l-10 47q2 5 8 13t30 21
t56 13q38 0 96 -25.5t86 -25.5q20 0 36.5 5t23.5 11z" />
    <glyph glyph-name="Adieresis" unicode="&#xc4;" horiz-adv-x="700" 
d="M209 0h-217l-4 60l79 3l228 587h111l228 -591l79 -3l-4 -56h-225v48l66 2l-59 150h-290l-59 -148l71 -2zM346 583l-124 -328h247zM468 749q-13 -10 -30 -10q-19 0 -30 10q-13 12 -13 30q0 19 13 31q13 10 30 10q15 0 30 -10q13 -13 13 -31q0 -17 -13 -30zM290 749
q-11 -10 -30 -10q-18 0 -29 10q-13 12 -13 30q0 19 13 31q13 10 29 10q17 0 30 -10q13 -13 13 -31q0 -17 -13 -30z" />
    <glyph glyph-name="Aring" unicode="&#xc5;" horiz-adv-x="700" 
d="M209 0h-217l-4 60l79 3l228 587h111l228 -591l79 -3l-4 -56h-225v48l66 2l-59 150h-290l-59 -148l71 -2zM346 583l-124 -328h247zM351 722q-46 0 -74 28.5t-28 74.5q0 45 29 74.5t73 29.5q43 0 72 -29.5t29 -74.5q0 -46 -28.5 -74.5t-72.5 -28.5zM351 758q27 0 45 18.5
t18 48.5t-18.5 49t-44.5 19q-27 0 -45.5 -19t-18.5 -49t18.5 -48.5t45.5 -18.5z" />
    <glyph glyph-name="AE" unicode="&#xc6;" horiz-adv-x="918" 
d="M855 505h-65l-4 80h-257v-226l296 1v-63h-296v-232h283l8 90l62 -4l-4 -151h-509l-4 45l80 2v153h-245l-98 -152l61 -2l-4 -46h-225l-4 60l96 2l346 528l-81 2l4 58h488l72 4v-149zM437 585l-203 -330h211v330h-8z" />
    <glyph glyph-name="Ccedilla" unicode="&#xc7;" horiz-adv-x="665" 
d="M267 -215l12 31q31 -29 79 -29q72 0 72 61q0 24 -24.5 38t-49 18.5t-24.5 5.5l11 78q-138 13 -213 104.5t-75 237.5q0 152 90.5 242.5t230.5 90.5q80 0 152 -49l14 40h51v-225h-66l-6 121q-59 45 -133 45q-110 0 -178.5 -70.5t-68.5 -194.5q0 -126 68.5 -201t184.5 -75
q63 0 117.5 26t78.5 52l23 25l32 -54q-3 -5 -9.5 -13t-29.5 -28t-50.5 -35.5t-73 -28t-95.5 -12.5h-3l-7 -54q0 -1 27 -6.5t54 -25t27 -53.5q0 -46 -28 -72t-82 -26q-34 0 -61 9t-37 18z" />
    <glyph glyph-name="Egrave" unicode="&#xc8;" horiz-adv-x="601" 
d="M533 505h-66l-4 80h-257v-226l296 1v-63h-296v-232h284l8 90l62 -4l-4 -151h-510l-4 60l80 3v528l-81 3l4 56h416l72 4v-149zM365 712l-57 -5l-116 139l77 9z" />
    <glyph glyph-name="Eacute" unicode="&#xc9;" horiz-adv-x="601" 
d="M533 505h-66l-4 80h-257v-226l296 1v-63h-296v-232h284l8 90l62 -4l-4 -151h-510l-4 60l80 3v528l-81 3l4 56h416l72 4v-149zM341 707l-57 4l95 143l77 -8z" />
    <glyph glyph-name="Ecircumflex" unicode="&#xca;" horiz-adv-x="601" 
d="M533 505h-66l-4 80h-257v-226l296 1v-63h-296v-232h284l8 90l62 -4l-4 -151h-510l-4 60l80 3v528l-81 3l4 56h416l72 4v-149zM456 729l-130 95l-129 -95l-27 48l134 101h45l133 -101z" />
    <glyph glyph-name="Edieresis" unicode="&#xcb;" horiz-adv-x="601" 
d="M533 505h-66l-4 80h-257v-226l296 1v-63h-296v-232h284l8 90l62 -4l-4 -151h-510l-4 60l80 3v528l-81 3l4 56h416l72 4v-149zM444 749q-13 -10 -30 -10q-19 0 -30 10q-13 12 -13 30q0 19 13 31q13 10 30 10q15 0 30 -10q13 -13 13 -31q0 -17 -13 -30zM266 749
q-11 -10 -30 -10q-18 0 -29 10q-13 12 -13 30q0 19 13 31q13 10 29 10q17 0 30 -10q13 -13 13 -31q0 -17 -13 -30z" />
    <glyph glyph-name="Igrave" unicode="&#xcc;" horiz-adv-x="329" 
d="M282 0h-236l-4 60l80 3v528l-81 3l4 56h239v-60l-78 -3v-528l80 -3zM202 712l-57 -5l-116 139l77 9z" />
    <glyph glyph-name="Iacute" unicode="&#xcd;" horiz-adv-x="329" 
d="M282 0h-236l-4 60l80 3v528l-81 3l4 56h239v-60l-78 -3v-528l80 -3zM178 707l-57 4l95 143l77 -8z" />
    <glyph glyph-name="Icircumflex" unicode="&#xce;" horiz-adv-x="329" 
d="M282 0h-236l-4 60l80 3v528l-81 3l4 56h239v-60l-78 -3v-528l80 -3zM293 729l-130 95l-129 -95l-27 48l134 101h45l133 -101z" />
    <glyph glyph-name="Idieresis" unicode="&#xcf;" horiz-adv-x="329" 
d="M282 0h-236l-4 60l80 3v528l-81 3l4 56h239v-60l-78 -3v-528l80 -3zM281 749q-13 -10 -30 -10q-19 0 -30 10q-13 12 -13 30q0 19 13 31q13 10 30 10q15 0 30 -10q13 -13 13 -31q0 -17 -13 -30zM103 749q-11 -10 -30 -10q-18 0 -29 10q-13 12 -13 30q0 19 13 31
q13 10 29 10q17 0 30 -10q13 -13 13 -31q0 -17 -13 -30z" />
    <glyph glyph-name="Eth" unicode="&#xd0;" horiz-adv-x="750" 
d="M46 0l-4 60l80 3v233h-94v54h94v241l-81 3l4 56h309q164 0 252.5 -79.5t88.5 -237.5t-88.5 -245.5t-251.5 -87.5h-309zM354 582h-148v-232h212v-54h-212v-228h150q122 0 187 68.5t65 196.5q0 249 -254 249z" />
    <glyph glyph-name="Ntilde" unicode="&#xd1;" horiz-adv-x="788" 
d="M674 -6h-88l-389 537h-1l4 -31v-440l81 -2l-4 -58h-231l-4 60l80 3v528l-81 3l4 56h165l387 -544l-2 23v461l-81 2l3 58h234v-60l-77 -3v-593zM572 807l10 -42q-2 -4 -6 -10.5t-25 -17t-51 -10.5q-35 0 -93 24.5t-89 24.5q-21 0 -40.5 -8t-28.5 -16l-9 -9l-10 47
q2 5 8 13t30 21t56 13q38 0 96 -25.5t86 -25.5q20 0 36.5 5t23.5 11z" />
    <glyph glyph-name="Ograve" unicode="&#xd2;" horiz-adv-x="761" 
d="M707 334q0 -157 -87.5 -252.5t-239.5 -95.5t-238.5 95t-86.5 253q0 155 86 242t239 87q154 0 240.5 -87t86.5 -242zM620 334q0 124 -63.5 192.5t-176.5 68.5t-176 -68.5t-63 -192.5q0 -127 63.5 -203.5t175.5 -76.5t176 76.5t64 203.5zM418 712l-57 -5l-116 139l77 9z
" />
    <glyph glyph-name="Oacute" unicode="&#xd3;" horiz-adv-x="761" 
d="M707 334q0 -157 -87.5 -252.5t-239.5 -95.5t-238.5 95t-86.5 253q0 155 86 242t239 87q154 0 240.5 -87t86.5 -242zM620 334q0 124 -63.5 192.5t-176.5 68.5t-176 -68.5t-63 -192.5q0 -127 63.5 -203.5t175.5 -76.5t176 76.5t64 203.5zM394 707l-57 4l95 143l77 -8z" />
    <glyph glyph-name="Ocircumflex" unicode="&#xd4;" horiz-adv-x="761" 
d="M707 334q0 -157 -87.5 -252.5t-239.5 -95.5t-238.5 95t-86.5 253q0 155 86 242t239 87q154 0 240.5 -87t86.5 -242zM620 334q0 124 -63.5 192.5t-176.5 68.5t-176 -68.5t-63 -192.5q0 -127 63.5 -203.5t175.5 -76.5t176 76.5t64 203.5zM509 729l-130 95l-129 -95l-27 48
l134 101h45l133 -101z" />
    <glyph glyph-name="Otilde" unicode="&#xd5;" horiz-adv-x="761" 
d="M707 334q0 -157 -87.5 -252.5t-239.5 -95.5t-238.5 95t-86.5 253q0 155 86 242t239 87q154 0 240.5 -87t86.5 -242zM620 334q0 124 -63.5 192.5t-176.5 68.5t-176 -68.5t-63 -192.5q0 -127 63.5 -203.5t175.5 -76.5t176 76.5t64 203.5zM549 807l10 -42q-2 -4 -6 -10.5
t-25 -17t-51 -10.5q-35 0 -93 24.5t-89 24.5q-21 0 -40.5 -8t-28.5 -16l-9 -9l-10 47q2 5 8 13t30 21t56 13q38 0 96 -25.5t86 -25.5q20 0 36.5 5t22.5 11z" />
    <glyph glyph-name="Odieresis" unicode="&#xd6;" horiz-adv-x="761" 
d="M707 334q0 -157 -87.5 -252.5t-239.5 -95.5t-238.5 95t-86.5 253q0 155 86 242t239 87q154 0 240.5 -87t86.5 -242zM620 334q0 124 -63.5 192.5t-176.5 68.5t-176 -68.5t-63 -192.5q0 -127 63.5 -203.5t175.5 -76.5t176 76.5t64 203.5zM498 749q-13 -10 -30 -10
q-19 0 -30 10q-13 12 -13 30q0 19 13 31q13 10 30 10q15 0 30 -10q13 -13 13 -31q0 -17 -13 -30zM320 749q-11 -10 -30 -10q-18 0 -29 10q-13 12 -13 30q0 19 13 31q13 10 29 10q17 0 30 -10q13 -13 13 -31q0 -17 -13 -30z" />
    <glyph glyph-name="multiply" unicode="&#xd7;" horiz-adv-x="405" 
d="M86 155l-46 49l115 116l-115 117l45 48l117 -118l118 118l45 -48l-116 -117l116 -116l-46 -49l-117 117z" />
    <glyph glyph-name="Oslash" unicode="&#xd8;" horiz-adv-x="761" 
d="M707 334q0 -157 -87.5 -252.5t-239.5 -95.5q-59 0 -113 16l-44 -103l-37 6l47 110q-85 39 -131.5 122.5t-46.5 196.5q0 155 86 242t239 87q73 0 136 -22l42 87l37 -6l-46 -95q76 -39 117 -114t41 -179zM262 82l223 493q-46 20 -105 20q-113 0 -176 -68.5t-63 -192.5
q0 -88 31.5 -153.5t89.5 -98.5zM620 334q0 159 -103 225l-222 -492q38 -13 85 -13q112 0 176 76.5t64 203.5z" />
    <glyph glyph-name="Ugrave" unicode="&#xd9;" horiz-adv-x="742" 
d="M266 594l-78 -3v-352q0 -79 47.5 -129.5t136.5 -50.5q90 0 137.5 50.5t47.5 129.5v351l-82 2l3 58h237v-56l-77 -3v-369q0 -102 -67.5 -169t-199.5 -67q-131 0 -199 67.5t-68 168.5v369l-81 3l4 56h239v-56zM426 712l-57 -5l-116 139l77 9z" />
    <glyph glyph-name="Uacute" unicode="&#xda;" horiz-adv-x="742" 
d="M266 594l-78 -3v-352q0 -79 47.5 -129.5t136.5 -50.5q90 0 137.5 50.5t47.5 129.5v351l-82 2l3 58h237v-56l-77 -3v-369q0 -102 -67.5 -169t-199.5 -67q-131 0 -199 67.5t-68 168.5v369l-81 3l4 56h239v-56zM367 707l-57 4l95 143l77 -8z" />
    <glyph glyph-name="Ucircumflex" unicode="&#xdb;" horiz-adv-x="742" 
d="M266 594l-78 -3v-352q0 -79 47.5 -129.5t136.5 -50.5q90 0 137.5 50.5t47.5 129.5v351l-82 2l3 58h237v-56l-77 -3v-369q0 -102 -67.5 -169t-199.5 -67q-131 0 -199 67.5t-68 168.5v369l-81 3l4 56h239v-56zM496 729l-130 95l-129 -95l-27 48l134 101h45l133 -101z" />
    <glyph glyph-name="Udieresis" unicode="&#xdc;" horiz-adv-x="742" 
d="M266 594l-78 -3v-352q0 -79 47.5 -129.5t136.5 -50.5q90 0 137.5 50.5t47.5 129.5v351l-82 2l3 58h237v-56l-77 -3v-369q0 -102 -67.5 -169t-199.5 -67q-131 0 -199 67.5t-68 168.5v369l-81 3l4 56h239v-56zM485 749q-13 -10 -30 -10q-19 0 -30 10q-13 12 -13 30
q0 19 13 31q13 10 30 10q15 0 30 -10q13 -13 13 -31q0 -17 -13 -30zM307 749q-11 -10 -30 -10q-18 0 -29 10q-13 12 -13 30q0 19 13 31q13 10 29 10q17 0 30 -10q13 -13 13 -31q0 -17 -13 -30z" />
    <glyph glyph-name="Yacute" unicode="&#xdd;" horiz-adv-x="637" 
d="M441 0h-236l-4 60l79 3v206l-220 322l-93 3l3 56h237v-56l-52 -2l170 -253l168 252l-51 1v58h228v-60l-92 -2l-213 -318v-208l80 -2zM353 707l-57 4l95 143l77 -8z" />
    <glyph glyph-name="Thorn" unicode="&#xde;" horiz-adv-x="589" 
d="M200 0h-154l-4 60l80 3v528l-81 3l4 56h155v-114h99q243 0 243 -200q0 -79 -37 -133t-90 -76.5t-115 -22.5h-100v-104zM292 471h-92v-304h91q74 0 121 39.5t47 124.5q0 140 -167 140z" />
    <glyph glyph-name="germandbls" unicode="&#xdf;" horiz-adv-x="617" 
d="M173 0h-136l-4 60l60 3v488q0 106 55 159t156 53q92 0 141.5 -40t49.5 -117q0 -83 -95 -127q179 -41 179 -234q0 -126 -58 -192.5t-160 -66.5q-48 0 -81.5 8t-43.5 16l-10 8l12 50q26 -21 98 -21q75 0 117.5 50t42.5 145q0 105 -51.5 149t-172.5 44l1 11l-1 50
q6 0 15.5 1.5t34.5 8t44 16.5t34.5 30t15.5 46q0 104 -115 104q-63 0 -95.5 -39t-32.5 -112v-551z" />
    <glyph glyph-name="agrave" unicode="&#xe0;" horiz-adv-x="536" 
d="M146 348h-61l3 157h51l7 -37q63 46 135 46q172 0 172 -182v-273l60 -3l-4 -56h-122l-12 64q-5 -10 -14 -19.5t-27 -24.5t-49 -24.5t-69 -9.5q-85 0 -130.5 37.5t-45.5 105.5q0 110 165 146q39 8 168 21v35q0 66 -25.5 95t-87.5 29q-65 0 -110 -42zM240 42q27 0 50.5 7
t37.5 16.5t25 21.5t14.5 18.5l5.5 10.5v127q-137 -10 -181 -26q-70 -24 -70 -80q0 -95 118 -95zM316 577l-57 -5l-116 139l77 9z" />
    <glyph glyph-name="aacute" unicode="&#xe1;" horiz-adv-x="536" 
d="M146 348h-61l3 157h51l7 -37q63 46 135 46q172 0 172 -182v-273l60 -3l-4 -56h-122l-12 64q-5 -10 -14 -19.5t-27 -24.5t-49 -24.5t-69 -9.5q-85 0 -130.5 37.5t-45.5 105.5q0 110 165 146q39 8 168 21v35q0 66 -25.5 95t-87.5 29q-65 0 -110 -42zM240 42q27 0 50.5 7
t37.5 16.5t25 21.5t14.5 18.5l5.5 10.5v127q-137 -10 -181 -26q-70 -24 -70 -80q0 -95 118 -95zM292 572l-57 4l95 143l77 -8z" />
    <glyph glyph-name="acircumflex" unicode="&#xe2;" horiz-adv-x="536" 
d="M146 348h-61l3 157h51l7 -37q63 46 135 46q172 0 172 -182v-273l60 -3l-4 -56h-122l-12 64q-5 -10 -14 -19.5t-27 -24.5t-49 -24.5t-69 -9.5q-85 0 -130.5 37.5t-45.5 105.5q0 110 165 146q39 8 168 21v35q0 66 -25.5 95t-87.5 29q-65 0 -110 -42zM240 42q27 0 50.5 7
t37.5 16.5t25 21.5t14.5 18.5l5.5 10.5v127q-137 -10 -181 -26q-70 -24 -70 -80q0 -95 118 -95zM406 594l-130 95l-129 -95l-27 48l134 101h45l133 -101z" />
    <glyph glyph-name="atilde" unicode="&#xe3;" horiz-adv-x="536" 
d="M146 348h-61l3 157h51l7 -37q63 46 135 46q172 0 172 -182v-273l60 -3l-4 -56h-122l-12 64q-5 -10 -14 -19.5t-27 -24.5t-49 -24.5t-69 -9.5q-85 0 -130.5 37.5t-45.5 105.5q0 110 165 146q39 8 168 21v35q0 66 -25.5 95t-87.5 29q-65 0 -110 -42zM240 42q27 0 50.5 7
t37.5 16.5t25 21.5t14.5 18.5l5.5 10.5v127q-137 -10 -181 -26q-70 -24 -70 -80q0 -95 118 -95zM446 672l10 -42q-2 -4 -6 -10.5t-25 -17t-51 -10.5q-35 0 -93 24.5t-89 24.5q-21 0 -40.5 -8.5t-28.5 -16.5l-9 -8l-10 47q2 5 8 13t30 21t56 13q38 0 96 -25.5t86 -25.5
q20 0 36.5 5.5t23.5 10.5z" />
    <glyph glyph-name="adieresis" unicode="&#xe4;" horiz-adv-x="536" 
d="M146 348h-61l3 157h51l7 -37q63 46 135 46q172 0 172 -182v-273l60 -3l-4 -56h-122l-12 64q-5 -10 -14 -19.5t-27 -24.5t-49 -24.5t-69 -9.5q-85 0 -130.5 37.5t-45.5 105.5q0 110 165 146q39 8 168 21v35q0 66 -25.5 95t-87.5 29q-65 0 -110 -42zM240 42q27 0 50.5 7
t37.5 16.5t25 21.5t14.5 18.5l5.5 10.5v127q-137 -10 -181 -26q-70 -24 -70 -80q0 -95 118 -95zM395 614q-13 -10 -30 -10q-19 0 -30 10q-13 12 -13 30q0 19 13 31q13 10 30 10q15 0 30 -10q13 -13 13 -31q0 -17 -13 -30zM217 614q-11 -10 -30 -10q-18 0 -29 10
q-13 12 -13 30q0 19 13 31q13 10 29 10q17 0 30 -10q13 -13 13 -31q0 -17 -13 -30z" />
    <glyph glyph-name="aring" unicode="&#xe5;" horiz-adv-x="536" 
d="M146 348h-61l3 157h51l7 -37q63 46 135 46q172 0 172 -182v-273l60 -3l-4 -56h-122l-12 64q-5 -10 -14 -19.5t-27 -24.5t-49 -24.5t-69 -9.5q-85 0 -130.5 37.5t-45.5 105.5q0 110 165 146q39 8 168 21v35q0 66 -25.5 95t-87.5 29q-65 0 -110 -42zM240 42q27 0 50.5 7
t37.5 16.5t25 21.5t14.5 18.5l5.5 10.5v127q-137 -10 -181 -26q-70 -24 -70 -80q0 -95 118 -95zM277 587q-46 0 -74 28.5t-28 74.5q0 45 29 74.5t73 29.5q43 0 72 -29.5t29 -74.5q0 -46 -28.5 -74.5t-72.5 -28.5zM277 623q27 0 45 18.5t18 48.5t-18.5 49t-44.5 19
q-27 0 -45.5 -19t-18.5 -49t18.5 -48.5t45.5 -18.5z" />
    <glyph glyph-name="ae" unicode="&#xe6;" horiz-adv-x="843" 
d="M800 235h-356q4 -93 50 -140.5t125 -47.5q45 0 82.5 16.5t52.5 32.5l15 17l38 -41q-2 -3 -6.5 -9t-21.5 -21t-37 -26t-53.5 -20.5t-71.5 -9.5q-163 0 -224 124q-50 -124 -183 -124q-84 0 -127 37t-43 106q0 109 159 144q39 9 167 22l2 11v25q0 66 -25 94.5t-87 28.5
t-106 -41l-4 -54h-61l3 146h51l7 -35q64 44 131 44q108 0 139 -84q64 84 187 84q102 0 155.5 -54.5t53.5 -162.5q0 -16 -3 -31.5t-6 -23.5zM604 455q-72 0 -112 -43t-47 -122h293q1 13 1 23q0 142 -135 142zM234 42q37 0 64 17.5t40.5 45.5t19.5 51.5t8 47.5q-2 24 -2 37
q-131 -9 -173 -23q-69 -23 -69 -81q0 -95 112 -95z" />
    <glyph glyph-name="ccedilla" unicode="&#xe7;" horiz-adv-x="487" 
d="M175 -215l12 31q31 -29 79 -29q72 0 72 61q0 24 -24.5 38t-49 18.5t-24.5 5.5l11 78q-104 10 -158.5 78.5t-54.5 188.5q0 127 60 193t173 66q63 0 124 -49l11 40h52v-170h-62l-5 71q-46 49 -108 49q-84 0 -123 -46.5t-39 -152.5q0 -105 45.5 -158t127.5 -53q41 0 77.5 15
t52.5 30l15 15l36 -40q-2 -3 -6.5 -8.5t-20 -18.5t-35 -23.5t-52 -19t-69.5 -9.5l-7 -54q0 -1 27 -6.5t54 -25t27 -53.5q0 -46 -28 -72t-82 -26q-34 0 -61 9t-37 18z" />
    <glyph glyph-name="egrave" unicode="&#xe8;" horiz-adv-x="518" 
d="M474 235h-356q4 -93 50 -140.5t125 -47.5q45 0 82.5 16.5t52.5 32.5l15 17l38 -41q-2 -3 -6.5 -9t-21.5 -21t-37 -26t-53.5 -20.5t-71.5 -9.5q-118 0 -185.5 69t-67.5 196q0 124 64.5 193.5t174.5 69.5q102 0 155.5 -54.5t53.5 -162.5q0 -16 -3 -31.5t-6 -23.5zM278 455
q-72 0 -112 -43t-47 -122h293q1 13 1 23q0 142 -135 142zM317 577l-57 -5l-116 139l77 9z" />
    <glyph glyph-name="eacute" unicode="&#xe9;" horiz-adv-x="518" 
d="M474 235h-356q4 -93 50 -140.5t125 -47.5q45 0 82.5 16.5t52.5 32.5l15 17l38 -41q-2 -3 -6.5 -9t-21.5 -21t-37 -26t-53.5 -20.5t-71.5 -9.5q-118 0 -185.5 69t-67.5 196q0 124 64.5 193.5t174.5 69.5q102 0 155.5 -54.5t53.5 -162.5q0 -16 -3 -31.5t-6 -23.5zM278 455
q-72 0 -112 -43t-47 -122h293q1 13 1 23q0 142 -135 142zM293 572l-57 4l95 143l77 -8z" />
    <glyph glyph-name="ecircumflex" unicode="&#xea;" horiz-adv-x="518" 
d="M474 235h-356q4 -93 50 -140.5t125 -47.5q45 0 82.5 16.5t52.5 32.5l15 17l38 -41q-2 -3 -6.5 -9t-21.5 -21t-37 -26t-53.5 -20.5t-71.5 -9.5q-118 0 -185.5 69t-67.5 196q0 124 64.5 193.5t174.5 69.5q102 0 155.5 -54.5t53.5 -162.5q0 -16 -3 -31.5t-6 -23.5zM278 455
q-72 0 -112 -43t-47 -122h293q1 13 1 23q0 142 -135 142zM408 594l-130 95l-129 -95l-27 48l134 101h45l133 -101z" />
    <glyph glyph-name="edieresis" unicode="&#xeb;" horiz-adv-x="518" 
d="M474 235h-356q4 -93 50 -140.5t125 -47.5q45 0 82.5 16.5t52.5 32.5l15 17l38 -41q-2 -3 -6.5 -9t-21.5 -21t-37 -26t-53.5 -20.5t-71.5 -9.5q-118 0 -185.5 69t-67.5 196q0 124 64.5 193.5t174.5 69.5q102 0 155.5 -54.5t53.5 -162.5q0 -16 -3 -31.5t-6 -23.5zM278 455
q-72 0 -112 -43t-47 -122h293q1 13 1 23q0 142 -135 142zM396 614q-13 -10 -30 -10q-19 0 -30 10q-13 12 -13 30q0 19 13 31q13 10 30 10q15 0 30 -10q13 -13 13 -31q0 -17 -13 -30zM218 614q-11 -10 -30 -10q-18 0 -29 10q-13 12 -13 30q0 19 13 31q13 10 29 10
q17 0 30 -10q13 -13 13 -31q0 -17 -13 -30z" />
    <glyph glyph-name="igrave" unicode="&#xec;" horiz-adv-x="270" 
d="M233 0h-192l-4 60l60 3v374l-59 3l3 60h136v-441l60 -3zM176 577l-57 -5l-116 139l77 9z" />
    <glyph glyph-name="iacute" unicode="&#xed;" horiz-adv-x="270" 
d="M233 0h-192l-4 60l60 3v374l-59 3l3 60h136v-441l60 -3zM152 572l-57 4l95 143l77 -8z" />
    <glyph glyph-name="icircumflex" unicode="&#xee;" horiz-adv-x="270" 
d="M233 0h-192l-4 60l60 3v374l-59 3l3 60h136v-441l60 -3zM266 594l-130 95l-129 -95l-27 48l134 101h45l133 -101z" />
    <glyph glyph-name="idieresis" unicode="&#xef;" horiz-adv-x="270" 
d="M233 0h-192l-4 60l60 3v374l-59 3l3 60h136v-441l60 -3zM255 614q-13 -10 -30 -10q-19 0 -30 10q-13 12 -13 30q0 19 13 31q13 10 30 10q15 0 30 -10q13 -13 13 -31q0 -17 -13 -30zM77 614q-11 -10 -30 -10q-18 0 -29 10q-13 12 -13 30q0 19 13 31q13 10 29 10
q17 0 30 -10q13 -13 13 -31q0 -17 -13 -30z" />
    <glyph glyph-name="eth" unicode="&#xf0;" horiz-adv-x="580" 
d="M39 260q0 123 62 188.5t181 65.5q102 0 172 -68q-26 122 -111 200l-128 -62l-15 30l115 56q-29 21 -60 39l34 38q45 -22 79 -51l96 47l15 -31l-83 -40q139 -136 139 -400q0 -134 -64 -210t-184 -76q-118 0 -183 74.5t-65 199.5zM287 455q-166 0 -166 -195
q0 -99 41.5 -157t124.5 -58t124 58t41 158q0 89 -41.5 141.5t-123.5 52.5z" />
    <glyph glyph-name="ntilde" unicode="&#xf1;" horiz-adv-x="607" 
d="M233 0h-192l-4 60l60 3v374l-59 3l3 60h127l7 -44q7 9 20.5 19t56 24.5t94.5 14.5q179 0 179 -155v-300l59 -3l-3 -56h-137v344q0 102 -125 102q-43 0 -78.5 -13t-49.5 -25l-14 -13v-336l60 -3zM462 672l10 -42q-2 -4 -6 -10.5t-25 -17t-51 -10.5q-35 0 -93 24.5
t-89 24.5q-21 0 -40.5 -8.5t-28.5 -16.5l-9 -8l-10 47q2 5 8 13t30 21t56 13q38 0 96 -25.5t86 -25.5q20 0 36.5 5.5t23.5 10.5z" />
    <glyph glyph-name="ograve" unicode="&#xf2;" horiz-adv-x="573" 
d="M286 -14q-120 0 -184 71.5t-64 196.5q0 124 63.5 192t184.5 68t184.5 -68t63.5 -192t-65 -196t-183 -72zM286 45q84 0 124.5 54.5t40.5 153.5q0 202 -165 202t-165 -202q0 -98 41 -153t124 -55zM325 577l-57 -5l-116 139l77 9z" />
    <glyph glyph-name="oacute" unicode="&#xf3;" horiz-adv-x="573" 
d="M286 -14q-120 0 -184 71.5t-64 196.5q0 124 63.5 192t184.5 68t184.5 -68t63.5 -192t-65 -196t-183 -72zM286 45q84 0 124.5 54.5t40.5 153.5q0 202 -165 202t-165 -202q0 -98 41 -153t124 -55zM301 572l-57 4l95 143l77 -8z" />
    <glyph glyph-name="ocircumflex" unicode="&#xf4;" horiz-adv-x="573" 
d="M286 -14q-120 0 -184 71.5t-64 196.5q0 124 63.5 192t184.5 68t184.5 -68t63.5 -192t-65 -196t-183 -72zM286 45q84 0 124.5 54.5t40.5 153.5q0 202 -165 202t-165 -202q0 -98 41 -153t124 -55zM415 594l-130 95l-129 -95l-27 48l134 101h45l133 -101z" />
    <glyph glyph-name="otilde" unicode="&#xf5;" horiz-adv-x="573" 
d="M286 -14q-120 0 -184 71.5t-64 196.5q0 124 63.5 192t184.5 68t184.5 -68t63.5 -192t-65 -196t-183 -72zM286 45q84 0 124.5 54.5t40.5 153.5q0 202 -165 202t-165 -202q0 -98 41 -153t124 -55zM455 672l10 -42q-2 -4 -6 -10.5t-25 -17t-51 -10.5q-35 0 -93 24.5
t-89 24.5q-21 0 -40.5 -8.5t-28.5 -16.5l-9 -8l-10 47q2 5 8 13t30 21t56 13q38 0 96 -25.5t86 -25.5q20 0 36.5 5.5t22.5 10.5z" />
    <glyph glyph-name="odieresis" unicode="&#xf6;" horiz-adv-x="573" 
d="M286 -14q-120 0 -184 71.5t-64 196.5q0 124 63.5 192t184.5 68t184.5 -68t63.5 -192t-65 -196t-183 -72zM286 45q84 0 124.5 54.5t40.5 153.5q0 202 -165 202t-165 -202q0 -98 41 -153t124 -55zM404 614q-13 -10 -30 -10q-19 0 -30 10q-13 12 -13 30q0 19 13 31
q13 10 30 10q15 0 30 -10q13 -13 13 -31q0 -17 -13 -30zM226 614q-11 -10 -30 -10q-18 0 -29 10q-13 12 -13 30q0 19 13 31q13 10 29 10q17 0 30 -10q13 -13 13 -31q0 -17 -13 -30z" />
    <glyph glyph-name="divide" unicode="&#xf7;" horiz-adv-x="543" 
d="M304 32q-15 -12 -35 -12q-21 0 -35 12q-16 13 -16 34t16 34q14 12 35 12q20 0 35 -12q16 -14 16 -34t-16 -34zM306 407q-15 -12 -35 -12q-21 0 -35 12q-16 13 -16 34t16 34q13 12 35 12q20 0 35 -12q16 -14 16 -34t-16 -34zM504 223h-465v61h465v-61z" />
    <glyph glyph-name="oslash" unicode="&#xf8;" horiz-adv-x="585" 
d="M131 -179l-53 6l84 185q-124 62 -124 242q0 124 63.5 192t184.5 68q52 0 97 -14l68 150l52 -6l-75 -165q106 -62 106 -225q0 -124 -65 -196t-183 -72q-42 0 -77 9zM121 253q0 -131 68 -180l168 370q-30 12 -71 12q-165 0 -165 -202zM286 45q84 0 124.5 54.5t40.5 153.5
q0 110 -52 162l-164 -364q23 -6 51 -6z" />
    <glyph glyph-name="ugrave" unicode="&#xf9;" horiz-adv-x="603" 
d="M430 105v332l-59 3l4 60h136v-441l59 -3l-3 -56h-127l-7 45q-59 -59 -172 -59q-83 0 -130.5 46.5t-47.5 128.5v276l-59 3l4 60h135v-324q0 -55 33.5 -88t92.5 -33q43 0 78 12.5t49 24.5zM336 577l-57 -5l-116 139l77 9z" />
    <glyph glyph-name="uacute" unicode="&#xfa;" horiz-adv-x="603" 
d="M430 105v332l-59 3l4 60h136v-441l59 -3l-3 -56h-127l-7 45q-59 -59 -172 -59q-83 0 -130.5 46.5t-47.5 128.5v276l-59 3l4 60h135v-324q0 -55 33.5 -88t92.5 -33q43 0 78 12.5t49 24.5zM312 572l-57 4l95 143l77 -8z" />
    <glyph glyph-name="ucircumflex" unicode="&#xfb;" horiz-adv-x="603" 
d="M430 105v332l-59 3l4 60h136v-441l59 -3l-3 -56h-127l-7 45q-59 -59 -172 -59q-83 0 -130.5 46.5t-47.5 128.5v276l-59 3l4 60h135v-324q0 -55 33.5 -88t92.5 -33q43 0 78 12.5t49 24.5zM427 594l-130 95l-129 -95l-27 48l134 101h45l133 -101z" />
    <glyph glyph-name="udieresis" unicode="&#xfc;" horiz-adv-x="603" 
d="M430 105v332l-59 3l4 60h136v-441l59 -3l-3 -56h-127l-7 45q-59 -59 -172 -59q-83 0 -130.5 46.5t-47.5 128.5v276l-59 3l4 60h135v-324q0 -55 33.5 -88t92.5 -33q43 0 78 12.5t49 24.5zM415 614q-13 -10 -30 -10q-19 0 -30 10q-13 12 -13 30q0 19 13 31q13 10 30 10
q15 0 30 -10q13 -13 13 -31q0 -17 -13 -30zM237 614q-11 -10 -30 -10q-18 0 -29 10q-13 12 -13 30q0 19 13 31q13 10 29 10q17 0 30 -10q13 -13 13 -31q0 -17 -13 -30z" />
    <glyph glyph-name="yacute" unicode="&#xfd;" horiz-adv-x="527" 
d="M10 -243l8 55q35 -12 69 -12q70 0 145 200l-187 437l-71 3l4 60h130l166 -412h1l133 352l-53 2v58h193v-60l-66 -3l-175 -448q-99 -253 -210 -253q-32 0 -54 5.5t-27 10.5zM290 572l-57 4l95 143l77 -8z" />
    <glyph glyph-name="thorn" unicode="&#xfe;" horiz-adv-x="592" 
d="M221 -250h-192l-4 60l60 3v874l-59 3l4 60h136v-305h1l5 7.5t16.5 16.5t30 21t45 16.5t61.5 7.5q105 0 167.5 -62.5t62.5 -177.5q0 -127 -63.5 -207.5t-177.5 -80.5q-99 0 -149 47v-224l60 -3zM302 452q-29 0 -53.5 -7.5t-39 -18t-25 -21t-14.5 -17.5l-4 -8v-287
q5 -6 15 -14.5t41.5 -20t69.5 -11.5q91 0 135.5 61t44.5 164q0 95 -43 137.5t-127 42.5z" />
    <glyph glyph-name="ydieresis" unicode="&#xff;" horiz-adv-x="527" 
d="M10 -243l8 55q35 -12 69 -12q70 0 145 200l-187 437l-71 3l4 60h130l166 -412h1l133 352l-53 2v58h193v-60l-66 -3l-175 -448q-99 -253 -210 -253q-32 0 -54 5.5t-27 10.5zM393 614q-13 -10 -30 -10q-19 0 -30 10q-13 12 -13 30q0 19 13 31q13 10 30 10q15 0 30 -10
q13 -13 13 -31q0 -17 -13 -30zM215 614q-11 -10 -30 -10q-18 0 -29 10q-13 12 -13 30q0 19 13 31q13 10 29 10q17 0 30 -10q13 -13 13 -31q0 -17 -13 -30z" />
    <glyph glyph-name="Amacron" unicode="&#x100;" horiz-adv-x="700" 
d="M209 0h-217l-4 60l79 3l228 587h111l228 -591l79 -3l-4 -56h-225v48l66 2l-59 150h-290l-59 -148l71 -2zM346 583l-124 -328h247zM461 768h-214v42h214v-42z" />
    <glyph glyph-name="amacron" unicode="&#x101;" horiz-adv-x="536" 
d="M146 348h-61l3 157h51l7 -37q63 46 135 46q172 0 172 -182v-273l60 -3l-4 -56h-122l-12 64q-5 -10 -14 -19.5t-27 -24.5t-49 -24.5t-69 -9.5q-85 0 -130.5 37.5t-45.5 105.5q0 110 165 146q39 8 168 21v35q0 66 -25.5 95t-87.5 29q-65 0 -110 -42zM240 42q27 0 50.5 7
t37.5 16.5t25 21.5t14.5 18.5l5.5 10.5v127q-137 -10 -181 -26q-70 -24 -70 -80q0 -95 118 -95zM388 633h-214v42h214v-42z" />
    <glyph glyph-name="Abreve" unicode="&#x102;" horiz-adv-x="700" 
d="M209 0h-217l-4 60l79 3l228 587h111l228 -591l79 -3l-4 -56h-225v48l66 2l-59 150h-290l-59 -148l71 -2zM346 583l-124 -328h247zM351 764q38 0 63.5 15t31.5 29l7 15l70 -10q-1 -4 -3 -11t-14 -24.5t-29 -31t-50.5 -24.5t-75.5 -11q-43 0 -76 10.5t-50.5 25.5t-28.5 30
t-14 25l-3 11l69 10q1 -2 2.5 -6t9 -14.5t17.5 -18t30 -14t44 -6.5z" />
    <glyph glyph-name="abreve" unicode="&#x103;" horiz-adv-x="536" 
d="M146 348h-61l3 157h51l7 -37q63 46 135 46q172 0 172 -182v-273l60 -3l-4 -56h-122l-12 64q-5 -10 -14 -19.5t-27 -24.5t-49 -24.5t-69 -9.5q-85 0 -130.5 37.5t-45.5 105.5q0 110 165 146q39 8 168 21v35q0 66 -25.5 95t-87.5 29q-65 0 -110 -42zM240 42q27 0 50.5 7
t37.5 16.5t25 21.5t14.5 18.5l5.5 10.5v127q-137 -10 -181 -26q-70 -24 -70 -80q0 -95 118 -95zM278 629q24 0 43.5 6t30 14.5t17.5 17.5t9 15l2 6l70 -10q-1 -4 -3 -11t-14 -24.5t-29 -31t-50.5 -24.5t-75.5 -11q-43 0 -76 10.5t-50.5 25.5t-28.5 30t-14 26l-3 10l69 10
q1 -2 2.5 -6t9 -14.5t17.5 -18t30 -14t44 -6.5z" />
    <glyph glyph-name="Aogonek" unicode="&#x104;" horiz-adv-x="700" 
d="M681 -208v-42q-184 0 -184 117q0 76 94 133h-107v48l66 2l-59 150h-290l-59 -148l71 -2l-4 -50h-217l-4 60l79 3l228 587h111l228 -591l79 -3l-4 -56h-51l-11 -5.5t-25 -15.5t-31.5 -26.5t-24.5 -37t-11 -47.5q0 -76 126 -76zM346 583l-124 -328h247z" />
    <glyph glyph-name="aogonek" unicode="&#x105;" horiz-adv-x="536" 
d="M476 -208v-42q-184 0 -184 117q0 77 95 133l-12 64q-5 -10 -14 -19.5t-27 -24.5t-49 -24.5t-69 -9.5q-85 0 -130.5 37.5t-45.5 105.5q0 110 165 146q39 8 168 21v35q0 66 -25.5 95t-87.5 29q-65 0 -110 -42l-4 -65h-61l3 157h51l7 -37q63 46 135 46q172 0 172 -182v-273
l60 -3l-4 -56h-56l-11 -5.5t-25 -15.5t-31.5 -26.5t-24.5 -37t-11 -47.5q0 -76 126 -76zM240 42q27 0 50.5 7t37.5 16.5t25 21.5t14.5 18.5l5.5 10.5v127q-137 -10 -181 -26q-70 -24 -70 -80q0 -95 118 -95z" />
    <glyph glyph-name="Cacute" unicode="&#x106;" horiz-adv-x="665" 
d="M593 429h-66l-6 121q-59 45 -133 45q-110 0 -178.5 -70.5t-68.5 -194.5q0 -126 68.5 -201t184.5 -75q63 0 117.5 26t78.5 52l23 25l32 -54q-3 -5 -9.5 -13t-29.5 -28t-50.5 -35.5t-73 -28t-95.5 -12.5q-158 0 -245 93.5t-87 250.5q0 152 90.5 242.5t230.5 90.5
q80 0 152 -49l14 40h51v-225zM400 707l-57 4l95 143l77 -8z" />
    <glyph glyph-name="cacute" unicode="&#x107;" horiz-adv-x="487" 
d="M458 335h-62l-5 71q-46 49 -108 49q-84 0 -123 -46.5t-39 -152.5q0 -105 45.5 -158t127.5 -53q41 0 77.5 15t52.5 30l15 15l36 -40q-2 -3 -6.5 -8.5t-20.5 -19t-36 -24t-53.5 -19t-71.5 -8.5q-121 0 -185 69.5t-64 199.5q0 127 60 193t173 66q63 0 124 -49l11 40h52v-170
zM314 572l-57 4l95 143l77 -8z" />
    <glyph glyph-name="Ccaron" unicode="&#x10c;" horiz-adv-x="665" 
d="M593 429h-66l-6 121q-59 45 -133 45q-110 0 -178.5 -70.5t-68.5 -194.5q0 -126 68.5 -201t184.5 -75q63 0 117.5 26t78.5 52l23 25l32 -54q-3 -5 -9.5 -13t-29.5 -28t-50.5 -35.5t-73 -28t-95.5 -12.5q-158 0 -245 93.5t-87 250.5q0 152 90.5 242.5t230.5 90.5
q80 0 152 -49l14 40h51v-225zM542 808l-134 -100h-45l-133 100l26 48l129 -96l131 96z" />
    <glyph glyph-name="ccaron" unicode="&#x10d;" horiz-adv-x="487" 
d="M458 335h-62l-5 71q-46 49 -108 49q-84 0 -123 -46.5t-39 -152.5q0 -105 45.5 -158t127.5 -53q41 0 77.5 15t52.5 30l15 15l36 -40q-2 -3 -6.5 -8.5t-20.5 -19t-36 -24t-53.5 -19t-71.5 -8.5q-121 0 -185 69.5t-64 199.5q0 127 60 193t173 66q63 0 124 -49l11 40h52v-170
zM456 673l-134 -100h-45l-133 100l26 48l129 -96l131 96z" />
    <glyph glyph-name="Dcaron" unicode="&#x10e;" horiz-adv-x="750" 
d="M46 0l-4 60l80 3v528l-81 3l4 56h309q164 0 252.5 -79.5t88.5 -237.5t-88.5 -245.5t-251.5 -87.5h-309zM354 582h-148v-514h150q122 0 187 68.5t65 196.5q0 249 -254 249zM486 808l-134 -100h-45l-133 100l26 48l129 -96l131 96z" />
    <glyph glyph-name="dcaron" unicode="&#x10f;" horiz-adv-x="600" 
d="M563 0h-126l-8 55q-8 -12 -22 -25t-52.5 -28.5t-87.5 -15.5q-102 0 -165.5 72t-63.5 189q0 125 61 196t175 71q48 0 86 -12t52 -24l14 -12h1v221l-59 3l4 60h135v-691l60 -3zM291 48q40 0 72.5 16.5t44.5 29.5t19 24v288q-47 47 -126 47q-93 0 -136.5 -51.5t-43.5 -152.5
q0 -97 44.5 -149t125.5 -52zM621 545l-48 7q17 35 28 89t8 93l6 35l55 -7q-2 -50 -16.5 -115t-32.5 -102z" />
    <glyph glyph-name="Dcroat" unicode="&#x110;" horiz-adv-x="750" 
d="M46 0l-4 60l80 3v233h-94v54h94v241l-81 3l4 56h309q164 0 252.5 -79.5t88.5 -237.5t-88.5 -245.5t-251.5 -87.5h-309zM354 582h-148v-232h212v-54h-212v-228h150q122 0 187 68.5t65 196.5q0 249 -254 249z" />
    <glyph glyph-name="dcroat" unicode="&#x111;" horiz-adv-x="600" 
d="M563 0h-127l-7 54q-9 -12 -22.5 -24.5t-52.5 -28t-87 -15.5q-103 0 -166 67t-63 183q0 126 61.5 202t174.5 76q48 0 86 -12t52 -24l14 -12h1v150h-141v55h141v79h80v-79h73v-48l-70 -7h-3v-550l60 -2zM291 48q40 0 72.5 16.5t44.5 29.5t19 24v288q-47 47 -126 47
q-180 0 -180 -215q0 -190 170 -190z" />
    <glyph glyph-name="Emacron" unicode="&#x112;" horiz-adv-x="601" 
d="M533 505h-66l-4 80h-257v-226l296 1v-63h-296v-232h284l8 90l62 -4l-4 -151h-510l-4 60l80 3v528l-81 3l4 56h416l72 4v-149zM437 768h-214v42h214v-42z" />
    <glyph glyph-name="emacron" unicode="&#x113;" horiz-adv-x="518" 
d="M474 235h-356q4 -93 50 -140.5t125 -47.5q45 0 82.5 16.5t52.5 32.5l15 17l38 -41q-2 -3 -6.5 -9t-21.5 -21t-37 -26t-53.5 -20.5t-71.5 -9.5q-118 0 -185.5 69t-67.5 196q0 124 64.5 193.5t174.5 69.5q102 0 155.5 -54.5t53.5 -162.5q0 -16 -3 -31.5t-6 -23.5zM278 455
q-72 0 -112 -43t-47 -122h293q1 13 1 23q0 142 -135 142zM388 633h-214v42h214v-42z" />
    <glyph glyph-name="Edotaccent" unicode="&#x116;" horiz-adv-x="601" 
d="M533 505h-66l-4 80h-257v-226l296 1v-63h-296v-232h284l8 90l62 -4l-4 -151h-510l-4 60l80 3v528l-81 3l4 56h416l72 4v-149zM362 744q-13 -10 -35 -10q-24 0 -36 11q-14 11 -14 34q0 22 14 35q14 11 35 11q20 0 36 -11q14 -14 14 -35t-14 -35z" />
    <glyph glyph-name="edotaccent" unicode="&#x117;" horiz-adv-x="518" 
d="M474 235h-356q4 -93 50 -140.5t125 -47.5q45 0 82.5 16.5t52.5 32.5l15 17l38 -41q-2 -3 -6.5 -9t-21.5 -21t-37 -26t-53.5 -20.5t-71.5 -9.5q-118 0 -185.5 69t-67.5 196q0 124 64.5 193.5t174.5 69.5q102 0 155.5 -54.5t53.5 -162.5q0 -16 -3 -31.5t-6 -23.5zM278 455
q-72 0 -112 -43t-47 -122h293q1 13 1 23q0 142 -135 142zM313 609q-13 -10 -35 -10q-24 0 -36 11q-14 11 -14 34q0 22 14 35q14 11 35 11q20 0 36 -11q14 -14 14 -35t-14 -35z" />
    <glyph glyph-name="Eogonek" unicode="&#x118;" horiz-adv-x="601" 
d="M577 -208v-42q-184 0 -184 117q0 76 94 133h-441l-4 60l80 3v528l-81 3l4 56h416l72 4v-149h-66l-4 80h-257v-226l296 1v-63h-296v-232h284l8 90l62 -4l-4 -151h-2l-11 -5.5t-25 -15.5t-31.5 -26.5t-24.5 -37t-11 -47.5q0 -76 126 -76z" />
    <glyph glyph-name="eogonek" unicode="&#x119;" horiz-adv-x="518" 
d="M392 -208v-42q-184 0 -184 117q0 66 73 119q-114 3 -178.5 71.5t-64.5 193.5q0 124 64.5 193.5t174.5 69.5q102 0 155.5 -54.5t53.5 -162.5q0 -16 -3 -31.5t-6 -23.5l-3 -7h-356q4 -93 50 -140.5t125 -47.5q45 0 82.5 16.5t52.5 32.5l15 17l38 -41q-4 -6 -13 -16.5
t-41.5 -32t-71.5 -30.5q-19 -10 -36 -23t-35 -41.5t-18 -60.5q0 -76 126 -76zM278 455q-72 0 -112 -43t-47 -122h293q1 13 1 23q0 142 -135 142z" />
    <glyph glyph-name="Ecaron" unicode="&#x11a;" horiz-adv-x="601" 
d="M533 505h-66l-4 80h-257v-226l296 1v-63h-296v-232h284l8 90l62 -4l-4 -151h-510l-4 60l80 3v528l-81 3l4 56h416l72 4v-149zM483 808l-134 -100h-45l-133 100l26 48l129 -96l131 96z" />
    <glyph glyph-name="ecaron" unicode="&#x11b;" horiz-adv-x="518" 
d="M474 235h-356q4 -93 50 -140.5t125 -47.5q45 0 82.5 16.5t52.5 32.5l15 17l38 -41q-2 -3 -6.5 -9t-21.5 -21t-37 -26t-53.5 -20.5t-71.5 -9.5q-118 0 -185.5 69t-67.5 196q0 124 64.5 193.5t174.5 69.5q102 0 155.5 -54.5t53.5 -162.5q0 -16 -3 -31.5t-6 -23.5zM278 455
q-72 0 -112 -43t-47 -122h293q1 13 1 23q0 142 -135 142zM435 673l-134 -100h-45l-133 100l26 48l129 -96l131 96z" />
    <glyph glyph-name="Gbreve" unicode="&#x11e;" horiz-adv-x="723" 
d="M593 459h-62l-6 92q-53 44 -133 44q-125 0 -188 -67t-63 -195q0 -129 64 -204t173 -75q50 0 87.5 12.5t56.5 32t27 32t12 24.5v101h-157v55h228v-311h-50l-11 70q-72 -84 -211 -84q-144 0 -224.5 94t-80.5 253q0 155 88 242.5t240 87.5q76 0 148 -48l11 39h51v-195z
M402 764q38 0 63.5 15t32.5 29l6 15l70 -10q-1 -4 -3 -11t-14 -24.5t-29 -31t-50.5 -24.5t-75.5 -11q-43 0 -76 10.5t-50.5 25.5t-28.5 30t-14 25l-3 11l69 10q1 -2 2.5 -6t9 -14.5t17.5 -18t30 -14t44 -6.5z" />
    <glyph glyph-name="gbreve" unicode="&#x11f;" horiz-adv-x="532" 
d="M513 439l-62 -2q23 -38 23 -97q0 -88 -55.5 -137.5t-148.5 -49.5q-4 0 -10 -0.5t-21.5 -2.5t-27.5 -5.5t-21.5 -11.5t-9.5 -19q0 -24 23 -38t87 -17q114 -5 170 -36t56 -109q0 -81 -60 -129.5t-178 -48.5q-119 0 -178 47.5t-59 127.5q0 94 102 127q-28 26 -28 72
q0 42 46 65q-49 23 -76 65.5t-27 99.5q0 63 33 103.5t79.5 55.5t107.5 15q60 0 108 -20l123 6zM267 -1q-28 2 -43 4q-42 -3 -74 -26.5t-32 -65.5q0 -53 40.5 -84t120.5 -31q77 0 118.5 30t41.5 82q0 51 -40 68.5t-132 22.5zM273 456q-138 0 -138 -116q0 -62 35.5 -97
t97.5 -35q61 0 94.5 35t33.5 98t-31.5 89t-91.5 26zM257 629q24 0 43.5 6t30 14.5t17.5 17.5t9 15l2 6l70 -10q-1 -4 -3 -11t-14 -24.5t-29 -31t-50.5 -24.5t-75.5 -11q-43 0 -76 10.5t-50.5 25.5t-28.5 30t-14 26l-3 10l69 10q1 -2 2.5 -6t9 -14.5t17.5 -18t30 -14t44 -6.5
z" />
    <glyph glyph-name="Gcommaaccent" unicode="&#x122;" horiz-adv-x="723" 
d="M593 459h-62l-6 92q-53 44 -133 44q-125 0 -188 -67t-63 -195q0 -129 64 -204t173 -75q50 0 87.5 12.5t56.5 32t27 32t12 24.5v101h-157v55h228v-311h-50l-11 70q-72 -84 -211 -84q-144 0 -224.5 94t-80.5 253q0 155 88 242.5t240 87.5q76 0 148 -48l11 39h51v-195z
M330 -289l-25 22q38 30 55 72.5t10 77.5q-13 2 -21 8q-13 10 -13 27t13 27q11 9 27 9t28 -9q4 -4 5 -6q15 -19 15 -52q0 -45 -26 -95.5t-68 -80.5z" />
    <glyph glyph-name="gcommaaccent" unicode="&#x123;" horiz-adv-x="532" 
d="M513 439l-62 -2q23 -38 23 -97q0 -88 -55.5 -137.5t-148.5 -49.5q-4 0 -10 -0.5t-21.5 -2.5t-27.5 -5.5t-21.5 -11.5t-9.5 -19q0 -24 23 -38t87 -17q114 -5 170 -36t56 -109q0 -81 -60 -129.5t-178 -48.5q-119 0 -178 47.5t-59 127.5q0 94 102 127q-28 26 -28 72
q0 42 46 65q-49 23 -76 65.5t-27 99.5q0 63 33 103.5t79.5 55.5t107.5 15q60 0 108 -20l123 6zM267 -1q-28 2 -43 4q-42 -3 -74 -26.5t-32 -65.5q0 -53 40.5 -84t120.5 -31q77 0 118.5 30t41.5 82q0 51 -40 68.5t-132 22.5zM273 456q-138 0 -138 -116q0 -62 35.5 -97
t97.5 -35q61 0 94.5 35t33.5 98t-31.5 89t-91.5 26zM308 819l25 -22q-38 -30 -55 -72.5t-10 -77.5q13 -2 21 -8q13 -10 13 -27t-13 -27q-11 -9 -27 -9t-28 9q-4 4 -5 6q-15 19 -15 52q0 45 26 95.5t68 80.5z" />
    <glyph glyph-name="uni012A" unicode="&#x12a;" horiz-adv-x="329" 
d="M282 0h-236l-4 60l80 3v528l-81 3l4 56h239v-60l-78 -3v-528l80 -3zM274 768h-214v42h214v-42z" />
    <glyph glyph-name="imacron" unicode="&#x12b;" horiz-adv-x="270" 
d="M233 0h-192l-4 60l60 3v374l-59 3l3 60h136v-441l60 -3zM247 633h-214v42h214v-42z" />
    <glyph glyph-name="Iogonek" unicode="&#x12e;" horiz-adv-x="329" 
d="M229 -208v-42q-184 0 -184 117q0 76 94 133h-93l-4 60l80 3v528l-81 3l4 56h239v-60l-78 -3v-528l80 -3l-4 -56h-76l-11 -5.5t-25 -15.5t-31.5 -26.5t-24.5 -37t-11 -47.5q0 -76 126 -76z" />
    <glyph glyph-name="iogonek" unicode="&#x12f;" horiz-adv-x="270" 
d="M200 -208v-42q-184 0 -184 117q0 76 94 133h-69l-4 60l60 3v374l-59 3l3 60h136v-441l60 -3l-4 -56h-56l-11 -5.5t-25 -15.5t-31.5 -26.5t-24.5 -37t-11 -47.5q0 -76 126 -76zM172 609q-13 -10 -35 -10q-24 0 -36 11q-14 11 -14 34q0 22 14 35q14 11 35 11q20 0 36 -11
q14 -14 14 -35t-14 -35z" />
    <glyph glyph-name="Idotaccent" unicode="&#x130;" horiz-adv-x="329" 
d="M282 0h-236l-4 60l80 3v528l-81 3l4 56h239v-60l-78 -3v-528l80 -3zM199 744q-13 -10 -35 -10q-24 0 -36 11q-14 11 -14 34q0 22 14 35q14 11 35 11q20 0 36 -11q14 -14 14 -35t-14 -35z" />
    <glyph glyph-name="dotlessi" unicode="&#x131;" horiz-adv-x="270" 
d="M233 0h-192l-4 60l60 3v374l-59 3l3 60h136v-441l60 -3z" />
    <glyph glyph-name="Kcommaaccent" unicode="&#x136;" horiz-adv-x="713" 
d="M713 0h-153l-39 34l-221 254l-94 -64v-162l80 -2l-4 -60h-236l-4 60l80 3v528l-81 3l4 56h231v-52l-70 -3v-289l92 62l207 230l-44 2v50h229v-60l-107 -3l-220 -245l245 -281l109 -1zM300 -289l-25 22q38 30 55 72.5t10 77.5q-13 2 -21 8q-13 10 -13 27t13 27q11 9 27 9
t28 -9q4 -4 5 -6q15 -19 15 -52q0 -45 -26 -95.5t-68 -80.5z" />
    <glyph glyph-name="kcommaaccent" unicode="&#x137;" horiz-adv-x="547" 
d="M222 0h-185l-4 60l60 3v624l-59 3l3 60h136v-473l67 33l114 134l-34 2l4 54h192v-60l-92 -9l-131 -148l164 -218l92 -1l-4 -64h-123l-40 42l-156 202l-53 -26v-163l52 -3zM244 -289l-25 22q38 30 55 72.5t10 77.5q-13 2 -21 8q-13 10 -13 27t13 27q11 9 27 9t28 -9
q4 -4 5 -6q15 -19 15 -52q0 -45 -26 -95.5t-68 -80.5z" />
    <glyph glyph-name="Lacute" unicode="&#x139;" horiz-adv-x="559" 
d="M46 0l-4 60l80 3v528l-81 3l4 56h239v-60l-78 -3v-522h276l8 94l62 -4l-4 -155h-502zM176 707l-57 4l95 143l77 -8z" />
    <glyph glyph-name="lacute" unicode="&#x13a;" horiz-adv-x="266" 
d="M229 0h-192l-4 60l60 3v624l-59 3l3 60h136v-691l60 -3zM163 797l-57 4l95 143l77 -8z" />
    <glyph glyph-name="Lcommaaccent" unicode="&#x13b;" horiz-adv-x="559" 
d="M46 0l-4 60l80 3v528l-81 3l4 56h239v-60l-78 -3v-522h276l8 94l62 -4l-4 -155h-502zM262 -289l-25 22q38 30 55 72.5t10 77.5q-13 2 -21 8q-13 10 -13 27t13 27q11 9 27 9t28 -9q4 -4 5 -6q15 -19 15 -52q0 -45 -26 -95.5t-68 -80.5z" />
    <glyph glyph-name="lcommaaccent" unicode="&#x13c;" horiz-adv-x="266" 
d="M229 0h-192l-4 60l60 3v624l-59 3l3 60h136v-691l60 -3zM88 -289l-25 22q38 30 55 72.5t10 77.5q-13 2 -21 8q-13 10 -13 27t13 27q11 9 27 9t28 -9q4 -4 5 -6q15 -19 15 -52q0 -45 -26 -95.5t-68 -80.5z" />
    <glyph glyph-name="Lcaron" unicode="&#x13d;" horiz-adv-x="559" 
d="M46 0l-4 60l80 3v528l-81 3l4 56h239v-60l-78 -3v-522h276l8 94l62 -4l-4 -155h-502zM324 808l-134 -100h-45l-133 100l26 48l129 -96l131 96z" />
    <glyph glyph-name="lcaron" unicode="&#x13e;" horiz-adv-x="266" 
d="M229 0h-192l-4 60l60 3v624l-59 3l3 60h136v-691l60 -3zM288 545l-48 7q17 35 28 89t8 93l6 35l55 -7q-2 -50 -16.5 -115t-32.5 -102z" />
    <glyph glyph-name="Lslash" unicode="&#x141;" horiz-adv-x="579" 
d="M60 0l-4 60l80 3v198l-78 -46l-21 35l99 59v282l-81 3l4 56h239v-60l-78 -3v-228l147 87l21 -34l-168 -101v-246h276l8 94l62 -4l-4 -155h-502z" />
    <glyph glyph-name="lslash" unicode="&#x142;" horiz-adv-x="314" 
d="M255 0h-192l-4 60l60 3v253l-83 -53l-22 34l105 67v323l-59 3l3 60h136v-335l90 58l22 -34l-112 -72v-308l60 -3z" />
    <glyph glyph-name="Nacute" unicode="&#x143;" horiz-adv-x="788" 
d="M674 -6h-88l-389 537h-1l4 -31v-440l81 -2l-4 -58h-231l-4 60l80 3v528l-81 3l4 56h165l387 -544l-2 23v461l-81 2l3 58h234v-60l-77 -3v-593zM418 707l-57 4l95 143l77 -8z" />
    <glyph glyph-name="nacute" unicode="&#x144;" horiz-adv-x="607" 
d="M233 0h-192l-4 60l60 3v374l-59 3l3 60h127l7 -44q7 9 20.5 19t56 24.5t94.5 14.5q179 0 179 -155v-300l59 -3l-3 -56h-137v344q0 102 -125 102q-43 0 -78.5 -13t-49.5 -25l-14 -13v-336l60 -3zM307 572l-57 4l95 143l77 -8z" />
    <glyph glyph-name="Ncommaaccent" unicode="&#x145;" horiz-adv-x="788" 
d="M674 -6h-88l-389 537h-1l4 -31v-440l81 -2l-4 -58h-231l-4 60l80 3v528l-81 3l4 56h165l387 -544l-2 23v461l-81 2l3 58h234v-60l-77 -3v-593zM346 -289l-25 22q38 30 55 72.5t10 77.5q-13 2 -21 8q-13 10 -13 27t13 27q11 9 27 9t28 -9q4 -4 5 -6q15 -19 15 -52
q0 -45 -26 -95.5t-68 -80.5z" />
    <glyph glyph-name="ncommaaccent" unicode="&#x146;" horiz-adv-x="607" 
d="M233 0h-192l-4 60l60 3v374l-59 3l3 60h127l7 -44q7 9 20.5 19t56 24.5t94.5 14.5q179 0 179 -155v-300l59 -3l-3 -56h-137v344q0 102 -125 102q-43 0 -78.5 -13t-49.5 -25l-14 -13v-336l60 -3zM279 -289l-25 22q38 30 55 72.5t10 77.5q-13 2 -21 8q-13 10 -13 27t13 27
q11 9 27 9t28 -9q4 -4 5 -6q15 -19 15 -52q0 -45 -26 -95.5t-68 -80.5z" />
    <glyph glyph-name="Ncaron" unicode="&#x147;" horiz-adv-x="788" 
d="M674 -6h-88l-389 537h-1l4 -31v-440l81 -2l-4 -58h-231l-4 60l80 3v528l-81 3l4 56h165l387 -544l-2 23v461l-81 2l3 58h234v-60l-77 -3v-593zM576 808l-134 -100h-45l-133 100l26 48l129 -96l131 96z" />
    <glyph glyph-name="ncaron" unicode="&#x148;" horiz-adv-x="607" 
d="M233 0h-192l-4 60l60 3v374l-59 3l3 60h127l7 -44q7 9 20.5 19t56 24.5t94.5 14.5q179 0 179 -155v-300l59 -3l-3 -56h-137v344q0 102 -125 102q-43 0 -78.5 -13t-49.5 -25l-14 -13v-336l60 -3zM449 673l-134 -100h-45l-133 100l26 48l129 -96l131 96z" />
    <glyph glyph-name="Omacron" unicode="&#x14c;" horiz-adv-x="761" 
d="M707 334q0 -157 -87.5 -252.5t-239.5 -95.5t-238.5 95t-86.5 253q0 155 86 242t239 87q154 0 240.5 -87t86.5 -242zM620 334q0 124 -63.5 192.5t-176.5 68.5t-176 -68.5t-63 -192.5q0 -127 63.5 -203.5t175.5 -76.5t176 76.5t64 203.5zM490 768h-214v42h214v-42z" />
    <glyph glyph-name="omacron" unicode="&#x14d;" horiz-adv-x="573" 
d="M286 -14q-120 0 -184 71.5t-64 196.5q0 124 63.5 192t184.5 68t184.5 -68t63.5 -192t-65 -196t-183 -72zM286 45q84 0 124.5 54.5t40.5 153.5q0 202 -165 202t-165 -202q0 -98 41 -153t124 -55zM397 633h-214v42h214v-42z" />
    <glyph glyph-name="Ohungarumlaut" unicode="&#x150;" horiz-adv-x="761" 
d="M707 334q0 -157 -87.5 -252.5t-239.5 -95.5t-238.5 95t-86.5 253q0 155 86 242t239 87q154 0 240.5 -87t86.5 -242zM620 334q0 124 -63.5 192.5t-176.5 68.5t-176 -68.5t-63 -192.5q0 -127 63.5 -203.5t175.5 -76.5t176 76.5t64 203.5zM333 731l-59 6l65 145l48 -18z
M483 731l-59 6l64 145l48 -18z" />
    <glyph glyph-name="ohungarumlaut" unicode="&#x151;" horiz-adv-x="573" 
d="M286 -14q-120 0 -184 71.5t-64 196.5q0 124 63.5 192t184.5 68t184.5 -68t63.5 -192t-65 -196t-183 -72zM286 45q84 0 124.5 54.5t40.5 153.5q0 202 -165 202t-165 -202q0 -98 41 -153t124 -55zM239 596l-59 6l65 145l48 -18zM389 596l-59 6l64 145l48 -18z" />
    <glyph glyph-name="OE" unicode="&#x152;" horiz-adv-x="1100" 
d="M1031 505h-65l-4 80h-257v-206q0 -3 0.5 -10t0.5 -10l295 1v-63h-296v-232h283l8 90l62 -4l-4 -151h-433v83q-88 -97 -241 -97q-152 0 -238.5 95t-86.5 253q0 155 86 242t239 87q155 0 241 -88v75h338l72 4v-149zM620 334q0 124 -63.5 192.5t-176.5 68.5t-176 -68.5
t-63 -192.5q0 -127 63.5 -203.5t175.5 -76.5t176 76.5t64 203.5z" />
    <glyph glyph-name="oe" unicode="&#x153;" horiz-adv-x="932" 
d="M888 235h-355v-13q7 -87 52 -131t122 -44q45 0 82.5 16.5t52.5 32.5l15 17l38 -41q-2 -3 -6.5 -9t-21.5 -21t-37 -26t-53.5 -20.5t-71.5 -9.5q-148 0 -212 103q-64 -103 -207 -103q-120 0 -184 71.5t-64 196.5q0 124 63.5 192t184.5 68q146 0 208 -99q63 99 197 99
q102 0 155.5 -54.5t53.5 -162.5q0 -16 -3 -31.5t-6 -23.5zM286 45q84 0 124.5 54.5t40.5 153.5q0 202 -165 202t-165 -202q0 -98 41 -153t124 -55zM692 455q-72 0 -112 -43t-47 -122h293q1 13 1 23q0 142 -135 142z" />
    <glyph glyph-name="Racute" unicode="&#x154;" horiz-adv-x="628" 
d="M642 0h-143l-33 33l-144 199h-122v-177l73 -3l-4 -52h-223l-4 60l80 6v525l-81 3l4 56h254q117 0 180 -48t63 -144q0 -74 -38.5 -128.5t-99.5 -79.5l142 -189l100 -1zM285 589h-85v-294h109q62 0 104.5 43t42.5 116q0 135 -171 135zM316 707l-57 4l95 143l77 -8z" />
    <glyph glyph-name="racute" unicode="&#x155;" horiz-adv-x="424" 
d="M241 0h-200l-4 60l60 3v374l-64 3l4 60h123l7 -77h1q2 4 5.5 10t16.5 21.5t28.5 27.5t40 22t51.5 10q22 0 44 -3.5t33 -6.5l11 -4v-148h-58l-5 95q-24 2 -41 2q-36 0 -65 -19.5t-41 -38.5l-11 -19v-313l68 -3zM226 572l-57 4l95 143l77 -8z" />
    <glyph glyph-name="Rcommaaccent" unicode="&#x156;" horiz-adv-x="628" 
d="M642 0h-143l-33 33l-144 199h-122v-177l73 -3l-4 -52h-223l-4 60l80 6v525l-81 3l4 56h254q117 0 180 -48t63 -144q0 -74 -38.5 -128.5t-99.5 -79.5l142 -189l100 -1zM285 589h-85v-294h109q62 0 104.5 43t42.5 116q0 135 -171 135zM280 -289l-25 22q38 30 55 72.5
t10 77.5q-13 2 -21 8q-13 10 -13 27t13 27q11 9 27 9t28 -9q4 -4 5 -6q15 -19 15 -52q0 -45 -26 -95.5t-68 -80.5z" />
    <glyph glyph-name="rcommaaccent" unicode="&#x157;" horiz-adv-x="424" 
d="M241 0h-200l-4 60l60 3v374l-64 3l4 60h123l7 -77h1q2 4 5.5 10t16.5 21.5t28.5 27.5t40 22t51.5 10q22 0 44 -3.5t33 -6.5l11 -4v-148h-58l-5 95q-24 2 -41 2q-36 0 -65 -19.5t-41 -38.5l-11 -19v-313l68 -3zM89 -289l-25 22q38 30 55 72.5t10 77.5q-13 2 -21 8
q-13 10 -13 27t13 27q10 9 27 9q16 0 28 -9q4 -4 5 -6q15 -19 15 -52q0 -45 -26 -95.5t-68 -80.5z" />
    <glyph glyph-name="Rcaron" unicode="&#x158;" horiz-adv-x="628" 
d="M642 0h-143l-33 33l-144 199h-122v-177l73 -3l-4 -52h-223l-4 60l80 6v525l-81 3l4 56h254q117 0 180 -48t63 -144q0 -74 -38.5 -128.5t-99.5 -79.5l142 -189l100 -1zM285 589h-85v-294h109q62 0 104.5 43t42.5 116q0 135 -171 135zM458 808l-134 -100h-45l-133 100
l26 48l129 -96l131 96z" />
    <glyph glyph-name="rcaron" unicode="&#x159;" horiz-adv-x="424" 
d="M241 0h-200l-4 60l60 3v374l-64 3l4 60h123l7 -77h1q2 4 5.5 10t16.5 21.5t28.5 27.5t40 22t51.5 10q22 0 44 -3.5t33 -6.5l11 -4v-148h-58l-5 95q-24 2 -41 2q-36 0 -65 -19.5t-41 -38.5l-11 -19v-313l68 -3zM368 673l-134 -100h-45l-133 100l26 48l129 -96l131 96z" />
    <glyph glyph-name="Sacute" unicode="&#x15a;" horiz-adv-x="580" 
d="M497 501h-65l-5 55q-51 45 -121 45q-68 0 -105 -30t-37 -84q0 -45 37.5 -73.5t91 -44.5t107.5 -34t91.5 -55.5t37.5 -96.5q0 -90 -62 -143.5t-174 -53.5q-64 0 -119 10t-78 20l-23 10l-2 143l62 4l7 -101q70 -24 145 -24q80 0 121 35.5t41 90.5q0 43 -37.5 69t-91.5 41.5
t-108 34t-91.5 58.5t-37.5 103q0 82 56.5 132.5t154.5 50.5q73 0 142 -49l13 40h50v-153zM325 707l-57 4l95 143l77 -8z" />
    <glyph glyph-name="sacute" unicode="&#x15b;" horiz-adv-x="469" 
d="M409 367h-54l-6 49q-47 41 -105 41q-47 0 -76 -19t-29 -52q0 -34 30.5 -55.5t74.5 -34.5t87.5 -28t74 -46t30.5 -78q0 -69 -52.5 -113.5t-162.5 -44.5q-47 0 -88 6.5t-59 13.5l-18 6l-7 127l50 4l6 -83q57 -17 114 -17q67 0 101 26.5t34 65.5q0 34 -30.5 55t-74 33
t-86.5 26.5t-73.5 46t-30.5 81.5q0 62 49 99.5t124 37.5q66 0 125 -43l11 34h41v-138zM261 572l-57 4l95 143l77 -8z" />
    <glyph glyph-name="Scedilla" unicode="&#x15e;" horiz-adv-x="580" 
d="M184 -215l12 31q31 -29 79 -29q72 0 72 61q0 24 -24.5 38t-49 18.5t-24.5 5.5l11 77q-55 2 -101.5 12t-66.5 19l-19 8l-2 143l62 4l7 -101q70 -24 145 -24q80 0 121 35.5t41 90.5q0 43 -37.5 69t-91.5 41.5t-108 34t-91.5 58.5t-37.5 103q0 82 56.5 132.5t154.5 50.5
q73 0 142 -49l13 40h50v-153h-65l-5 55q-51 45 -121 45q-68 0 -105 -30t-37 -84q0 -45 37.5 -73.5t91 -44.5t107.5 -34t91.5 -55.5t37.5 -96.5q0 -88 -60 -141.5t-168 -55.5l-7 -54q0 -1 27 -6.5t54 -25t27 -53.5q0 -46 -28 -72t-82 -26q-34 0 -61 9t-37 18z" />
    <glyph glyph-name="scedilla" unicode="&#x15f;" horiz-adv-x="469" 
d="M129 -215l12 31q31 -29 79 -29q72 0 72 61q0 24 -24.5 38t-49 18.5t-24.5 5.5l11 76q-42 1 -79.5 7.5t-53.5 12.5l-16 6l-7 127l50 4l6 -83q57 -17 114 -17q67 0 101 26.5t34 65.5q0 34 -30.5 55t-74 33t-86.5 26.5t-73.5 46t-30.5 81.5q0 62 49 99.5t124 37.5
q66 0 125 -43l11 34h41v-138h-54l-6 49q-47 41 -105 41q-47 0 -76 -19t-29 -52q0 -34 30.5 -55.5t74.5 -34.5t87.5 -28t74 -46t30.5 -78q0 -65 -47 -108.5t-143 -48.5l-7 -55q0 -1 27 -6.5t54 -25t27 -53.5q0 -46 -28 -72t-82 -26q-34 0 -61 9t-37 18z" />
    <glyph glyph-name="Scaron" unicode="&#x160;" horiz-adv-x="580" 
d="M497 501h-65l-5 55q-51 45 -121 45q-68 0 -105 -30t-37 -84q0 -45 37.5 -73.5t91 -44.5t107.5 -34t91.5 -55.5t37.5 -96.5q0 -90 -62 -143.5t-174 -53.5q-64 0 -119 10t-78 20l-23 10l-2 143l62 4l7 -101q70 -24 145 -24q80 0 121 35.5t41 90.5q0 43 -37.5 69t-91.5 41.5
t-108 34t-91.5 58.5t-37.5 103q0 82 56.5 132.5t154.5 50.5q73 0 142 -49l13 40h50v-153zM467 808l-134 -100h-45l-133 100l26 48l129 -96l131 96z" />
    <glyph glyph-name="scaron" unicode="&#x161;" horiz-adv-x="469" 
d="M409 367h-54l-6 49q-47 41 -105 41q-47 0 -76 -19t-29 -52q0 -34 30.5 -55.5t74.5 -34.5t87.5 -28t74 -46t30.5 -78q0 -69 -52.5 -113.5t-162.5 -44.5q-47 0 -88 6.5t-59 13.5l-18 6l-7 127l50 4l6 -83q57 -17 114 -17q67 0 101 26.5t34 65.5q0 34 -30.5 55t-74 33
t-86.5 26.5t-73.5 46t-30.5 81.5q0 62 49 99.5t124 37.5q66 0 125 -43l11 34h41v-138zM393 673l-134 -100h-45l-133 100l26 48l129 -96l131 96z" />
    <glyph glyph-name="Tcommaaccent" unicode="&#x162;" horiz-adv-x="540" 
d="M60 494h-62l4 160l72 -4h396l72 4v-160h-62l-6 91h-162v-523l80 -2l-4 -60h-236l-4 60l80 3v522h-160zM226 -289l-25 22q38 30 55 72.5t10 77.5q-13 2 -21 8q-13 10 -13 27t13 27q11 9 27 9t28 -9q4 -4 5 -6q15 -19 15 -52q0 -45 -26 -95.5t-68 -80.5z" />
    <glyph glyph-name="tcommaaccent" unicode="&#x163;" horiz-adv-x="366" 
d="M333 437h-152v-285q0 -52 15.5 -75.5t51.5 -23.5l77 8v-54q-44 -15 -102 -15q-63 0 -92.5 33t-29.5 109v303h-61v60l61 2l9 151h71v-150h152v-63zM143 -289l-25 22q38 30 55 72.5t10 77.5q-13 2 -21 8q-13 10 -13 27t13 27q10 9 27 9q16 0 28 -9q4 -4 5 -6q15 -19 15 -52
q0 -45 -26 -95.5t-68 -80.5z" />
    <glyph glyph-name="Tcaron" unicode="&#x164;" horiz-adv-x="540" 
d="M60 494h-62l4 160l72 -4h396l72 4v-160h-62l-6 91h-162v-523l80 -2l-4 -60h-236l-4 60l80 3v522h-160zM426 808l-134 -100h-45l-133 100l26 48l129 -96l131 96z" />
    <glyph glyph-name="tcaron" unicode="&#x165;" horiz-adv-x="366" 
d="M333 437h-152v-285q0 -52 15.5 -75.5t51.5 -23.5l77 8v-54q-44 -15 -102 -15q-63 0 -92.5 33t-29.5 109v303h-61v60l61 2l9 151h71v-150h152v-63zM328 545l-48 7q17 35 28 89t8 93l6 35l55 -7q-2 -50 -16.5 -115t-32.5 -102z" />
    <glyph glyph-name="Umacron" unicode="&#x16a;" horiz-adv-x="742" 
d="M266 594l-78 -3v-352q0 -79 47.5 -129.5t136.5 -50.5q90 0 137.5 50.5t47.5 129.5v351l-82 2l3 58h237v-56l-77 -3v-369q0 -102 -67.5 -169t-199.5 -67q-131 0 -199 67.5t-68 168.5v369l-81 3l4 56h239v-56zM474 768h-214v42h214v-42z" />
    <glyph glyph-name="umacron" unicode="&#x16b;" horiz-adv-x="603" 
d="M430 105v332l-59 3l4 60h136v-441l59 -3l-3 -56h-127l-7 45q-59 -59 -172 -59q-83 0 -130.5 46.5t-47.5 128.5v276l-59 3l4 60h135v-324q0 -55 33.5 -88t92.5 -33q43 0 78 12.5t49 24.5zM408 633h-214v42h214v-42z" />
    <glyph glyph-name="Uring" unicode="&#x16e;" horiz-adv-x="742" 
d="M266 594l-78 -3v-352q0 -79 47.5 -129.5t136.5 -50.5q90 0 137.5 50.5t47.5 129.5v351l-82 2l3 58h237v-56l-77 -3v-369q0 -102 -67.5 -169t-199.5 -67q-131 0 -199 67.5t-68 168.5v369l-81 3l4 56h239v-56zM364 722q-46 0 -74 28.5t-28 74.5q0 45 29 74.5t73 29.5
q43 0 72 -29.5t29 -74.5q0 -46 -28.5 -74.5t-72.5 -28.5zM364 758q27 0 45 18.5t18 48.5t-18.5 49t-44.5 19q-27 0 -45.5 -19t-18.5 -49t18.5 -48.5t45.5 -18.5z" />
    <glyph glyph-name="uring" unicode="&#x16f;" horiz-adv-x="603" 
d="M430 105v332l-59 3l4 60h136v-441l59 -3l-3 -56h-127l-7 45q-59 -59 -172 -59q-83 0 -130.5 46.5t-47.5 128.5v276l-59 3l4 60h135v-324q0 -55 33.5 -88t92.5 -33q43 0 78 12.5t49 24.5zM297 587q-46 0 -74 28.5t-28 74.5q0 45 29 74.5t73 29.5q43 0 72 -29.5t29 -74.5
q0 -46 -28.5 -74.5t-72.5 -28.5zM297 623q27 0 45 18.5t18 48.5t-18.5 49t-44.5 19q-27 0 -45.5 -19t-18.5 -49t18.5 -48.5t45.5 -18.5z" />
    <glyph glyph-name="Uhungarumlaut" unicode="&#x170;" horiz-adv-x="742" 
d="M266 594l-78 -3v-352q0 -79 47.5 -129.5t136.5 -50.5q90 0 137.5 50.5t47.5 129.5v351l-82 2l3 58h237v-56l-77 -3v-369q0 -102 -67.5 -169t-199.5 -67q-131 0 -199 67.5t-68 168.5v369l-81 3l4 56h239v-56zM309 731l-59 6l65 145l48 -18zM459 731l-59 6l64 145l48 -18z
" />
    <glyph glyph-name="uhungarumlaut" unicode="&#x171;" horiz-adv-x="603" 
d="M430 105v332l-59 3l4 60h136v-441l59 -3l-3 -56h-127l-7 45q-59 -59 -172 -59q-83 0 -130.5 46.5t-47.5 128.5v276l-59 3l4 60h135v-324q0 -55 33.5 -88t92.5 -33q43 0 78 12.5t49 24.5zM250 596l-59 6l65 145l48 -18zM400 596l-59 6l64 145l48 -18z" />
    <glyph glyph-name="Uogonek" unicode="&#x172;" horiz-adv-x="742" 
d="M479 -208v-42q-184 0 -184 117q0 66 73 119q-130 1 -197 68t-67 168v369l-81 3l4 56h239v-56l-78 -3v-352q0 -79 47.5 -129.5t136.5 -50.5q90 0 137.5 50.5t47.5 129.5v351l-82 2l3 58h237v-56l-77 -3v-369q0 -87 -50.5 -150.5t-148.5 -79.5q-86 -49 -86 -124
q0 -76 126 -76z" />
    <glyph glyph-name="uogonek" unicode="&#x173;" horiz-adv-x="603" 
d="M532 -208v-42q-184 0 -184 117q0 76 94 133h-2l-7 45q-59 -59 -172 -59q-83 0 -130.5 46.5t-47.5 128.5v276l-59 3l4 60h135v-324q0 -55 33.5 -88t92.5 -33q43 0 78 12.5t49 24.5l14 13v332l-59 3l4 60h136v-441l59 -3l-3 -56h-58l-11 -5.5t-25 -15.5t-31.5 -26.5
t-24.5 -37t-11 -47.5q0 -76 126 -76z" />
    <glyph glyph-name="Ydieresis" unicode="&#x178;" horiz-adv-x="637" 
d="M441 0h-236l-4 60l79 3v206l-220 322l-93 3l3 56h237v-56l-52 -2l170 -253l168 252l-51 1v58h228v-60l-92 -2l-213 -318v-208l80 -2zM457 749q-13 -10 -30 -10q-19 0 -30 10q-13 12 -13 30q0 19 13 31q13 10 30 10q15 0 30 -10q13 -13 13 -31q0 -17 -13 -30zM279 749
q-11 -10 -30 -10q-18 0 -29 10q-13 12 -13 30q0 19 13 31q13 10 29 10q17 0 30 -10q13 -13 13 -31q0 -17 -13 -30z" />
    <glyph glyph-name="Zacute" unicode="&#x179;" horiz-adv-x="608" 
d="M559 593l-407 -528h345l8 90l62 -4l-4 -151h-518v57l407 528h-331l-6 -80h-65l3 145v4l73 -4h433v-57zM336 707l-57 4l95 143l77 -8z" />
    <glyph glyph-name="zacute" unicode="&#x17a;" horiz-adv-x="482" 
d="M436 446l-297 -385h235l7 90l58 -4l-4 -147h-395v54l296 385h-213l-6 -80h-57l3 141v4l65 -4h308v-54zM274 572l-57 4l95 143l77 -8z" />
    <glyph glyph-name="Zdotaccent" unicode="&#x17b;" horiz-adv-x="608" 
d="M559 593l-407 -528h345l8 90l62 -4l-4 -151h-518v57l407 528h-331l-6 -80h-65l3 145v4l73 -4h433v-57zM349 744q-13 -10 -35 -10q-24 0 -36 11q-14 11 -14 34q0 22 14 35q14 11 35 11q20 0 36 -11q14 -14 14 -35t-14 -35z" />
    <glyph glyph-name="zdotaccent" unicode="&#x17c;" horiz-adv-x="482" 
d="M436 446l-297 -385h235l7 90l58 -4l-4 -147h-395v54l296 385h-213l-6 -80h-57l3 141v4l65 -4h308v-54zM295 609q-13 -10 -35 -10q-24 0 -36 11q-14 11 -14 34q0 22 14 35q14 11 35 11q20 0 36 -11q14 -14 14 -35t-14 -35z" />
    <glyph glyph-name="Zcaron" unicode="&#x17d;" horiz-adv-x="608" 
d="M559 593l-407 -528h345l8 90l62 -4l-4 -151h-518v57l407 528h-331l-6 -80h-65l3 145v4l73 -4h433v-57zM478 808l-134 -100h-45l-133 100l26 48l129 -96l131 96z" />
    <glyph glyph-name="zcaron" unicode="&#x17e;" horiz-adv-x="482" 
d="M436 446l-297 -385h235l7 90l58 -4l-4 -147h-395v54l296 385h-213l-6 -80h-57l3 141v4l65 -4h308v-54zM416 673l-134 -100h-45l-133 100l26 48l129 -96l131 96z" />
    <glyph glyph-name="longs" unicode="&#x17f;" horiz-adv-x="274" 
d="M387 614h-57l-5 56q-27 33 -68 33q-47 0 -65.5 -28t-18.5 -102v-515l60 -2l-4 -56h-192l-4 60l60 3v518q0 93 35 137.5t107 44.5q48 0 96 -37l9 28h47v-140z" />
    <glyph glyph-name="florin" unicode="&#x192;" horiz-adv-x="364" 
d="M397 614h-58l-5 63q-26 26 -58 26q-46 0 -64.5 -28t-18.5 -102v-73h171v-63h-171v-482q0 -112 -46 -165.5t-111 -53.5q-31 0 -53.5 4.5t-28.5 9.5l-7 4l21 64q23 -10 59 -10t61 36.5t25 110.5v482h-61v60l61 3v81q0 95 32 138.5t103 43.5q40 0 90 -34l5 25h54v-140z" />
    <glyph glyph-name="dotlessj" unicode="&#x237;" horiz-adv-x="266" 
d="M-65 -246l21 64q23 -10 59 -10q35 0 60.5 41t25.5 116v472l-58 3l4 60h134v-535q0 -112 -46.5 -170.5t-110.5 -58.5q-31 0 -53.5 4.5t-28.5 9.5z" />
    <glyph glyph-name="circumflex" unicode="&#x2c6;" horiz-adv-x="388" 
d="M323 594l-130 95l-129 -95l-27 48l134 101h45l133 -101z" />
    <glyph glyph-name="caron" unicode="&#x2c7;" horiz-adv-x="388" 
d="M350 673l-134 -100h-45l-133 100l26 48l129 -96l131 96z" />
    <glyph glyph-name="breve" unicode="&#x2d8;" horiz-adv-x="408" 
d="M204 629q24 0 43.5 6t30 14.5t17.5 17.5t9 15l2 6l70 -10q-1 -4 -3 -11t-14 -24.5t-29 -31t-50.5 -24.5t-75.5 -11q-43 0 -76 10.5t-50.5 25.5t-28.5 30t-14 26l-3 10l69 10q1 -2 2.5 -6t9 -14.5t17.5 -18t30 -14t44 -6.5z" />
    <glyph glyph-name="dotaccent" unicode="&#x2d9;" horiz-adv-x="420" 
d="M280 609q-13 -10 -35 -10q-24 0 -36 11q-14 11 -14 34q0 22 14 35q14 11 35 11q20 0 36 -11q14 -14 14 -35t-14 -35z" />
    <glyph glyph-name="ring" unicode="&#x2da;" horiz-adv-x="475" 
d="M177 587q-46 0 -74 28.5t-28 74.5q0 45 29 74.5t73 29.5q43 0 72 -29.5t29 -74.5q0 -46 -28.5 -74.5t-72.5 -28.5zM177 623q27 0 45 18.5t18 48.5t-18.5 49t-44.5 19q-27 0 -45.5 -19t-18.5 -49t18.5 -48.5t45.5 -18.5z" />
    <glyph glyph-name="ogonek" unicode="&#x2db;" horiz-adv-x="269" 
d="M222 -208v-42q-184 0 -184 117q0 29 14.5 55.5t35 44.5t41.5 31.5t35 19.5l15 6l20 -24l-11 -5.5t-25 -15.5t-31.5 -26.5t-24.5 -37t-11 -47.5q0 -76 126 -76z" />
    <glyph glyph-name="tilde" unicode="&#x2dc;" horiz-adv-x="458" 
d="M395 672l10 -42q-2 -4 -6 -10.5t-25 -17t-51 -10.5q-35 0 -93 24.5t-89 24.5q-21 0 -40.5 -8.5t-28.5 -16.5l-9 -8l-10 47q2 5 8 13t30 21t56 13q38 0 96 -25.5t86 -25.5q20 0 36.5 5.5t22.5 10.5z" />
    <glyph glyph-name="hungarumlaut" unicode="&#x2dd;" horiz-adv-x="431" 
d="M130 596l-59 6l65 145l48 -18zM280 596l-59 6l64 145l48 -18z" />
    <glyph glyph-name="tonos" unicode="&#x384;" horiz-adv-x="237" 
d="M126 561l-40 12l64 188l53 -16z" />
    <glyph glyph-name="dieresistonos" unicode="&#x385;" horiz-adv-x="237" 
d="M255 615q-11 -10 -29 -10t-29 10q-13 12 -13 29q0 18 13 30q13 10 29 10t29 -10q13 -13 13 -30q0 -16 -13 -29zM30 615q-13 -10 -30 -10q-18 0 -29 10q-12 12 -12 29q0 18 12 30q13 10 29 10q15 0 30 -10q12 -12 12 -30q0 -17 -12 -29zM110 561l-40 12l64 188l53 -16z
" />
    <glyph glyph-name="Alphatonos" unicode="&#x386;" horiz-adv-x="770" 
d="M279 0h-217l-4 60l79 3l228 587h111l228 -591l79 -3l-4 -56h-225v48l66 2l-59 150h-290l-59 -148l71 -2zM416 583l-124 -328h247zM170 561l-40 12l64 188l53 -16z" />
    <glyph glyph-name="Epsilontonos" unicode="&#x388;" horiz-adv-x="671" 
d="M603 505h-66l-4 80h-257v-226l296 1v-63h-296v-232h284l8 90l62 -4l-4 -151h-510l-4 60l80 3v528l-81 3l4 56h416l72 4v-149zM48 561l-40 12l64 188l53 -16z" />
    <glyph glyph-name="Etatonos" unicode="&#x389;" horiz-adv-x="836" 
d="M352 0h-236l-4 60l80 3v528l-81 3l4 56h239v-60l-78 -3v-233h354v233l-81 3l3 60h239v-60l-77 -3v-528l80 -3l-4 -56h-236l-4 60l80 3v228h-354v-229l80 -2zM48 561l-40 12l64 188l53 -16z" />
    <glyph glyph-name="Iotatonos" unicode="&#x38a;" horiz-adv-x="399" 
d="M352 0h-236l-4 60l80 3v528l-81 3l4 56h239v-60l-78 -3v-528l80 -3zM48 561l-40 12l64 188l53 -16z" />
    <glyph glyph-name="Omicrontonos" unicode="&#x38c;" horiz-adv-x="831" 
d="M777 334q0 -157 -87.5 -252.5t-239.5 -95.5t-238.5 95t-86.5 253q0 155 86 242t239 87q154 0 240.5 -87t86.5 -242zM690 334q0 124 -63.5 192.5t-176.5 68.5t-176 -68.5t-63 -192.5q0 -127 63.5 -203.5t175.5 -76.5t176 76.5t64 203.5zM96 561l-40 12l64 188l53 -16z" />
    <glyph glyph-name="Upsilontonos" unicode="&#x38e;" horiz-adv-x="707" 
d="M511 0h-236l-4 60l79 3v206l-220 322l-93 3l3 56h237v-56l-52 -2l170 -253l168 252l-51 1v58h228v-60l-92 -2l-213 -318v-208l80 -2zM-7 561l-40 12l64 188l53 -16z" />
    <glyph glyph-name="Omegatonos" unicode="&#x38f;" horiz-adv-x="831" 
d="M393 0h-267l-4 106l44 4l7 -50h169l5 4q-33 13 -64 31.5t-69.5 53.5t-62 91t-23.5 125q0 135 84.5 216.5t238.5 81.5t238 -81.5t84 -216.5q0 -56 -16.5 -104t-40.5 -79t-56 -57t-56.5 -38.5t-49.5 -22.5l6 -4h168l7 50l45 -4l-4 -106h-267l-4 105l19.5 8.5t43.5 27
t55 48.5t43.5 75t19.5 104q0 104 -60 165.5t-175 61.5t-175.5 -61.5t-60.5 -165.5q0 -56 18.5 -103.5t45.5 -75.5t54 -48t45 -28l19 -8zM98 561l-40 12l64 188l53 -16z" />
    <glyph glyph-name="iotadieresistonos" unicode="&#x390;" horiz-adv-x="270" 
d="M287 615q-13 -10 -30 -10q-18 0 -29 10q-12 12 -12 29q0 18 12 30q13 10 29 10q15 0 30 -10q12 -12 12 -30q0 -17 -12 -29zM61 615q-11 -10 -29 -10t-29 10q-13 12 -13 29q0 18 13 30q13 10 29 10t29 -10q13 -13 13 -30q0 -16 -13 -29zM233 0h-192l-4 60l60 3v374l-59 3
l3 60h136v-441l60 -3zM135 561l-40 12l64 188l53 -16z" />
    <glyph glyph-name="Alpha" unicode="&#x391;" horiz-adv-x="700" 
d="M209 0h-217l-4 60l79 3l228 587h111l228 -591l79 -3l-4 -56h-225v48l66 2l-59 150h-290l-59 -148l71 -2zM346 583l-124 -328h247z" />
    <glyph glyph-name="Beta" unicode="&#x392;" horiz-adv-x="631" 
d="M320 0h-274l-4 60l80 3v528l-81 3l4 56h273q112 0 167 -40.5t55 -114.5q0 -90 -87 -147q124 -33 124 -151q0 -92 -62.5 -144.5t-194.5 -52.5zM356 308h-159v-247h118q181 0 181 136q0 111 -140 111zM197 363h155q38 0 74 31.5t36 92.5q0 55 -37.5 78.5t-110.5 23.5h-117
v-226z" />
    <glyph glyph-name="Gamma" unicode="&#x393;" horiz-adv-x="486" 
d="M292 0h-246l-4 60l80 3v528l-81 3l4 56h374l72 4v-177h-65l-5 108h-215v-526l90 -3z" />
    <glyph glyph-name="Delta" unicode="&#x394;" horiz-adv-x="665" 
d="M631 0h-597v65l243 585h111l243 -585v-65zM330 588l-214 -521h429z" />
    <glyph glyph-name="Epsilon" unicode="&#x395;" horiz-adv-x="601" 
d="M533 505h-66l-4 80h-257v-226l296 1v-63h-296v-232h284l8 90l62 -4l-4 -151h-510l-4 60l80 3v528l-81 3l4 56h416l72 4v-149z" />
    <glyph glyph-name="Zeta" unicode="&#x396;" horiz-adv-x="608" 
d="M559 593l-407 -528h345l8 90l62 -4l-4 -151h-518v57l407 528h-331l-6 -80h-65l3 145v4l73 -4h433v-57z" />
    <glyph glyph-name="Eta" unicode="&#x397;" horiz-adv-x="766" 
d="M282 0h-236l-4 60l80 3v528l-81 3l4 56h239v-60l-78 -3v-233h354v233l-81 3l3 60h239v-60l-77 -3v-528l80 -3l-4 -56h-236l-4 60l80 3v228h-354v-229l80 -2z" />
    <glyph glyph-name="Theta" unicode="&#x398;" horiz-adv-x="761" 
d="M520 290h-279v63h279v-63zM707 334q0 -157 -87.5 -252.5t-239.5 -95.5t-238.5 95t-86.5 253q0 155 86 242t239 87q154 0 240.5 -87t86.5 -242zM620 334q0 124 -63.5 192.5t-176.5 68.5t-176 -68.5t-63 -192.5q0 -127 63.5 -203.5t175.5 -76.5t176 76.5t64 203.5z" />
    <glyph glyph-name="Iota" unicode="&#x399;" horiz-adv-x="329" 
d="M282 0h-236l-4 60l80 3v528l-81 3l4 56h239v-60l-78 -3v-528l80 -3z" />
    <glyph glyph-name="Kappa" unicode="&#x39a;" horiz-adv-x="713" 
d="M713 0h-153l-39 34l-221 254l-94 -64v-162l80 -2l-4 -60h-236l-4 60l80 3v528l-81 3l4 56h231v-52l-70 -3v-289l92 62l207 230l-44 2v50h229v-60l-107 -3l-220 -245l245 -281l109 -1z" />
    <glyph glyph-name="Lambda" unicode="&#x39b;" horiz-adv-x="681" 
d="M213 0h-221l-4 60l78 3l219 587h111l219 -591l78 -3l-4 -56h-225v52l65 6l-191 523l-193 -525l72 -2z" />
    <glyph glyph-name="Mu" unicode="&#x39c;" horiz-adv-x="1002" 
d="M269 0h-223l-4 60l80 3l1 528l-81 3l3 56h186l272 -564l269 564h185v-60l-78 -3l1 -525l80 -2l-4 -60h-225l-4 52l72 3v481h-1l-258 -536h-80l-259 536h-1v-483l73 -3z" />
    <glyph glyph-name="Nu" unicode="&#x39d;" horiz-adv-x="788" 
d="M674 -6h-88l-389 537h-1l4 -31v-440l81 -2l-4 -58h-231l-4 60l80 3v528l-81 3l4 56h165l387 -544l-2 23v461l-81 2l3 58h234v-60l-77 -3v-593z" />
    <glyph glyph-name="Xi" unicode="&#x39e;" horiz-adv-x="608" 
d="M563 0h-518l-4 151l60 4l6 -88h394l6 88l60 -4zM101 505h-60l4 145h521l1 -145h-60l-6 78h-394zM461 291h-314v63h314v-63z" />
    <glyph glyph-name="Omicron" unicode="&#x39f;" horiz-adv-x="761" 
d="M707 334q0 -157 -87.5 -252.5t-239.5 -95.5t-238.5 95t-86.5 253q0 155 86 242t239 87q154 0 240.5 -87t86.5 -242zM620 334q0 124 -63.5 192.5t-176.5 68.5t-176 -68.5t-63 -192.5q0 -127 63.5 -203.5t175.5 -76.5t176 76.5t64 203.5z" />
    <glyph glyph-name="Pi" unicode="&#x3a0;" horiz-adv-x="748" 
d="M282 0h-236l-4 60l80 3v528l-81 3l4 56h658v-56l-77 -3v-529l80 -2l-4 -60h-236l-4 60l80 3v522h-336v-523l80 -2z" />
    <glyph glyph-name="Rho" unicode="&#x3a1;" horiz-adv-x="580" 
d="M291 0h-245l-4 60l80 3v528l-81 3l4 56h254q243 0 243 -196q0 -47 -14 -85.5t-37.5 -64.5t-55 -43.5t-65.5 -25.5t-70 -8h-100v-172l94 -3zM285 589h-85v-303h84q75 0 123 39.5t48 123.5q0 140 -170 140z" />
    <glyph glyph-name="Sigma" unicode="&#x3a3;" horiz-adv-x="584" 
d="M542 501h-65l-4 84h-302l169 -258l-193 -260h344l6 88l64 -4l-5 -151h-511v62l200 264l-174 263v61h399l72 4v-153z" />
    <glyph glyph-name="Tau" unicode="&#x3a4;" horiz-adv-x="540" 
d="M60 494h-62l4 160l72 -4h396l72 4v-160h-62l-6 91h-162v-523l80 -2l-4 -60h-236l-4 60l80 3v522h-160z" />
    <glyph glyph-name="Upsilon" unicode="&#x3a5;" horiz-adv-x="637" 
d="M441 0h-236l-4 60l79 3v206l-220 322l-93 3l3 56h237v-56l-52 -2l170 -253l168 252l-51 1v58h228v-60l-92 -2l-213 -318v-208l80 -2z" />
    <glyph glyph-name="Phi" unicode="&#x3a6;" horiz-adv-x="803" 
d="M522 0h-242l-4 53l87 3v62q-324 2 -324 224q0 116 81.5 162.5t242.5 47.5v62l-81 3l4 49h230v-49l-78 -3v-62q161 -1 243.5 -46.5t82.5 -161.5q0 -224 -326 -226v-62l88 -3zM678 342q0 89 -57.5 122.5t-182.5 34.5v-327q122 1 181 40t59 130zM125 340q0 -89 58 -128
t180 -40v327q-125 -1 -181.5 -35.5t-56.5 -123.5z" />
    <glyph glyph-name="Chi" unicode="&#x3a7;" horiz-adv-x="696" 
d="M244 594l-47 -2l151 -208v-1l1 1l151 207l-48 1v58h235v-60l-98 -2l-191 -261l199 -266l101 -1l-3 -60h-240v56l45 1l-154 210l-154 -208l47 -1v-58h-237l-4 60l102 2l196 263l-195 266l-97 3l3 56h237v-56z" />
    <glyph glyph-name="Psi" unicode="&#x3a8;" horiz-adv-x="827" 
d="M530 0h-227l-4 60l79 3v133q-152 1 -229.5 71t-77.5 186v138l-81 3l3 56h162v-185q0 -93 57.5 -146.5t165.5 -54.5v339l-80 2l4 61h229v-61l-77 -2v-339q108 1 163 51t55 143v192h148v-56l-64 -3v-145q0 -116 -75 -182.5t-227 -67.5v-134l80 -2z" />
    <glyph glyph-name="Omega" unicode="&#x3a9;" horiz-adv-x="761" 
d="M323 0h-267l-4 106l44 4l7 -50h169l5 4q-33 13 -64 31.5t-69.5 53.5t-62 91t-23.5 125q0 135 84.5 216.5t238.5 81.5t238 -81.5t84 -216.5q0 -56 -16.5 -104t-40.5 -79t-56 -57t-56.5 -38.5t-49.5 -22.5l6 -4h168l7 50l45 -4l-4 -106h-267l-4 105l19.5 8.5t43.5 27
t55 48.5t43.5 75t19.5 104q0 104 -60 165.5t-175 61.5t-175.5 -61.5t-60.5 -165.5q0 -56 18.5 -103.5t45.5 -75.5t54 -48t45 -28l19 -8z" />
    <glyph glyph-name="Iotadieresis" unicode="&#x3aa;" horiz-adv-x="329" 
d="M282 0h-236l-4 60l80 3v528l-81 3l4 56h239v-60l-78 -3v-528l80 -3zM283 764q-13 -10 -30 -10q-19 0 -30 10q-13 12 -13 30q0 19 13 31q13 10 30 10q15 0 30 -10q13 -13 13 -31q0 -17 -13 -30zM105 764q-11 -10 -30 -10q-18 0 -29 10q-13 12 -13 30q0 19 13 31
q13 10 29 10q17 0 30 -10q13 -13 13 -31q0 -17 -13 -30z" />
    <glyph glyph-name="Upsilondieresis" unicode="&#x3ab;" horiz-adv-x="637" 
d="M441 0h-236l-4 60l79 3v206l-220 322l-93 3l3 56h237v-56l-52 -2l170 -253l168 252l-51 1v58h228v-60l-92 -2l-213 -318v-208l80 -2zM457 749q-13 -10 -30 -10q-19 0 -30 10q-13 12 -13 30q0 19 13 31q13 10 30 10q15 0 30 -10q13 -13 13 -31q0 -17 -13 -30zM279 749
q-11 -10 -30 -10q-18 0 -29 10q-13 12 -13 30q0 19 13 31q13 10 29 10q17 0 30 -10q13 -13 13 -31q0 -17 -13 -30z" />
    <glyph glyph-name="alphatonos" unicode="&#x3ac;" horiz-adv-x="600" 
d="M564 0h-127l-8 59q-8 -13 -21.5 -26t-52 -30t-87.5 -17q-103 0 -166.5 71.5t-63.5 189.5q0 126 61.5 196.5t180.5 70.5q46 0 82.5 -14t50.5 -28l14 -15h2l5 43h74v-441l59 -3zM291 48q28 0 52 8t39 19t26 22t16 19l4 8v271q-4 6 -13.5 16t-42 26t-71.5 16
q-93 0 -136.5 -51.5t-43.5 -152.5q0 -97 44.5 -149t125.5 -52zM300 561l-40 12l64 188l53 -16z" />
    <glyph glyph-name="epsilontonos" unicode="&#x3ad;" horiz-adv-x="472" 
d="M231 283h103v-52h-102q-53 0 -83 -20t-30 -59q0 -44 40 -76t109 -32q34 0 63.5 7t47 17t30 20t17.5 17l5 7l27 -40q-2 -3 -5.5 -9t-19 -21t-35.5 -26t-57 -20.5t-82 -9.5q-101 0 -160 47.5t-59 117.5q0 89 99 115q-74 39 -74 115q0 60 49 96.5t125 36.5q71 0 124 -46
l9 37h50v-138h-61l-4 47q-40 43 -98 43q-54 0 -85.5 -24t-31.5 -62q0 -22 9 -39.5t22 -26t26.5 -14t22.5 -7.5zM239 561l-40 12l64 188l53 -16z" />
    <glyph glyph-name="etatonos" unicode="&#x3ae;" horiz-adv-x="599" 
d="M311 561l-40 12l64 188l53 -16zM233 0h-192l-4 60l60 3v374l-59 3l3 60h127l6 -45q7 8 20.5 18.5t56 25.5t95.5 15q179 0 179 -155v-609h-81v594q0 102 -125 102q-43 0 -78.5 -13t-49.5 -25l-14 -13v-336l60 -3z" />
    <glyph glyph-name="iotatonos" unicode="&#x3af;" horiz-adv-x="270" 
d="M233 0h-192l-4 60l60 3v374l-59 3l3 60h136v-441l60 -3zM152 561l-40 12l64 188l53 -16z" />
    <glyph glyph-name="upsilondieresistonos" unicode="&#x3b0;" horiz-adv-x="586" 
d="M451 614q-11 -10 -30 -10q-18 0 -29 10q-13 12 -13 30q0 19 13 31q13 10 29 10q17 0 30 -10q13 -13 13 -31q0 -17 -13 -30zM226 614q-13 -10 -30 -10q-19 0 -30 10q-12 12 -12 30q0 19 12 31q13 10 30 10q15 0 30 -10q13 -13 13 -31q0 -17 -13 -30zM431 176v261l-60 3
l4 60h136v-331q0 -84 -57 -133.5t-158 -49.5t-157 49.5t-56 133.5v268l-59 3l4 60h135v-324q0 -56 36.5 -91t96.5 -35t97.5 35t37.5 91zM295 561l-40 12l64 188l53 -16z" />
    <glyph glyph-name="alpha" unicode="&#x3b1;" horiz-adv-x="600" 
d="M564 0h-127l-8 59q-8 -13 -21.5 -26t-52 -30t-87.5 -17q-103 0 -166.5 71.5t-63.5 189.5q0 126 61.5 196.5t180.5 70.5q46 0 82.5 -14t50.5 -28l14 -15h2l5 43h74v-441l59 -3zM291 48q28 0 52 8t39 19t26 22t16 19l4 8v271q-4 6 -13.5 16t-42 26t-71.5 16
q-93 0 -136.5 -51.5t-43.5 -152.5q0 -97 44.5 -149t125.5 -52z" />
    <glyph glyph-name="beta" unicode="&#x3b2;" horiz-adv-x="593" 
d="M165 -250h-80v801q0 212 209 212q94 0 146.5 -42.5t52.5 -120.5q0 -101 -102 -166q164 -35 164 -198q0 -106 -64.5 -178t-169.5 -72q-33 0 -61 6.5t-44.5 16t-29 19t-16.5 16.5l-5 6v-300zM472 240q0 82 -45 116.5t-151 34.5v58q6 1 15 3.5t32.5 13.5t41.5 25.5t33 41.5
t15 59q0 110 -119 110q-129 0 -129 -161v-436q5 -8 16 -19.5t42 -25t70 -13.5q82 0 130.5 55.5t48.5 137.5z" />
    <glyph glyph-name="gamma" unicode="&#x3b3;" horiz-adv-x="515" 
d="M300 -250h-81v250l-174 437l-71 3l4 60h131l150 -422l131 360l-46 5l4 57h190v-60l-69 -3l-169 -437v-250z" />
    <glyph glyph-name="delta" unicode="&#x3b4;" horiz-adv-x="573" 
d="M286 -14q-120 0 -184 71.5t-64 196.5q0 185 133 239q-64 47 -64 131q0 68 57.5 103.5t140.5 35.5q82 0 148 -11l30 3v-107h-56l-5 43q-68 7 -114 7q-56 0 -93.5 -19.5t-37.5 -65.5q0 -90 97 -99h12q121 0 184.5 -68t63.5 -192t-65 -196t-183 -72zM286 45q84 0 124.5 54.5
t40.5 153.5q0 202 -165 202t-165 -202q0 -98 41 -153t124 -55z" />
    <glyph glyph-name="epsilon" unicode="&#x3b5;" horiz-adv-x="472" 
d="M231 283h103v-52h-102q-53 0 -83 -20t-30 -59q0 -44 40 -76t109 -32q34 0 63.5 7t47 17t30 20t17.5 17l5 7l27 -40q-2 -3 -5.5 -9t-19 -21t-35.5 -26t-57 -20.5t-82 -9.5q-101 0 -160 47.5t-59 117.5q0 89 99 115q-74 39 -74 115q0 60 49 96.5t125 36.5q71 0 124 -46
l9 37h50v-138h-61l-4 47q-40 43 -98 43q-54 0 -85.5 -24t-31.5 -62q0 -22 9 -39.5t22 -26t26.5 -14t22.5 -7.5z" />
    <glyph glyph-name="zeta" unicode="&#x3b6;" horiz-adv-x="451" 
d="M100 782l4 -32h341v-55q-306 -342 -306 -503q0 -133 210 -133q60 0 87.5 -19.5t27.5 -63.5q0 -36 -8 -73.5t-16 -56.5l-9 -19l-63 8q27 61 27 115q0 30 -17 40t-66 10q-256 0 -256 190q0 94 88 230.5t206 266.5h-237l-65 -4l-4 95z" />
    <glyph glyph-name="eta" unicode="&#x3b7;" horiz-adv-x="599" 
d="M233 0h-192l-4 60l60 3v374l-59 3l3 60h127l6 -45q7 8 20.5 18.5t56 25.5t95.5 15q179 0 179 -155v-609h-81v594q0 102 -125 102q-43 0 -78.5 -13t-49.5 -25l-14 -13v-336l60 -3z" />
    <glyph glyph-name="theta" unicode="&#x3b8;" horiz-adv-x="585" 
d="M293 -14q-123 0 -185.5 100.5t-62.5 295.5q0 381 248 381q247 0 247 -381q0 -194 -62.5 -295t-184.5 -101zM293 705q-85 0 -124 -70t-41 -228h330q-3 158 -42 228t-123 70zM293 44q82 0 121 72.5t43 225.5h-329q5 -153 44 -225.5t121 -72.5z" />
    <glyph glyph-name="iota" unicode="&#x3b9;" horiz-adv-x="270" 
d="M233 0h-192l-4 60l60 3v374l-59 3l3 60h136v-441l60 -3z" />
    <glyph glyph-name="kappa" unicode="&#x3ba;" horiz-adv-x="551" 
d="M226 0h-185l-4 60l60 3v374l-67 3l4 60h143v-224l73 34l105 134l-31 2l3 54h187v-60l-87 -8l-124 -149l159 -218l91 -1l-4 -64h-123l-39 42l-151 203l-59 -27v-163l52 -3z" />
    <glyph glyph-name="lambda" unicode="&#x3bb;" horiz-adv-x="544" 
d="M559 60v-60h-190l-4 57l58 5l-114 346h-1l-194 -408h-126l-4 60l75 2l218 436q-17 53 -27 80.5t-25 60.5t-30 47t-33 14l-38 -8l1 57q31 14 60 14q52 0 89.5 -62t80.5 -189l152 -450z" />
    <glyph glyph-name="mu" unicode="&#x3bc;" horiz-adv-x="613" 
d="M440 105v332l-59 3l4 60h136v-441l59 -3l-3 -56h-127l-7 45q-59 -59 -172 -59q-58 0 -99 23q0 -43 0.5 -129.5t0.5 -129.5h-81l1 533v154l-59 3l4 60h135v-324q0 -55 33.5 -88t92.5 -33q43 0 78 12.5t49 24.5z" />
    <glyph glyph-name="nu" unicode="&#x3bd;" horiz-adv-x="515" 
d="M301 0h-87l-170 437l-70 3l4 60h131l150 -417h1l131 357l-47 2v58h194v-60l-68 -3z" />
    <glyph glyph-name="xi" unicode="&#x3be;" horiz-adv-x="479" 
d="M409 387h-73q-116 0 -165 -38.5t-49 -123.5q0 -47 20.5 -81t56 -52t74.5 -25.5t85 -7.5q62 0 90.5 -19.5t28.5 -63.5q0 -36 -11 -73.5t-22 -56.5l-11 -19l-52 8q27 61 27 115q0 30 -17.5 40t-68.5 10q-49 0 -94 10t-90 33.5t-72 70t-27 110.5q0 156 151 196
q-111 53 -111 171q0 84 54 128t133 44q64 0 116 -43l11 34h51l-1 -145h-61l-5 56q-41 38 -96 38q-56 0 -89.5 -30t-33.5 -90q0 -42 20 -71.5t50.5 -42.5t56 -18.5t47.5 -5.5h77v-58z" />
    <glyph glyph-name="omicron" unicode="&#x3bf;" horiz-adv-x="573" 
d="M286 -14q-120 0 -184 71.5t-64 196.5q0 124 63.5 192t184.5 68t184.5 -68t63.5 -192t-65 -196t-183 -72zM286 45q84 0 124.5 54.5t40.5 153.5q0 202 -165 202t-165 -202q0 -98 41 -153t124 -55z" />
    <glyph glyph-name="pi" unicode="&#x3c0;" horiz-adv-x="611" 
d="M571 0h-137v437h-257v-378l60 -3l-4 -56h-192l-4 60l60 3v374l-59 3l3 60h529v-60l-55 -3v-378l60 -3z" />
    <glyph glyph-name="rho" unicode="&#x3c1;" horiz-adv-x="582" 
d="M155 -250h-80v554q0 94 57.5 152t166.5 58q121 0 183 -61t62 -179q0 -128 -61.5 -207.5t-174.5 -79.5q-30 0 -57 6t-43.5 15t-29 17.5t-18.5 14.5l-5 6v-296zM155 310v-206q7 -10 18 -20.5t41.5 -24.5t66.5 -14q91 0 135.5 61.5t44.5 165.5q0 96 -40.5 139.5t-123.5 43.5
q-71 0 -106.5 -41t-35.5 -104z" />
    <glyph glyph-name="sigma1" unicode="&#x3c2;" horiz-adv-x="488" 
d="M460 335h-62l-5 72q-48 48 -106 48q-85 0 -125.5 -47t-40.5 -152t50 -151t152 -46q107 0 107 -83q0 -36 -11 -73.5t-22 -56.5l-11 -19l-52 8q28 61 28 115q0 29 -16 39.5t-59 10.5q-120 0 -184.5 63.5t-64.5 191.5q0 126 59.5 192.5t172.5 66.5q65 0 128 -49l12 40h50
v-170z" />
    <glyph glyph-name="sigma" unicode="&#x3c3;" horiz-adv-x="597" 
d="M286 514q39 0 156 -7t135 -7v-61q-13 0 -93 4q46 -95 46 -193q0 -118 -63.5 -191t-180.5 -73q-119 0 -183.5 74.5t-64.5 199.5q0 123 63 188.5t185 65.5zM413 448l-92 6l-35 1q-165 0 -165 -194q0 -100 41 -158.5t124 -58.5t124 58t41 158q0 93 -38 188z" />
    <glyph glyph-name="tau" unicode="&#x3c4;" horiz-adv-x="398" 
d="M377 436h-188v-284q0 -52 15.5 -76.5t50.5 -24.5q21 0 42 2.5t31 4.5l10 3v-54q-32 -21 -108 -21q-62 0 -91.5 35.5t-29.5 112.5v269l3 34h-85v60l82 3h268v-64z" />
    <glyph glyph-name="upsilon" unicode="&#x3c5;" horiz-adv-x="586" 
d="M431 176v261l-60 3l4 60h136v-331q0 -84 -57 -133.5t-158 -49.5t-157 49.5t-56 133.5v268l-59 3l4 60h135v-324q0 -56 36.5 -91t96.5 -35t97.5 35t37.5 91z" />
    <glyph glyph-name="phi" unicode="&#x3c6;" horiz-adv-x="695" 
d="M386 -250h-77v236q-129 1 -200 75t-71 200q0 122 69.5 186.5t201.5 66.5v173l-59 3l4 60h132v-236q131 -2 201 -67t70 -187q0 -125 -71.5 -199t-199.5 -75v-236zM578 260q0 101 -47.5 147.5t-144.5 47.5v-410q95 1 143.5 56t48.5 159zM117 261q0 -104 48.5 -159.5
t143.5 -56.5v410q-97 -1 -144.5 -47t-47.5 -147z" />
    <glyph glyph-name="chi" unicode="&#x3c7;" horiz-adv-x="573" 
d="M186 0h-184v60l86 2l145 193l-137 182l-88 3l4 60h129l146 -204h1l105 146l-30 1l4 57h187v-60l-79 -3l-136 -182l149 -197l86 -2l-3 -56h-122l-40 44l-124 168l-114 -154h19z" />
    <glyph glyph-name="psi" unicode="&#x3c8;" horiz-adv-x="746" 
d="M413 -250h-76v236q-112 1 -186 61.5t-74 159.5v230l-68 3l4 60h140v-279q0 -76 52.5 -123.5t131.5 -47.5v637l-60 3l4 60h132v-700q81 1 134 48t53 123v216l-60 7l3 56h134v-293q0 -99 -75 -159.5t-189 -61.5v-236z" />
    <glyph glyph-name="omega" unicode="&#x3c9;" horiz-adv-x="792" 
d="M359 202v160h74v-160q0 -74 20.5 -110.5t84.5 -36.5q62 0 95.5 54.5t33.5 150.5q0 46 -7 86.5t-16.5 65t-20 43t-17 26t-7.5 7.5l65 20q1 0 8.5 -7t20 -26t23.5 -45t19.5 -71t8.5 -97q0 -131 -51 -203.5t-149 -72.5q-101 0 -149 92q-48 -92 -147 -92q-98 0 -149 72.5
t-51 203.5q0 52 8 97t19.5 71t23.5 45t20 26t9 7l65 -20q-3 0 -18 -20.5t-32.5 -77.5t-17.5 -130q0 -96 33.5 -150.5t94.5 -54.5q64 0 85 36.5t21 110.5z" />
    <glyph glyph-name="iotadieresis" unicode="&#x3ca;" horiz-adv-x="270" 
d="M233 0h-192l-4 60l60 3v374l-59 3l3 60h136v-441l60 -3zM255 614q-13 -10 -30 -10q-19 0 -30 10q-13 12 -13 30q0 19 13 31q13 10 30 10q15 0 30 -10q13 -13 13 -31q0 -17 -13 -30zM77 614q-11 -10 -30 -10q-18 0 -29 10q-13 12 -13 30q0 19 13 31q13 10 29 10
q17 0 30 -10q13 -13 13 -31q0 -17 -13 -30z" />
    <glyph glyph-name="upsilondieresis" unicode="&#x3cb;" horiz-adv-x="586" 
d="M431 176v261l-60 3l4 60h136v-331q0 -84 -57 -133.5t-158 -49.5t-157 49.5t-56 133.5v268l-59 3l4 60h135v-324q0 -56 36.5 -91t96.5 -35t97.5 35t37.5 91zM411 614q-13 -10 -30 -10q-19 0 -30 10q-13 12 -13 30q0 19 13 31q13 10 30 10q15 0 30 -10q13 -13 13 -31
q0 -17 -13 -30zM233 614q-11 -10 -30 -10q-18 0 -29 10q-13 12 -13 30q0 19 13 31q13 10 29 10q17 0 30 -10q13 -13 13 -31q0 -17 -13 -30z" />
    <glyph glyph-name="omicrontonos" unicode="&#x3cc;" horiz-adv-x="573" 
d="M286 -14q-120 0 -184 71.5t-64 196.5q0 124 63.5 192t184.5 68t184.5 -68t63.5 -192t-65 -196t-183 -72zM286 45q84 0 124.5 54.5t40.5 153.5q0 202 -165 202t-165 -202q0 -98 41 -153t124 -55zM292 561l-40 12l64 188l53 -16z" />
    <glyph glyph-name="upsilontonos" unicode="&#x3cd;" horiz-adv-x="586" 
d="M431 176v261l-60 3l4 60h136v-331q0 -84 -57 -133.5t-158 -49.5t-157 49.5t-56 133.5v268l-59 3l4 60h135v-324q0 -56 36.5 -91t96.5 -35t97.5 35t37.5 91zM299 561l-40 12l64 188l53 -16z" />
    <glyph glyph-name="omegatonos" unicode="&#x3ce;" horiz-adv-x="792" 
d="M359 202v160h74v-160q0 -74 20.5 -110.5t84.5 -36.5q62 0 95.5 54.5t33.5 150.5q0 46 -7 86.5t-16.5 65t-20 43t-17 26t-7.5 7.5l65 20q1 0 8.5 -7t20 -26t23.5 -45t19.5 -71t8.5 -97q0 -131 -51 -203.5t-149 -72.5q-101 0 -149 92q-48 -92 -147 -92q-98 0 -149 72.5
t-51 203.5q0 52 8 97t19.5 71t23.5 45t20 26t9 7l65 -20q-3 0 -18 -20.5t-32.5 -77.5t-17.5 -130q0 -96 33.5 -150.5t94.5 -54.5q64 0 85 36.5t21 110.5zM402 561l-40 12l64 188l53 -16z" />
    <glyph glyph-name="uni0400" unicode="&#x400;" horiz-adv-x="601" 
d="M533 505h-66l-4 80h-257v-226l296 1v-63h-296v-232h284l8 90l62 -4l-4 -151h-510l-4 60l80 3v528l-81 3l4 56h416l72 4v-149zM365 712l-57 -5l-116 139l77 9z" />
    <glyph glyph-name="afii10023" unicode="&#x401;" horiz-adv-x="601" 
d="M533 505h-66l-4 80h-257v-226l296 1v-63h-296v-232h284l8 90l62 -4l-4 -151h-510l-4 60l80 3v528l-81 3l4 56h416l72 4v-149zM444 749q-13 -10 -30 -10q-19 0 -30 10q-13 12 -13 30q0 19 13 31q13 10 30 10q15 0 30 -10q13 -13 13 -31q0 -17 -13 -30zM266 749
q-11 -10 -30 -10q-18 0 -29 10q-13 12 -13 30q0 19 13 31q13 10 29 10q17 0 30 -10q13 -13 13 -31q0 -17 -13 -30z" />
    <glyph glyph-name="afii10051" unicode="&#x402;" horiz-adv-x="752" 
d="M690 187q0 -201 -156 -201q-35 0 -64 11.5t-40 22.5l-11 11l7 50q34 -34 79 -34q97 0 101 116v55q0 63 -29 87.5t-101 24.5q-94 0 -168 -64v-207l72 -3l-4 -56h-228l-4 60l80 3v524h-155l-5 -76l-66 4l4 139l72 -4h384l72 4l4 -139l-66 -4l-6 76h-154v-259q9 9 27 22
t68 31.5t104 18.5q99 0 141 -40t42 -124v-49z" />
    <glyph glyph-name="afii10052" unicode="&#x403;" horiz-adv-x="486" 
d="M292 0h-246l-4 60l80 3v528l-81 3l4 56h374l72 4v-177h-65l-5 108h-215v-526l90 -3zM292 707l-57 4l95 143l77 -8z" />
    <glyph glyph-name="afii10053" unicode="&#x404;" horiz-adv-x="669" 
d="M532 284h-387q10 -113 75 -171.5t173 -58.5q40 0 77 10t61 24t43 27.5t28 23.5l8 10l33 -53q-3 -4 -10 -11.5t-31 -26.5t-51 -33.5t-71 -26.5t-92 -12q-155 0 -244 92t-89 248q0 153 90 245t231 92q80 0 154 -51l12 42h51v-187h-62l-6 84q-60 44 -140 44
q-107 0 -171.5 -63.5t-70.5 -184.5h389v-63z" />
    <glyph glyph-name="afii10054" unicode="&#x405;" horiz-adv-x="580" 
d="M497 501h-65l-5 55q-51 45 -121 45q-68 0 -105 -30t-37 -84q0 -45 37.5 -73.5t91 -44.5t107.5 -34t91.5 -55.5t37.5 -96.5q0 -90 -62 -143.5t-174 -53.5q-64 0 -119 10t-78 20l-23 10l-2 143l62 4l7 -101q70 -24 145 -24q80 0 121 35.5t41 90.5q0 43 -37.5 69t-91.5 41.5
t-108 34t-91.5 58.5t-37.5 103q0 82 56.5 132.5t154.5 50.5q73 0 142 -49l13 40h50v-153z" />
    <glyph glyph-name="afii10055" unicode="&#x406;" horiz-adv-x="329" 
d="M282 0h-236l-4 60l80 3v528l-81 3l4 56h239v-60l-78 -3v-528l80 -3z" />
    <glyph glyph-name="afii10056" unicode="&#x407;" horiz-adv-x="329" 
d="M282 0h-236l-4 60l80 3v528l-81 3l4 56h239v-60l-78 -3v-528l80 -3zM283 749q-13 -10 -30 -10q-19 0 -30 10q-13 12 -13 30q0 19 13 31q13 10 30 10q15 0 30 -10q13 -13 13 -31q0 -17 -13 -30zM105 749q-11 -10 -30 -10q-18 0 -29 10q-13 12 -13 30q0 19 13 31
q13 10 29 10q17 0 30 -10q13 -13 13 -31q0 -17 -13 -30z" />
    <glyph glyph-name="afii10057" unicode="&#x408;" horiz-adv-x="449" 
d="M407 590l-63 -3v-400q0 -113 -47 -157t-131 -44q-42 0 -77 6t-49 12l-13 5l-7 139l58 4l7 -92q34 -10 72 -10q103 0 103 137v404l-95 3l4 56h238v-60z" />
    <glyph glyph-name="afii10058" unicode="&#x409;" horiz-adv-x="1016" 
d="M692 0h-261l-4 60l80 3v522h-216q-1 -293 -59 -444.5t-158 -151.5q-16 0 -29 2.5t-19 5.5l-5 3l4 69q11 -5 31 -5q150 0 157 525l-89 3l3 58h542v-56l-78 -3v-202h94q277 0 277 -178q0 -97 -69 -154t-201 -57zM685 330h-94v-269h96q95 0 144.5 38t49.5 108
q0 66 -49.5 94.5t-146.5 28.5z" />
    <glyph glyph-name="afii10059" unicode="&#x40a;" horiz-adv-x="1069" 
d="M745 0h-261l-4 60l80 3v228h-354v-229l80 -2l-4 -60h-236l-4 60l80 3v528l-81 3l4 56h239v-60l-78 -3v-233h354v237l-81 3l4 56h239v-56l-78 -3v-202h94q277 0 277 -178q0 -97 -69 -154t-201 -57zM738 330h-94v-269h96q95 0 144.5 38t49.5 108q0 66 -49.5 94.5
t-146.5 28.5z" />
    <glyph glyph-name="afii10060" unicode="&#x40b;" horiz-adv-x="803" 
d="M534 515l-66 -4l-6 76h-154v-259q9 9 27 22t68 31.5t104 18.5q99 0 141 -40t42 -124v-177l80 -3l-4 -56h-232l-4 56l76 3v159q0 63 -29 87.5t-101 24.5q-94 0 -168 -64v-207l76 -3l-4 -56h-232l-4 60l80 3v524h-155l-5 -76l-66 4l4 139l72 -4h384l72 4z" />
    <glyph glyph-name="afii10061" unicode="&#x40c;" horiz-adv-x="713" 
d="M713 0h-153l-39 34l-221 254l-94 -64v-162l80 -2l-4 -60h-236l-4 60l80 3v528l-81 3l4 56h231v-52l-70 -3v-289l92 62l207 230l-44 2v50h229v-60l-107 -3l-220 -245l245 -281l109 -1zM343 707l-57 4l95 143l77 -8z" />
    <glyph glyph-name="uni040D" unicode="&#x40d;" horiz-adv-x="775" 
d="M729 0h-231l-4 56l79 3v436l4 35h-1l-372 -520l-4 -10h-154l-4 60l80 3v528l-81 3l4 56h235v-56l-78 -3v-440l-4 -31h1l372 520l4 10h155v-56l-77 -3v-532l80 -3zM431 712l-57 -5l-116 139l77 9z" />
    <glyph glyph-name="afii10062" unicode="&#x40e;" horiz-adv-x="663" 
d="M219 594l-58 -3l208 -359l153 359l-60 1l4 58h220v-56l-78 -2l-195 -426q-47 -102 -101.5 -140.5t-136.5 -38.5q-24 0 -46 5t-32 10l-10 4h-1l-4 160l58 4l9 -114q16 -4 37 -4q41 0 73.5 21.5t66.5 82.5l-259 435l-89 3l4 56h237v-56zM357 763q24 0 43 6t29.5 14.5
t17 17.5t8.5 15l2 6v1l72 -10q-1 -4 -3 -11t-14 -24.5t-28.5 -31t-50 -24.5t-76.5 -11t-76 10.5t-50.5 25.5t-28.5 30t-14 25l-3 11l72 10v-1q1 -2 2 -6t8.5 -14.5t17 -18t29 -14t43.5 -6.5z" />
    <glyph glyph-name="afii10145" unicode="&#x40f;" horiz-adv-x="748" 
d="M409 -211h-70l-4 211h-289l-4 60l80 3v528l-81 3l4 56h235v-56l-74 -3v-526h336v526l-77 3l4 56h234v-56l-77 -3v-529l80 -2l-4 -60h-289z" />
    <glyph glyph-name="afii10017" unicode="&#x410;" horiz-adv-x="700" 
d="M209 0h-217l-4 60l79 3l228 587h111l228 -591l79 -3l-4 -56h-225v48l66 2l-59 150h-290l-59 -148l71 -2zM346 583l-124 -328h247z" />
    <glyph glyph-name="afii10018" unicode="&#x411;" horiz-adv-x="631" 
d="M511 499h-65l-4 86h-236v-200h94q277 0 277 -178q0 -97 -69 -152t-202 -55h-260l-4 60l80 3v528l-81 3l4 56h394l72 4v-155zM300 326h-94v-265h96q194 0 194 142q0 66 -49.5 94.5t-146.5 28.5z" />
    <glyph glyph-name="afii10019" unicode="&#x412;" horiz-adv-x="631" 
d="M320 0h-274l-4 60l80 3v528l-81 3l4 56h273q112 0 167 -40.5t55 -114.5q0 -90 -87 -147q124 -33 124 -151q0 -92 -62.5 -144.5t-194.5 -52.5zM356 308h-159v-247h118q181 0 181 136q0 111 -140 111zM197 363h155q38 0 74 31.5t36 92.5q0 55 -37.5 78.5t-110.5 23.5h-117
v-226z" />
    <glyph glyph-name="afii10020" unicode="&#x413;" horiz-adv-x="486" 
d="M292 0h-246l-4 60l80 3v528l-81 3l4 56h374l72 4v-177h-65l-5 108h-215v-526l90 -3z" />
    <glyph glyph-name="afii10021" unicode="&#x414;" horiz-adv-x="720" 
d="M112 -162h-66l-4 227h59q44 80 68.5 200t27.5 324l-85 3l4 58h551v-60l-78 -3v-522h88l-8 -227h-70l-9 162h-467zM507 585h-234q-3 -199 -26.5 -318.5t-65.5 -201.5h326v520z" />
    <glyph glyph-name="afii10022" unicode="&#x415;" horiz-adv-x="601" 
d="M533 505h-66l-4 80h-257v-226l296 1v-63h-296v-232h284l8 90l62 -4l-4 -151h-510l-4 60l80 3v528l-81 3l4 56h416l72 4v-149z" />
    <glyph glyph-name="afii10024" unicode="&#x416;" horiz-adv-x="998" 
d="M236 592l-42 -1l140 -218h108v218l-73 3l4 56h219v-56l-70 -3v-218h103l158 218l-40 1v58h225v-56l-96 -2l-183 -240l212 -291l100 -1l-4 -60h-141l-38 42l-193 267h-103v-250l80 -3l-4 -56h-232l-3 56l79 3v249h-103l-160 -259l-40 -49h-141v60l91 1l183 278l-169 253
l-93 2l4 56h222v-58z" />
    <glyph glyph-name="afii10025" unicode="&#x417;" horiz-adv-x="557" 
d="M145 498h-62l4 156h50l8 -41q64 50 129 50q96 0 148 -42t52 -119q0 -54 -30.5 -96t-76.5 -67q136 -28 136 -148q0 -91 -66 -148t-189 -57q-50 0 -91 10.5t-64.5 25t-40 29t-22.5 25.5l-6 10l35 52q2 -3 6.5 -9t21 -20.5t36 -26t51.5 -20.5t68 -9q84 0 128.5 37.5
t44.5 100.5q0 57 -39 81.5t-114 24.5h-110v66l115 -1q44 1 84 38t40 94q0 107 -131 107q-60 0 -112 -43z" />
    <glyph glyph-name="afii10026" unicode="&#x418;" horiz-adv-x="775" 
d="M729 0h-231l-4 56l79 3v436l4 35h-1l-372 -520l-4 -10h-154l-4 60l80 3v528l-81 3l4 56h235v-56l-78 -3v-440l-4 -31h1l372 520l4 10h155v-56l-77 -3v-532l80 -3z" />
    <glyph glyph-name="afii10027" unicode="&#x419;" horiz-adv-x="775" 
d="M392 763q24 0 43.5 6t30 14.5t17 17.5t8.5 15l2 6v1l71 -10q-1 -4 -3 -11t-14 -24.5t-28.5 -31t-50 -24.5t-76.5 -11q-42 0 -75.5 10.5t-50.5 25.5t-28.5 30t-14.5 25l-3 11l72 10v-1q1 -2 2 -6t8.5 -14.5t17 -18t29 -14t43.5 -6.5zM729 0h-231l-4 56l79 3v436l4 35h-1
l-372 -520l-4 -10h-154l-4 60l80 3v528l-81 3l4 56h235v-56l-78 -3v-440l-4 -31h1l372 520l4 10h155v-56l-77 -3v-532l80 -3z" />
    <glyph glyph-name="afii10028" unicode="&#x41a;" horiz-adv-x="713" 
d="M713 0h-153l-39 34l-221 254l-94 -64v-162l80 -2l-4 -60h-236l-4 60l80 3v528l-81 3l4 56h231v-52l-70 -3v-289l92 62l207 230l-44 2v50h229v-60l-107 -3l-220 -245l245 -281l109 -1z" />
    <glyph glyph-name="afii10029" unicode="&#x41b;" horiz-adv-x="714" 
d="M21 0l4 69q11 -5 31 -5q150 0 157 525l-89 3l3 58h541v-60l-77 -3v-525l80 -2l-4 -60h-236l-4 60l80 3v522h-216q-1 -293 -59 -444.5t-158 -151.5q-16 0 -29 2.5t-19 5.5z" />
    <glyph glyph-name="afii10030" unicode="&#x41c;" horiz-adv-x="1002" 
d="M269 0h-223l-4 60l80 3l1 528l-81 3l3 56h186l272 -564l269 564h185v-60l-78 -3l1 -525l80 -2l-4 -60h-225l-4 52l72 3v481h-1l-258 -536h-80l-259 536h-1v-483l73 -3z" />
    <glyph glyph-name="afii10031" unicode="&#x41d;" horiz-adv-x="766" 
d="M282 0h-236l-4 60l80 3v528l-81 3l4 56h239v-60l-78 -3v-233h354v233l-81 3l3 60h239v-60l-77 -3v-528l80 -3l-4 -56h-236l-4 60l80 3v228h-354v-229l80 -2z" />
    <glyph glyph-name="afii10032" unicode="&#x41e;" horiz-adv-x="761" 
d="M707 334q0 -157 -87.5 -252.5t-239.5 -95.5t-238.5 95t-86.5 253q0 155 86 242t239 87q154 0 240.5 -87t86.5 -242zM620 334q0 124 -63.5 192.5t-176.5 68.5t-176 -68.5t-63 -192.5q0 -127 63.5 -203.5t175.5 -76.5t176 76.5t64 203.5z" />
    <glyph glyph-name="afii10033" unicode="&#x41f;" horiz-adv-x="748" 
d="M282 0h-236l-4 60l80 3v528l-81 3l4 56h658v-56l-77 -3v-529l80 -2l-4 -60h-236l-4 60l80 3v522h-336v-523l80 -2z" />
    <glyph glyph-name="afii10034" unicode="&#x420;" horiz-adv-x="580" 
d="M291 0h-245l-4 60l80 3v528l-81 3l4 56h254q243 0 243 -196q0 -47 -14 -85.5t-37.5 -64.5t-55 -43.5t-65.5 -25.5t-70 -8h-100v-172l94 -3zM285 589h-85v-303h84q75 0 123 39.5t48 123.5q0 140 -170 140z" />
    <glyph glyph-name="afii10035" unicode="&#x421;" horiz-adv-x="665" 
d="M593 429h-66l-6 121q-59 45 -133 45q-110 0 -178.5 -70.5t-68.5 -194.5q0 -126 68.5 -201t184.5 -75q63 0 117.5 26t78.5 52l23 25l32 -54q-3 -5 -9.5 -13t-29.5 -28t-50.5 -35.5t-73 -28t-95.5 -12.5q-158 0 -245 93.5t-87 250.5q0 152 90.5 242.5t230.5 90.5
q80 0 152 -49l14 40h51v-225z" />
    <glyph glyph-name="afii10036" unicode="&#x422;" horiz-adv-x="540" 
d="M60 494h-62l4 160l72 -4h396l72 4v-160h-62l-6 91h-162v-523l80 -2l-4 -60h-236l-4 60l80 3v522h-160z" />
    <glyph glyph-name="afii10037" unicode="&#x423;" horiz-adv-x="663" 
d="M219 594l-58 -3l208 -359l153 359l-60 1l4 58h220v-56l-78 -2l-195 -426q-47 -102 -101.5 -140.5t-136.5 -38.5q-24 0 -46 5t-32 10l-10 4h-1l-4 160l58 4l9 -114q16 -4 37 -4q41 0 73.5 21.5t66.5 82.5l-259 435l-89 3l4 56h237v-56z" />
    <glyph glyph-name="afii10038" unicode="&#x424;" horiz-adv-x="803" 
d="M522 0h-242l-4 53l87 3v62q-324 2 -324 224q0 116 81.5 162.5t242.5 47.5v62l-81 3l4 49h230v-49l-78 -3v-62q161 -1 243.5 -46.5t82.5 -161.5q0 -224 -326 -226v-62l88 -3zM678 342q0 89 -57.5 122.5t-182.5 34.5v-327q122 1 181 40t59 130zM125 340q0 -89 58 -128
t180 -40v327q-125 -1 -181.5 -35.5t-56.5 -123.5z" />
    <glyph glyph-name="afii10039" unicode="&#x425;" horiz-adv-x="696" 
d="M244 594l-47 -2l151 -208v-1l1 1l151 207l-48 1v58h235v-60l-98 -2l-191 -261l199 -266l101 -1l-3 -60h-240v56l45 1l-154 210l-154 -208l47 -1v-58h-237l-4 60l102 2l196 263l-195 266l-97 3l3 56h237v-56z" />
    <glyph glyph-name="afii10040" unicode="&#x426;" horiz-adv-x="757" 
d="M703 594l-77 -3v-526h88l-9 -227h-73l-8 162h-578l-4 60l80 3v528l-81 3l4 56h238v-56l-77 -3v-526h336v526l-81 3l4 56h238v-56z" />
    <glyph glyph-name="afii10041" unicode="&#x427;" horiz-adv-x="681" 
d="M250 594l-74 -3v-173q0 -66 32.5 -95t102.5 -29q84 0 163 36v261l-77 3l4 56h235v-56l-78 -3v-529l80 -2l-4 -60h-244l-4 60l88 3v204q-8 -5 -25.5 -13t-66 -18.5t-102.5 -10.5q-188 0 -188 179v187l-71 3l4 56h225v-56z" />
    <glyph glyph-name="afii10042" unicode="&#x428;" horiz-adv-x="1017" 
d="M614 594l-63 -3v-526h260v526l-67 3l4 56h225v-56l-78 -3v-529l80 -2l-3 -60h-926l-4 60l80 3v528l-81 3l4 56h224v-56l-63 -3v-526h261v526l-67 3l4 56h210v-56z" />
    <glyph glyph-name="afii10043" unicode="&#x429;" horiz-adv-x="1027" 
d="M973 594l-78 -3v-526h82l-8 -227h-73l-9 162h-841l-4 60l80 3v528l-81 3l4 56h224v-56l-63 -3v-526h261v526l-67 3l4 56h210v-56l-63 -3v-526h260v526l-67 3l4 56h225v-56z" />
    <glyph glyph-name="afii10044" unicode="&#x42a;" horiz-adv-x="729" 
d="M405 0h-261l-4 60l80 3v522h-152l-8 -91h-62l4 160l72 -4h308v-56l-78 -3v-202h94q277 0 277 -178q0 -97 -69 -154t-201 -57zM398 330h-94v-269h96q95 0 144.5 38t49.5 108q0 66 -49.5 94.5t-146.5 28.5z" />
    <glyph glyph-name="afii10045" unicode="&#x42b;" horiz-adv-x="915" 
d="M307 0h-261l-4 60l80 3v528l-81 3l4 56h239v-56l-78 -3v-202h94q277 0 277 -178q0 -97 -69 -154t-201 -57zM300 330h-94v-269h96q95 0 144.5 38t49.5 108q0 66 -49.5 94.5t-146.5 28.5zM869 0h-236l-4 60l80 3v528l-81 3l4 56h239v-60l-78 -3v-528l80 -3z" />
    <glyph glyph-name="afii10046" unicode="&#x42c;" horiz-adv-x="631" 
d="M307 0h-261l-4 60l80 3v528l-81 3l4 56h239v-56l-78 -3v-202h94q277 0 277 -178q0 -97 -69 -154t-201 -57zM300 330h-94v-269h96q95 0 144.5 38t49.5 108q0 66 -49.5 94.5t-146.5 28.5z" />
    <glyph glyph-name="afii10047" unicode="&#x42d;" horiz-adv-x="654" 
d="M14 90l33 53q3 -4 9.5 -9.5t28 -21t45 -27t60.5 -21t76 -9.5q105 0 169 59.5t74 173.5h-380v62h381q-8 247 -230 247q-80 0 -140 -46l-5 -53h-58l4 156h47l9 -41q81 50 155 50q150 0 228.5 -88t78.5 -245q0 -161 -88 -252.5t-242 -91.5q-51 0 -95.5 10.5t-72.5 26t-49 31
t-30 26.5z" />
    <glyph glyph-name="afii10048" unicode="&#x42e;" horiz-adv-x="1059" 
d="M282 0h-236l-4 60l80 3v528l-81 3l4 56h239v-52l-78 -3v-241h143q6 146 93 227.5t236 81.5q154 0 240.5 -87t86.5 -242q0 -157 -87.5 -252.5t-239.5 -95.5q-142 0 -228.5 82.5t-98.5 222.5h-145v-232l80 -3zM678 54q112 0 176 76.5t64 203.5q0 124 -63.5 192.5
t-176.5 68.5t-176.5 -68.5t-63.5 -192.5q0 -127 64 -203.5t176 -76.5z" />
    <glyph glyph-name="afii10049" unicode="&#x42f;" horiz-adv-x="641" 
d="M146 0h-125l-4 60l87 2l107 198q-63 18 -105.5 70t-42.5 128q0 93 63 142.5t152 49.5h318v-60l-78 -3v-528l80 -3l-4 -56h-231l-4 52l80 3v196h-158l-106 -210zM144 460q0 -62 41 -103t91 -41h163v272h-155q-54 0 -97 -33.5t-43 -94.5z" />
    <glyph glyph-name="afii10065" unicode="&#x430;" horiz-adv-x="536" 
d="M146 348h-61l3 157h51l7 -37q63 46 135 46q172 0 172 -182v-273l60 -3l-4 -56h-122l-12 64q-5 -10 -14 -19.5t-27 -24.5t-49 -24.5t-69 -9.5q-85 0 -130.5 37.5t-45.5 105.5q0 110 165 146q39 8 168 21v35q0 66 -25.5 95t-87.5 29q-65 0 -110 -42zM240 42q27 0 50.5 7
t37.5 16.5t25 21.5t14.5 18.5l5.5 10.5v127q-137 -10 -181 -26q-70 -24 -70 -80q0 -95 118 -95z" />
    <glyph glyph-name="afii10066" unicode="&#x431;" horiz-adv-x="582" 
d="M487 676l-25 1l-114 -11q-88 -8 -138.5 -38t-71.5 -79t-27 -133q60 97 192 97q117 0 178.5 -65t61.5 -188q0 -125 -65.5 -199.5t-182.5 -74.5q-125 0 -187 77.5t-62 216.5q0 58 2 100t9 89.5t19 81t32.5 67t50 55t71.5 37.5t96 22l105 13l8 37l56 -3zM130 272v-11
q0 -102 41 -159t124 -57q84 0 124.5 57t40.5 158q0 99 -40 147t-125 48q-83 0 -124 -49.5t-41 -133.5z" />
    <glyph glyph-name="afii10067" unicode="&#x432;" horiz-adv-x="541" 
d="M284 0h-243l-4 60l60 3v374l-59 3l3 60h247q106 0 148.5 -31t42.5 -93q0 -74 -89 -113q49 -12 80 -39t31 -70q0 -154 -217 -154zM297 236h-124v-181h110q139 0 139 105q0 76 -125 76zM173 277h131q4 0 10.5 1.5t23.5 7.5t30 14.5t23.5 26t10.5 39.5q0 40 -25.5 59.5
t-89.5 19.5h-114v-168z" />
    <glyph glyph-name="afii10068" unicode="&#x433;" horiz-adv-x="428" 
d="M237 0h-196l-4 60l60 3v374l-59 3l3 60h309l55 4l1 -172h-62l-5 105h-162v-378l64 -3z" />
    <glyph glyph-name="afii10069" unicode="&#x434;" horiz-adv-x="592" 
d="M74 -147h-55l-4 208h76q38 74 55 161.5t19 212.5l-83 3l3 62h414v-439h80l-5 -208h-62l-8 147h-423zM229 439q-3 -238 -66 -378h257v378h-191z" />
    <glyph glyph-name="afii10070" unicode="&#x435;" horiz-adv-x="518" 
d="M474 235h-356q4 -93 50 -140.5t125 -47.5q45 0 82.5 16.5t52.5 32.5l15 17l38 -41q-2 -3 -6.5 -9t-21.5 -21t-37 -26t-53.5 -20.5t-71.5 -9.5q-118 0 -185.5 69t-67.5 196q0 124 64.5 193.5t174.5 69.5q102 0 155.5 -54.5t53.5 -162.5q0 -16 -3 -31.5t-6 -23.5zM278 455
q-72 0 -112 -43t-47 -122h293q1 13 1 23q0 142 -135 142z" />
    <glyph glyph-name="afii10072" unicode="&#x436;" horiz-adv-x="793" 
d="M481 0h-172l-4 52l53 3v174h-73l-126 -191l-34 -38h-123v56l80 2l137 201l-110 179l-81 2l4 60h155v-55l89 -157h82v161l-54 3l4 48h128v-212h77l93 149l-27 1l5 62h180v-60l-73 -2l-114 -178l136 -202l82 -2l-4 -56h-123l-36 42l-121 187h-75v-178l49 -1z" />
    <glyph glyph-name="afii10073" unicode="&#x437;" horiz-adv-x="482" 
d="M116 360h-62l4 145h51l7 -33q62 42 125 42q80 0 125.5 -33t45.5 -91q0 -79 -77 -122q107 -24 107 -116q0 -70 -58.5 -118t-157.5 -48q-48 0 -87 8.5t-61 21t-37 25t-20 21.5l-5 8l31 47q2 -3 5.5 -7.5t18 -17t32.5 -22t50 -17t69 -7.5q64 0 103 31.5t39 73.5q0 37 -34 57
t-88 20l-84 -1v53h88q9 1 21 6t29 15t28 30t11 46q0 78 -108 78q-62 0 -108 -37z" />
    <glyph glyph-name="afii10074" unicode="&#x438;" horiz-adv-x="632" 
d="M591 0h-193v52l56 6v337l-302 -395h-59v437l-59 3l3 60h136v-378l287 378h134v-60l-59 -3v-378l60 -3z" />
    <glyph glyph-name="afii10075" unicode="&#x439;" horiz-adv-x="632" 
d="M318 628q39 0 64 15t31 29l6 15v1l72 -10q-1 -4 -3.5 -11t-14 -24.5t-28.5 -31t-50.5 -24.5t-76.5 -11q-42 0 -75.5 10.5t-50.5 25.5t-28.5 30t-14.5 26l-3 10l72 10v-1q1 -2 2 -6t8.5 -14.5t17 -18t29 -14t43.5 -6.5zM591 0h-193v52l56 6v337l-302 -395h-59v437l-59 3
l3 60h136v-378l287 378h134v-60l-59 -3v-378l60 -3z" />
    <glyph glyph-name="afii10076" unicode="&#x43a;" horiz-adv-x="551" 
d="M226 0h-185l-4 60l60 3v374l-67 3l4 60h143v-224l73 34l105 134l-31 2l3 54h187v-60l-87 -8l-124 -149l159 -218l91 -1l-4 -64h-123l-39 42l-151 203l-59 -27v-163l52 -3z" />
    <glyph glyph-name="afii10077" unicode="&#x43b;" horiz-adv-x="565" 
d="M528 0h-193l-3 60l59 3v374h-165q-5 -236 -63 -344t-161 -93v57q70 -7 109 83t44 295l-83 3l4 62h396v-441l60 -3z" />
    <glyph glyph-name="afii10078" unicode="&#x43c;" horiz-adv-x="780" 
d="M108 437l-63 3l4 60h166l176 -431l179 431h164v-60l-58 -3l6 -379l60 -2l-3 -56h-128l-5 371v39h-1l-176 -410h-77l-182 409v-9l-8 -343l56 -3l-4 -54h-174l-4 60l58 2l16 377z" />
    <glyph glyph-name="afii10079" unicode="&#x43d;" horiz-adv-x="620" 
d="M226 0h-185l-4 60l60 3v374l-59 3l3 60h136v-213h266v162l-51 3v48h186v-60l-55 -3v-378l60 -3l-4 -56h-136v228h-266v-177l52 -2z" />
    <glyph glyph-name="afii10080" unicode="&#x43e;" horiz-adv-x="573" 
d="M286 -14q-120 0 -184 71.5t-64 196.5q0 124 63.5 192t184.5 68t184.5 -68t63.5 -192t-65 -196t-183 -72zM286 45q84 0 124.5 54.5t40.5 153.5q0 202 -165 202t-165 -202q0 -98 41 -153t124 -55z" />
    <glyph glyph-name="afii10081" unicode="&#x43f;" horiz-adv-x="611" 
d="M571 0h-137v437h-257v-378l60 -3l-4 -56h-192l-4 60l60 3v374l-59 3l3 60h529v-60l-55 -3v-378l60 -3z" />
    <glyph glyph-name="afii10082" unicode="&#x440;" horiz-adv-x="600" 
d="M229 -250h-192l-4 60l60 3v624l-59 3l3 60h126l7 -56q54 70 167 70q104 0 164.5 -62t60.5 -178q0 -128 -61.5 -208t-174.5 -80q-48 0 -86 12t-52 24l-15 12v-225l60 -3zM309 452q-31 0 -57 -9t-42.5 -22.5t-24 -22t-12.5 -16.5v-290q6 -7 18 -15.5t42.5 -19t65.5 -10.5
q92 0 136 59.5t44 165.5q0 97 -42.5 138.5t-127.5 41.5z" />
    <glyph glyph-name="afii10083" unicode="&#x441;" horiz-adv-x="487" 
d="M458 335h-62l-5 71q-46 49 -108 49q-84 0 -123 -46.5t-39 -152.5q0 -105 45.5 -158t127.5 -53q41 0 77.5 15t52.5 30l15 15l36 -40q-2 -3 -6.5 -8.5t-20.5 -19t-36 -24t-53.5 -19t-71.5 -8.5q-121 0 -185 69.5t-64 199.5q0 127 60 193t173 66q63 0 124 -49l11 40h52v-170
z" />
    <glyph glyph-name="afii10084" unicode="&#x442;" horiz-adv-x="515" 
d="M492 332h-57l-3 105h-135v-378l60 -3l-3 -56h-193l-4 60l60 3v374h-132l-5 -105h-57l2 168v4l64 -4h341l64 4z" />
    <glyph glyph-name="afii10085" unicode="&#x443;" horiz-adv-x="527" 
d="M10 -243l8 55q35 -12 69 -12q70 0 145 200l-187 437l-71 3l4 60h130l166 -412h1l133 352l-53 2v58h193v-60l-66 -3l-175 -448q-99 -253 -210 -253q-32 0 -54 5.5t-27 10.5z" />
    <glyph glyph-name="afii10086" unicode="&#x444;" horiz-adv-x="695" 
d="M442 -250h-189l-4 60l60 3v173q-129 1 -200 75t-71 200q0 122 69.5 186.5t201.5 66.5v173l-59 3l4 60h132v-236q131 -2 201 -67t70 -187q0 -125 -71.5 -199t-199.5 -75v-177l59 -3zM578 260q0 99 -48 146t-144 49v-410q93 2 142.5 57.5t49.5 157.5zM117 261
q0 -102 49 -158t143 -58v410q-97 -2 -144.5 -48.5t-47.5 -145.5z" />
    <glyph glyph-name="afii10087" unicode="&#x445;" horiz-adv-x="573" 
d="M186 0h-184v60l86 2l145 193l-137 182l-88 3l4 60h129l146 -204h1l105 146l-30 1l4 57h187v-60l-79 -3l-136 -182l149 -197l86 -2l-3 -56h-122l-40 44l-124 168l-114 -154h19z" />
    <glyph glyph-name="afii10088" unicode="&#x446;" horiz-adv-x="608" 
d="M582 -147h-70l-1 147h-470l-4 60l60 3v374l-59 3l3 60h136v-437h257v374l-59 3l4 60h136v-437h71z" />
    <glyph glyph-name="afii10089" unicode="&#x447;" horiz-adv-x="542" 
d="M369 265v172l-59 3l4 60h136v-441l59 -3l-4 -56h-197l-3 56l64 2v157q-73 -29 -162 -29q-72 0 -111.5 38t-39.5 109v104l-59 3l3 60h138v-157q0 -47 24.5 -75.5t72.5 -28.5q36 0 69.5 6.5t49.5 12.5z" />
    <glyph glyph-name="afii10090" unicode="&#x448;" horiz-adv-x="839" 
d="M803 0h-762l-4 60l60 3v374l-59 3l3 60h133v-437h209v374l-58 3l4 60h131v-437h210v374l-58 3l4 60h131v-441l60 -3z" />
    <glyph glyph-name="afii10091" unicode="&#x449;" horiz-adv-x="840" 
d="M814 -147h-69l-1 147h-703l-4 60l60 3v374l-59 3l3 60h133v-437h209v374l-58 3l4 60h131v-437h210v374l-58 3l4 60h131v-437h72z" />
    <glyph glyph-name="afii10092" unicode="&#x44a;" horiz-adv-x="630" 
d="M142 0l-4 60l60 3v374h-111l-7 -101h-57l4 164v4l64 -4h244v-48l-57 -3v-134h95q228 0 228 -143q0 -84 -58.5 -128t-166.5 -44h-234zM372 261h-94v-206h96q69 0 106.5 29t37.5 86q0 53 -39.5 72t-106.5 19z" />
    <glyph glyph-name="afii10093" unicode="&#x44b;" horiz-adv-x="779" 
d="M738 0h-136v449l-51 3l3 48h183v-60l-55 -3v-378l60 -3zM41 0l-4 60l60 3v374l-59 3l3 60h136v-185h95q228 0 228 -143q0 -84 -58.5 -128t-166.5 -44h-234zM271 261h-94v-206h96q69 0 106.5 29t37.5 86q0 53 -39.5 72t-106.5 19z" />
    <glyph glyph-name="afii10094" unicode="&#x44c;" horiz-adv-x="529" 
d="M41 0l-4 60l60 3v374l-59 3l3 60h136v-185h95q228 0 228 -143q0 -84 -58.5 -128t-166.5 -44h-234zM271 261h-94v-206h96q69 0 106.5 29t37.5 86q0 53 -39.5 72t-106.5 19z" />
    <glyph glyph-name="afii10095" unicode="&#x44d;" horiz-adv-x="501" 
d="M23 59l29 44q5 -6 15 -16t48.5 -26t84.5 -16q81 0 127.5 46t55.5 131h-255v62h257q-7 171 -157 171q-64 0 -108 -36l-4 -55h-61l3 141h47l10 -33q57 42 123 42q100 0 162 -63.5t62 -178.5q0 -132 -69 -209t-184 -77q-40 0 -74 7.5t-53.5 18t-33.5 21.5t-20 19z" />
    <glyph glyph-name="afii10096" unicode="&#x44e;" horiz-adv-x="791" 
d="M226 0h-185l-4 60l60 3v374l-59 3l3 60h136v-213h97q14 227 237 227q242 0 242 -254q0 -127 -61 -200.5t-181 -73.5q-107 0 -167.5 64t-68.5 178h-98v-177l52 -2zM512 45q161 0 161 215q0 98 -37.5 147t-123.5 49q-85 0 -122.5 -49t-37.5 -147q0 -215 160 -215z" />
    <glyph glyph-name="afii10097" unicode="&#x44f;" horiz-adv-x="543" 
d="M502 0h-136v192h-124l-81 -150l-32 -42h-112l-4 60l78 2l80 143q-55 19 -90 58.5t-35 90.5q0 146 211 146h244v-60l-55 -3v-378l60 -3zM124 352q0 -49 35.5 -78t92.5 -28h114v199h-101q-73 0 -107 -21.5t-34 -71.5z" />
    <glyph glyph-name="uni0450" unicode="&#x450;" horiz-adv-x="518" 
d="M474 235h-356q4 -93 50 -140.5t125 -47.5q45 0 82.5 16.5t52.5 32.5l15 17l38 -41q-2 -3 -6.5 -9t-21.5 -21t-37 -26t-53.5 -20.5t-71.5 -9.5q-118 0 -185.5 69t-67.5 196q0 124 64.5 193.5t174.5 69.5q102 0 155.5 -54.5t53.5 -162.5q0 -16 -3 -31.5t-6 -23.5zM278 455
q-72 0 -112 -43t-47 -122h293q1 13 1 23q0 142 -135 142zM320 577l-57 -5l-116 139l77 9z" />
    <glyph glyph-name="afii10071" unicode="&#x451;" horiz-adv-x="518" 
d="M474 235h-356q4 -93 50 -140.5t125 -47.5q45 0 82.5 16.5t52.5 32.5l15 17l38 -41q-2 -3 -6.5 -9t-21.5 -21t-37 -26t-53.5 -20.5t-71.5 -9.5q-118 0 -185.5 69t-67.5 196q0 124 64.5 193.5t174.5 69.5q102 0 155.5 -54.5t53.5 -162.5q0 -16 -3 -31.5t-6 -23.5zM278 455
q-72 0 -112 -43t-47 -122h293q1 13 1 23q0 142 -135 142zM377 614q-13 -10 -30 -10q-19 0 -30 10q-13 12 -13 30q0 19 13 31q13 10 30 10q15 0 30 -10q13 -13 13 -31q0 -17 -13 -30zM199 614q-11 -10 -30 -10q-18 0 -29 10q-13 12 -13 30q0 19 13 31q13 10 29 10
q17 0 30 -10q13 -13 13 -31q0 -17 -13 -30z" />
    <glyph glyph-name="afii10099" unicode="&#x452;" horiz-adv-x="599" 
d="M520 -43q0 -103 -46 -156.5t-110 -53.5q-38 0 -71 18l21 63q18 -8 35 -8q36 0 62.5 31t28.5 97v304q0 54 -35.5 83t-95.5 29q-44 0 -78 -14t-46 -28l-12 -14v-249l60 -3l-4 -56h-192l-4 60l60 3v489h-62v53l62 2v84l-59 3l3 56h86l-1 -1l51 1v-143h206v-55h-206v-178h1
l3 3q3 3 9 8.5t15 11.5t22.5 12t29.5 11.5t37.5 8.5t45.5 3q85 0 134.5 -42.5t49.5 -122.5v-310z" />
    <glyph glyph-name="afii10100" unicode="&#x453;" horiz-adv-x="428" 
d="M237 0h-196l-4 60l60 3v374l-59 3l3 60h309l55 4l1 -172h-62l-5 105h-162v-378l64 -3zM240 572l-57 4l95 143l77 -8z" />
    <glyph glyph-name="afii10101" unicode="&#x454;" horiz-adv-x="496" 
d="M456 368h-61l-5 48q-44 38 -106 38q-83 0 -121 -41t-42 -136l254 1v-63l-252 1q16 -169 172 -169q44 0 82 12.5t54 25.5l16 13l24 -45q-2 -3 -6.5 -7.5t-21 -16t-36 -20.5t-53.5 -16t-73 -7q-119 0 -181 70t-62 200q0 125 62 191.5t174 66.5q62 0 122 -41l9 32h51v-137z
" />
    <glyph glyph-name="afii10102" unicode="&#x455;" horiz-adv-x="469" 
d="M409 367h-54l-6 49q-47 41 -105 41q-47 0 -76 -19t-29 -52q0 -34 30.5 -55.5t74.5 -34.5t87.5 -28t74 -46t30.5 -78q0 -69 -52.5 -113.5t-162.5 -44.5q-47 0 -88 6.5t-59 13.5l-18 6l-7 127l50 4l6 -83q57 -17 114 -17q67 0 101 26.5t34 65.5q0 34 -30.5 55t-74 33
t-86.5 26.5t-73.5 46t-30.5 81.5q0 62 49 99.5t124 37.5q66 0 125 -43l11 34h41v-138z" />
    <glyph glyph-name="afii10103" unicode="&#x456;" horiz-adv-x="270" 
d="M233 0h-192l-4 60l60 3v374l-59 3l3 60h136v-441l60 -3zM172 609q-13 -10 -35 -10q-24 0 -36 11q-14 11 -14 34q0 22 14 35q14 11 35 11q20 0 36 -11q14 -14 14 -35t-14 -35z" />
    <glyph glyph-name="afii10104" unicode="&#x457;" horiz-adv-x="270" 
d="M233 0h-192l-4 60l60 3v374l-59 3l3 60h136v-441l60 -3zM255 614q-13 -10 -30 -10q-19 0 -30 10q-13 12 -13 30q0 19 13 31q13 10 30 10q15 0 30 -10q13 -13 13 -31q0 -17 -13 -30zM77 614q-11 -10 -30 -10q-18 0 -29 10q-13 12 -13 30q0 19 13 31q13 10 29 10
q17 0 30 -10q13 -13 13 -31q0 -17 -13 -30z" />
    <glyph glyph-name="afii10105" unicode="&#x458;" horiz-adv-x="266" 
d="M-65 -246l21 64q23 -10 59 -10q35 0 60.5 41t25.5 116v472l-58 3l4 60h134v-535q0 -112 -46.5 -170.5t-110.5 -58.5q-31 0 -53.5 4.5t-28.5 9.5zM177 609q-13 -10 -35 -10q-24 0 -36 11q-14 11 -14 34q0 22 14 35q14 11 35 11q20 0 36 -11q14 -14 14 -35t-14 -35z" />
    <glyph glyph-name="afii10106" unicode="&#x459;" horiz-adv-x="824" 
d="M336 0l-4 60l59 3v374h-165q-5 -236 -63 -344t-161 -93v57q70 -7 109 83t44 295l-83 3l4 62h396v-185h95q228 0 228 -143q0 -84 -58.5 -128t-166.5 -44h-234zM566 261h-94v-206h96q69 0 106.5 29t37.5 86q0 53 -39.5 72t-106.5 19z" />
    <glyph glyph-name="afii10107" unicode="&#x45a;" horiz-adv-x="875" 
d="M578 452l-55 -3v-134h95q228 0 228 -143q0 -84 -58.5 -128t-166.5 -44h-178v228h-266v-177l52 -2l-3 -49h-185l-4 60l60 3v374l-59 3l3 60h136v-213h266v162l-51 3v48h186v-48zM617 261h-94v-206h96q69 0 106.5 29t37.5 86q0 53 -39.5 72t-106.5 19z" />
    <glyph glyph-name="afii10108" unicode="&#x45b;" horiz-adv-x="603" 
d="M229 0h-192l-4 60l60 3v489h-62v53l62 2v84l-59 3l3 56h86l-1 -1l51 1v-143h206v-55h-206v-178h1l3 3q3 3 9 8.5t15 11.5t22.5 12t29.5 11.5t37.5 8.5t45.5 3q85 0 134.5 -42.5t49.5 -122.5v-208l60 -3l-4 -56h-136v252q0 54 -35.5 83t-95.5 29q-44 0 -78 -14t-46 -28
l-12 -14v-249l60 -3z" />
    <glyph glyph-name="afii10109" unicode="&#x45c;" horiz-adv-x="551" 
d="M226 0h-185l-4 60l60 3v374l-67 3l4 60h143v-224l73 34l105 134l-31 2l3 54h187v-60l-87 -8l-124 -149l159 -218l91 -1l-4 -64h-123l-39 42l-151 203l-59 -27v-163l52 -3zM305 572l-57 4l95 143l77 -8z" />
    <glyph glyph-name="uni045D" unicode="&#x45d;" horiz-adv-x="632" 
d="M591 0h-193v52l56 6v337l-302 -395h-59v437l-59 3l3 60h136v-378l287 378h134v-60l-59 -3v-378l60 -3zM349 577l-57 -5l-116 139l77 9z" />
    <glyph glyph-name="afii10110" unicode="&#x45e;" horiz-adv-x="527" 
d="M269 628q39 0 64 15t31 29l6 15v1l72 -10q-1 -4 -3.5 -11t-14 -24.5t-28.5 -31t-50.5 -24.5t-76.5 -11q-42 0 -75.5 10.5t-50.5 25.5t-28.5 30t-14.5 26l-3 10l72 10v-1q1 -2 2 -6t8.5 -14.5t17 -18t29 -14t43.5 -6.5zM10 -243l8 55q35 -12 69 -12q70 0 145 200l-187 437
l-71 3l4 60h130l166 -412h1l133 352l-53 2v58h193v-60l-66 -3l-175 -448q-99 -253 -210 -253q-32 0 -54 5.5t-27 10.5z" />
    <glyph glyph-name="afii10193" unicode="&#x45f;" horiz-adv-x="627" 
d="M352 -147h-70v147h-241l-4 60l60 3v374l-59 3l3 60h136v-437h277v386l-51 3l4 48h127v-441l60 -3l-4 -56h-235z" />
    <glyph glyph-name="afii10146" unicode="&#x462;" horiz-adv-x="701" 
d="M353 662l-78 -2v-49h1v-7h187l68 4v-135h-62l-3 66h-190v-150h93q277 0 277 -178q0 -98 -68.5 -154.5t-201.5 -56.5h-261l-3 60l79 3v476h-124l-8 -82h-65l4 151l76 -4h117v56l-80 2l4 38h238v-38zM369 330h-93v-269h95q95 0 144.5 38t49.5 108q0 66 -49.5 94.5
t-146.5 28.5z" />
    <glyph glyph-name="afii10194" unicode="&#x463;" horiz-adv-x="609" 
d="M71 360h-50l4 140v4l56 -4h95v100h80v-100h146l60 4v-113h-53l-4 56h-148v-10h-1v-122h95q228 0 228 -143q0 -84 -58.5 -128t-166.5 -44h-234l-4 60l60 3v374h-100zM350 261h-94v-206h96q69 0 107 29t38 86q0 36 -22.5 57.5t-52 27.5t-72.5 6z" />
    <glyph glyph-name="afii10050" unicode="&#x490;" horiz-adv-x="460" 
d="M292 0h-246l-4 60l80 3v528l-81 3l4 56h344l1 100h64l4 -165h-252v-526l90 -3z" />
    <glyph glyph-name="afii10098" unicode="&#x491;" horiz-adv-x="393" 
d="M233 0h-192l-4 60l60 3v374l-59 3l3 60h286v128h62l4 -191h-216v-378l60 -3z" />
    <glyph glyph-name="uni1E9E" unicode="&#x1e9e;" horiz-adv-x="737" 
d="M421 304l-65 24l133 253h-126q-175 -4 -175 -156v-425h-161l-4 56l81 3v379q0 98 67 155t200 57h205l3 -45l-120 -228q18 2 29 2q92 0 143 -46.5t51 -129.5q0 -96 -68 -156.5t-174 -60.5q-52 0 -88.5 5t-46.5 10l-10 5l-4 124l54 4l7 -73q32 -7 82 -7q76 0 121 42t45 107
q0 118 -126 118q-37 0 -53 -16v-1z" />
    <glyph glyph-name="uni2002" unicode="&#x2002;" horiz-adv-x="497" 
 />
    <glyph glyph-name="uni2003" unicode="&#x2003;" horiz-adv-x="995" 
 />
    <glyph glyph-name="uni2004" unicode="&#x2004;" horiz-adv-x="331" 
 />
    <glyph glyph-name="uni2005" unicode="&#x2005;" horiz-adv-x="249" 
 />
    <glyph glyph-name="uni2009" unicode="&#x2009;" horiz-adv-x="199" 
 />
    <glyph glyph-name="uni200A" unicode="&#x200a;" horiz-adv-x="40" 
 />
    <glyph glyph-name="uni2011" unicode="&#x2011;" horiz-adv-x="341" 
d="M303 247h-264v61h264v-61z" />
    <glyph glyph-name="endash" unicode="&#x2013;" horiz-adv-x="543" 
d="M504 247h-465v61h465v-61z" />
    <glyph glyph-name="emdash" unicode="&#x2014;" horiz-adv-x="722" 
d="M684 247h-645v61h645v-61z" />
    <glyph glyph-name="afii00208" unicode="&#x2015;" horiz-adv-x="722" 
d="M684 247h-645v61h645v-61z" />
    <glyph glyph-name="quoteleft" unicode="&#x2018;" horiz-adv-x="164" 
d="M126 758l28 -26q-36 -29 -57 -73.5t-19 -81.5q14 0 27 -10q13 -12 13 -30q0 -17 -13 -29q-14 -11 -31 -11t-30 11l-6 6q-4 6 -5 9q-8 15 -8 41q0 48 29 106t72 88z" />
    <glyph glyph-name="quoteright" unicode="&#x2019;" horiz-adv-x="171" 
d="M34 492l-29 26q37 28 57.5 72.5t18.5 81.5q-18 2 -27 11q-14 12 -14 29q0 18 14 30q11 10 30 10q18 0 31 -10q4 -4 5 -6q14 -17 14 -51q0 -49 -28.5 -106t-71.5 -87z" />
    <glyph glyph-name="quotesinglbase" unicode="&#x201a;" horiz-adv-x="171" 
d="M34 -163l-29 26q37 28 57.5 72.5t18.5 81.5q-18 2 -27 11q-14 12 -14 29q0 18 14 30q11 10 30 10q18 0 31 -10q4 -4 5 -6q14 -17 14 -50q0 -49 -28.5 -106t-71.5 -88z" />
    <glyph glyph-name="quotedblleft" unicode="&#x201c;" horiz-adv-x="335" 
d="M126 758l28 -26q-36 -29 -57 -73.5t-19 -81.5q14 0 27 -10q13 -12 13 -30q0 -17 -13 -29q-14 -11 -31 -11t-30 11l-6 6q-4 6 -5 9q-8 15 -8 41q0 48 29 106t72 88zM297 758l28 -26q-36 -29 -57 -73.5t-19 -81.5q14 0 27 -10q13 -12 13 -30q0 -17 -13 -29q-14 -11 -31 -11
t-30 11l-6 6q-4 6 -5 9q-8 15 -8 41q0 48 29 106t72 88z" />
    <glyph glyph-name="quotedblright" unicode="&#x201d;" horiz-adv-x="342" 
d="M34 492l-29 26q37 28 57.5 72.5t18.5 81.5q-18 2 -27 11q-14 12 -14 29q0 18 14 30q11 10 30 10q18 0 31 -10q4 -4 5 -6q14 -17 14 -51q0 -49 -28.5 -106t-71.5 -87zM205 492l-29 26q37 28 57.5 72.5t18.5 81.5q-18 2 -27 11q-14 12 -14 29q0 18 14 30q11 10 30 10
q18 0 31 -10q4 -4 5 -6q14 -17 14 -51q0 -49 -28.5 -106t-71.5 -87z" />
    <glyph glyph-name="quotedblbase" unicode="&#x201e;" horiz-adv-x="342" 
d="M34 -163l-29 26q37 28 57.5 72.5t18.5 81.5q-18 2 -27 11q-14 12 -14 29q0 18 14 30q11 10 30 10q18 0 31 -10q4 -4 5 -6q14 -17 14 -50q0 -49 -28.5 -106t-71.5 -88zM205 -163l-29 26q37 28 57.5 72.5t18.5 81.5q-18 2 -27 11q-14 12 -14 29q0 18 14 30q11 10 30 10
q18 0 31 -10q4 -4 5 -6q14 -17 14 -50q0 -49 -28.5 -106t-71.5 -88z" />
    <glyph glyph-name="dagger" unicode="&#x2020;" horiz-adv-x="516" 
d="M454 371h-157v-621h-78l1 621h-160v61h166l-1 218h66l-1 -218h164v-61z" />
    <glyph glyph-name="daggerdbl" unicode="&#x2021;" horiz-adv-x="516" 
d="M454 418h-164l-1 -218v-218h165v-61h-165l1 -171h-65v171h-165v61h166l-1 218v218h-165v61h163v171h68l-1 -171h164v-61z" />
    <glyph glyph-name="bullet" unicode="&#x2022;" horiz-adv-x="341" 
d="M226 263q-24 -20 -61 -20q-36 0 -60 20q-26 22 -26 58q0 37 26 59q26 20 60 20q35 0 61 -20q25 -22 25 -59q0 -36 -25 -58z" />
    <glyph glyph-name="ellipsis" unicode="&#x2026;" horiz-adv-x="762" 
d="M172 3q-15 -12 -35 -12q-21 0 -35 12q-16 13 -16 34t16 34q14 12 35 12q20 0 35 -12q16 -14 16 -34t-16 -34zM414 3q-15 -12 -35 -12q-21 0 -35 12q-16 13 -16 34t16 34q14 12 35 12q20 0 35 -12q16 -14 16 -34t-16 -34zM657 3q-15 -12 -35 -12q-22 0 -35 12
q-16 13 -16 34t16 34q13 12 35 12q20 0 35 -12q16 -14 16 -34t-16 -34z" />
    <glyph glyph-name="perthousand" unicode="&#x2030;" horiz-adv-x="1357" 
d="M328 2l-62 10l330 629l62 -10zM237 286q-87 0 -134.5 51t-47.5 137t48.5 137.5t133.5 51.5q84 0 133.5 -52t49.5 -137q0 -86 -48.5 -137t-134.5 -51zM237 343q55 0 86 36t31 96t-31 95.5t-86 35.5t-85.5 -35.5t-30.5 -95.5q0 -61 30 -96.5t86 -35.5zM693 -14
q-87 0 -134.5 51t-47.5 137t48.5 137.5t133.5 51.5q84 0 133.5 -52t49.5 -137q0 -86 -48.5 -137t-134.5 -51zM693 43q55 0 86 36t31 96t-31 95.5t-86 35.5t-85.5 -35.5t-30.5 -95.5q0 -61 30 -96.5t86 -35.5zM1119 -14q-87 0 -134.5 51t-47.5 137t48.5 137.5t133.5 51.5
q84 0 133.5 -52t49.5 -137q0 -86 -48.5 -137t-134.5 -51zM1119 43q55 0 86 36t31 96t-31 95.5t-86 35.5t-85.5 -35.5t-30.5 -95.5q0 -61 30 -96.5t86 -35.5z" />
    <glyph glyph-name="guilsinglleft" unicode="&#x2039;" horiz-adv-x="372" 
d="M302 384l-133 -135l133 -137l-34 -38l-172 176l172 171z" />
    <glyph glyph-name="guilsinglright" unicode="&#x203a;" horiz-adv-x="372" 
d="M275 244l-172 -170l-34 37l133 133l-132 138l33 39z" />
    <glyph glyph-name="fraction" unicode="&#x2044;" horiz-adv-x="450" 
d="M121 -4l-50 28l352 561l50 -27z" />
    <glyph glyph-name="zerosuperior" unicode="&#x2070;" 
d="M233 219q-96 0 -144 71t-48 199q0 129 48 200.5t144 71.5q97 0 145 -71.5t48 -200.5q0 -128 -48 -199t-145 -71zM233 275q118 0 118 214q0 216 -118 216q-117 0 -117 -216q0 -214 117 -214z" />
    <glyph glyph-name="foursuperior" unicode="&#x2074;" 
d="M406 230h-165l-3 51l52 2v90h-250l-5 45q88 159 137 340l70 -8q-46 -159 -129 -321h177v161l11 84h63v-245h63v-52l-63 -4v-89l45 -3z" />
    <glyph glyph-name="fivesuperior" unicode="&#x2075;" 
d="M67 243l-4 104l50 3l7 -63q33 -11 83 -11q63 0 100.5 32.5t37.5 84.5q0 45 -35.5 75.5t-92.5 30.5q-22 0 -41.5 -4.5t-28.5 -8.5t-12 -7l-37 5l27 266h216l5 28l50 -3l-3 -90l-62 3h-151l-15 -142q32 6 54 6q90 0 143.5 -43.5t53.5 -116.5q0 -82 -60 -128t-154 -46
q-45 0 -78 6t-43 12z" />
    <glyph glyph-name="sixsuperior" unicode="&#x2076;" 
d="M373 633h-52l-4 43q-29 29 -71 29q-114 0 -123 -186q56 40 124 40q80 0 127.5 -43.5t47.5 -117.5q0 -78 -47 -128.5t-134 -50.5q-89 0 -139 55t-50 158q0 29 3 62q9 133 57 200t124 67q43 0 86 -32l8 24h43v-120zM238 510q-71 0 -104 -50q-8 -21 -8 -49q0 -67 29 -103.5
t86 -36.5q54 0 81 37.5t27 90.5q0 47 -28.5 79t-82.5 32z" />
    <glyph glyph-name="sevensuperior" unicode="&#x2077;" horiz-adv-x="468" 
d="M426 690q-63 -98 -121 -222.5t-89 -237.5h-84q55 202 207 455h-228l-5 -62h-52l3 130l60 -3h309v-60z" />
    <glyph glyph-name="eightsuperior" unicode="&#x2078;" 
d="M408 621q0 -88 -98 -125q109 -31 109 -133q0 -144 -186 -144t-186 146q0 89 105 130q-94 34 -94 128q0 64 48 101t127 37q80 0 127.5 -37.5t47.5 -102.5zM342 367q0 28 -12 49.5t-32 32t-36.5 15.5t-33.5 7q-15 -2 -30 -7.5t-33.5 -16.5t-29.5 -31.5t-11 -47.5
q0 -49 29.5 -75t79.5 -26q51 0 80 25.5t29 74.5zM132 619q0 -29 11.5 -50t30 -31t34 -15t31.5 -6q96 15 96 101q0 45 -27 69.5t-75 24.5q-47 0 -74 -24.5t-27 -68.5z" />
    <glyph glyph-name="ninesuperior" unicode="&#x2079;" 
d="M203 275q59 0 98 49t43 138q-44 -51 -124 -51q-81 0 -128 43t-47 119q0 78 50 133t136 55q90 0 136.5 -55t46.5 -159q0 -10 -0.5 -32.5t-0.5 -25.5q-7 -133 -64.5 -201.5t-145.5 -68.5q-35 0 -66 3.5t-44 7.5l-13 4l-4 113l49 3l8 -69q27 -6 70 -6zM229 461q67 0 106 50
q6 18 6 58q0 139 -110 139q-54 0 -83.5 -40t-29.5 -92q0 -48 28.5 -81.5t82.5 -33.5z" />
    <glyph glyph-name="zerosub" unicode="&#x2080;" 
d="M233 -276q-96 0 -144 71t-48 199q0 129 48 200.5t144 71.5q97 0 145 -71.5t48 -200.5q0 -128 -48 -199t-145 -71zM233 -220q118 0 118 214q0 216 -118 216q-117 0 -117 -216q0 -214 117 -214z" />
    <glyph glyph-name="onesub" unicode="&#x2081;" 
d="M236 255h62v-463l95 -2l-3 -55h-270l-4 55l109 5v389l-114 -55l-22 53z" />
    <glyph glyph-name="twosub" unicode="&#x2082;" 
d="M115 129h-53l4 129h43l8 -35q54 43 115 43q82 0 123.5 -42t41.5 -110q0 -136 -252 -316h212l7 60l52 -4l-4 -119h-361v61q3 2 29 21t66 54t78 74t65 83.5t27 79.5q0 49 -24 73.5t-80 24.5t-94 -41z" />
    <glyph glyph-name="threesub" unicode="&#x2083;" 
d="M389 212l-154 -176q4 1 12 1q72 0 117.5 -41.5t45.5 -108.5q0 -77 -61 -120.5t-158 -43.5q-41 0 -73 6.5t-44 12.5l-11 6l-3 104l50 3l7 -64q36 -10 78 -10q68 0 105.5 29.5t37.5 77.5q0 43 -28.5 69.5t-79.5 26.5q-16 0 -30 -4.5t-20 -9.5l-7 -4l-33 36l164 192h-180
l-6 -64h-51l3 128l60 -3h259v-43z" />
    <glyph glyph-name="foursub" unicode="&#x2084;" 
d="M406 -265h-165l-3 51l52 2v90h-250l-5 45q88 159 137 340l70 -8q-46 -159 -129 -321h177v161l11 84h63v-245h63v-52l-63 -4v-89l45 -3z" />
    <glyph glyph-name="fivesub" unicode="&#x2085;" 
d="M67 -252l-4 104l50 3l7 -63q33 -11 83 -11q63 0 100.5 32.5t37.5 84.5q0 45 -35.5 75.5t-92.5 30.5q-22 0 -41.5 -4.5t-28.5 -8.5t-12 -7l-37 5l27 266h216l5 28l50 -3l-3 -90l-62 3h-151l-15 -142q32 6 54 6q90 0 143.5 -43.5t53.5 -116.5q0 -82 -60 -128t-154 -46
q-45 0 -78 6.5t-43 12.5z" />
    <glyph glyph-name="sixsub" unicode="&#x2086;" 
d="M373 138h-52l-4 43q-29 29 -71 29q-114 0 -123 -186q56 40 124 40q80 0 127.5 -43.5t47.5 -117.5q0 -78 -47 -128.5t-134 -50.5q-89 0 -139 55t-50 158q0 29 3 62q9 133 57 200t124 67q43 0 86 -32l8 24h43v-120zM238 15q-71 0 -104 -50q-8 -21 -8 -49q0 -67 29 -103.5
t86 -36.5q54 0 81 37.5t27 90.5q0 47 -28.5 79t-82.5 32z" />
    <glyph glyph-name="sevensub" unicode="&#x2087;" horiz-adv-x="468" 
d="M426 195q-63 -98 -121 -222.5t-89 -237.5h-84q55 201 207 455h-228l-5 -62h-52l3 130l60 -3h309v-60z" />
    <glyph glyph-name="eightsub" unicode="&#x2088;" 
d="M408 126q0 -88 -98 -125q109 -31 109 -133q0 -144 -186 -144t-186 146q0 91 105 130q-94 34 -94 128q0 64 48 101t127 37q80 0 127.5 -37.5t47.5 -102.5zM342 -128q0 29 -12 50t-32 31.5t-36.5 15.5t-33.5 7q-16 -2 -30.5 -7.5t-33 -16t-29.5 -31t-11 -48.5
q0 -49 29.5 -75t79.5 -26q51 0 80 25.5t29 74.5zM132 124q0 -29 11.5 -50t30 -31t34 -15t31.5 -6q96 15 96 101q0 45 -27 69.5t-75 24.5q-47 0 -74 -24.5t-27 -68.5z" />
    <glyph glyph-name="ninesub" unicode="&#x2089;" 
d="M203 -220q59 0 98 49t43 139q-43 -52 -124 -52t-128 43t-47 119q0 78 50 133t136 55q90 0 136.5 -55t46.5 -159q0 -10 -0.5 -32.5t-0.5 -25.5q-7 -133 -64.5 -201.5t-145.5 -68.5q-35 0 -66 4t-44 8l-13 3l-4 113l49 3l8 -68q31 -7 70 -7zM229 -34q65 0 106 50q6 18 6 58
q0 139 -110 139q-54 0 -83.5 -40t-29.5 -92q0 -48 28.5 -81.5t82.5 -33.5z" />
    <glyph glyph-name="Euro" unicode="&#x20ac;" horiz-adv-x="663" 
d="M498 217h-287q38 -170 219 -170q35 0 67.5 8t54 20t38 24t24.5 20l7 8l26 -44q-3 -4 -8.5 -10.5t-26 -23t-44.5 -29.5t-64 -23.5t-85 -10.5q-245 0 -292 232l-74 2v51h66q-2 38 -2 59v31l-64 2v52h70q17 118 85 183t180 65q84 0 151 -50l10 42h47v-142h-58l-4 39
q-50 50 -134 50q-167 0 -195 -187h293v-55h-298v-30q0 -41 2 -59h296v-54z" />
    <glyph glyph-name="uni20B4" unicode="&#x20b4;" horiz-adv-x="551" 
d="M490 235h-278q-34 -40 -34 -84q0 -102 123 -102q65 0 108 15l6 95l57 -4l-4 -133q-5 -4 -16 -10t-55.5 -16t-101.5 -10q-191 0 -191 150q0 52 37 99l-71 4v43h115q21 19 64.5 51.5l54.5 40.5h-234v47h284q35 40 35 80q0 99 -111 99q-63 0 -102 -47l-4 -50h-54l3 151h47
l5 -42q55 51 124 51q83 0 124 -41.5t41 -103.5q0 -53 -36 -99l64 -3v-42h-108q-22 -19 -65 -50.5l-56 -41.5h229v-47z" />
    <glyph glyph-name="afii61352" unicode="&#x2116;" horiz-adv-x="1272" 
d="M674 -6h-88l-389 537h-1l4 -31v-440l81 -2l-4 -58h-231l-4 60l80 3v528l-81 3l4 56h165l387 -544l-2 23v461l-81 2l3 58h234v-60l-77 -3v-593zM1017 310q-99 0 -149.5 49t-50.5 136t50.5 136t149.5 49t150 -49t51 -136t-51.5 -136t-149.5 -49zM1017 355q126 0 126 140
q0 138 -126 138t-126 -138q0 -140 126 -140zM1148 119h-264v61h264v-61z" />
    <glyph glyph-name="trademark" unicode="&#x2122;" horiz-adv-x="873" 
d="M465 400h-48l22 350h54l119 -300l134 300h49l12 -350h-48l-10 261l-117 -261h-43l-115 272zM245 400h-50v304h-129v46h327v-46h-148v-304z" />
    <glyph glyph-name="onethird" unicode="&#x2153;" horiz-adv-x="968" 
d="M236 750h62v-463l95 -2l-3 -55h-270l-4 55l109 5v389l-114 -55l-22 53zM358 -4l-50 28l352 561l50 -27zM891 212l-154 -176q4 1 12 1q72 0 117.5 -41.5t45.5 -108.5q0 -77 -61 -120.5t-158 -43.5q-41 0 -73 6.5t-44 12.5l-11 6l-3 104l50 3l7 -64q36 -10 78 -10
q68 0 105.5 29.5t37.5 77.5q0 43 -28.5 69.5t-79.5 26.5q-16 0 -30 -4.5t-20 -9.5l-7 -4l-33 36l164 192h-180l-6 -64h-51l3 128l60 -3h259v-43z" />
    <glyph glyph-name="twothirds" unicode="&#x2154;" horiz-adv-x="993" 
d="M115 624h-53l4 129h43l8 -35q54 43 115 43q82 0 123.5 -42t41.5 -110q0 -42 -25 -89.5t-67 -90t-80 -75t-80 -61.5h212l7 60l52 -4l-4 -119h-361v61q3 2 29 21t66 54t78 74t65 83.5t27 79.5q0 49 -24 73.5t-80 24.5t-94 -41zM384 -4l-50 28l352 561l50 -27zM915 212
l-154 -176q4 1 12 1q72 0 117.5 -41.5t45.5 -108.5q0 -77 -61 -120.5t-158 -43.5q-41 0 -73 6.5t-44 12.5l-11 6l-3 104l50 3l7 -64q36 -10 78 -10q68 0 105.5 29.5t37.5 77.5q0 43 -28.5 69.5t-79.5 26.5q-16 0 -30 -4.5t-20 -9.5l-7 -4l-33 36l164 192h-180l-6 -64h-51
l3 128l60 -3h259v-43z" />
    <glyph glyph-name="oneeighth" unicode="&#x215b;" horiz-adv-x="968" 
d="M236 750h62v-463l95 -2l-3 -55h-270l-4 55l109 5v389l-114 -55l-22 53zM358 -4l-50 28l352 561l50 -27zM910 126q0 -88 -98 -125q109 -31 109 -133q0 -144 -186 -144t-186 146q0 91 105 130q-94 34 -94 128q0 64 48 101t127 37q80 0 127.5 -37.5t47.5 -102.5zM844 -128
q0 29 -12 50t-32 31.5t-36.5 15.5t-33.5 7q-16 -2 -30.5 -7.5t-33 -16t-29.5 -31t-11 -48.5q0 -49 29.5 -75t79.5 -26q51 0 80 25.5t29 74.5zM634 124q0 -29 11.5 -50t30 -31t34 -15t31.5 -6q96 15 96 101q0 45 -27 69.5t-75 24.5q-47 0 -74 -24.5t-27 -68.5z" />
    <glyph glyph-name="threeeighths" unicode="&#x215c;" horiz-adv-x="969" 
d="M389 707l-154 -176q4 1 12 1q72 0 117.5 -41.5t45.5 -108.5q0 -77 -61 -120.5t-158 -43.5q-41 0 -73 6t-44 12l-11 7l-3 104l50 3l7 -64q30 -10 78 -10q68 0 105.5 29.5t37.5 77.5q0 43 -28.5 69.5t-79.5 26.5q-16 0 -30 -4.5t-20 -8.5l-7 -5l-33 36l164 192h-180l-6 -64
h-51l3 128l60 -3h259v-43zM360 -4l-50 28l352 561l50 -27zM910 126q0 -88 -98 -125q109 -31 109 -133q0 -144 -186 -144t-186 146q0 91 105 130q-94 34 -94 128q0 64 48 101t127 37q80 0 127.5 -37.5t47.5 -102.5zM844 -128q0 29 -12 50t-32 31.5t-36.5 15.5t-33.5 7
q-16 -2 -30.5 -7.5t-33 -16t-29.5 -31t-11 -48.5q0 -49 29.5 -75t79.5 -26q51 0 80 25.5t29 74.5zM634 124q0 -29 11.5 -50t30 -31t34 -15t31.5 -6q96 15 96 101q0 45 -27 69.5t-75 24.5q-47 0 -74 -24.5t-27 -68.5z" />
    <glyph glyph-name="fiveeighths" unicode="&#x215d;" horiz-adv-x="958" 
d="M67 243l-4 104l50 3l7 -63q33 -11 83 -11q63 0 100.5 32.5t37.5 84.5q0 45 -35.5 75.5t-92.5 30.5q-22 0 -41.5 -4.5t-28.5 -8.5t-12 -7l-37 5l27 266h216l5 28l50 -3l-3 -90l-62 3h-151l-15 -142q32 6 54 6q90 0 143.5 -43.5t53.5 -116.5q0 -82 -60 -128t-154 -46
q-45 0 -78 6t-43 12zM349 -4l-50 28l352 561l50 -27zM900 126q0 -88 -98 -125q109 -31 109 -133q0 -144 -186 -144t-186 146q0 91 105 130q-94 34 -94 128q0 64 48 101t127 37q80 0 127.5 -37.5t47.5 -102.5zM834 -128q0 29 -12 50t-32 31.5t-36.5 15.5t-33.5 7
q-16 -2 -30.5 -7.5t-33 -16t-29.5 -31t-11 -48.5q0 -49 29.5 -75t79.5 -26q51 0 80 25.5t29 74.5zM624 124q0 -29 11.5 -50t30 -31t34 -15t31.5 -6q96 15 96 101q0 45 -27 69.5t-75 24.5q-47 0 -74 -24.5t-27 -68.5z" />
    <glyph glyph-name="seveneighths" unicode="&#x215e;" horiz-adv-x="879" 
d="M426 690q-63 -98 -121 -222.5t-89 -237.5h-84q55 202 207 455h-228l-5 -62h-52l3 130l60 -3h309v-60zM270 -4l-50 28l352 561l50 -27zM820 126q0 -88 -98 -125q109 -31 109 -133q0 -144 -186 -144t-186 146q0 91 105 130q-94 34 -94 128q0 64 48 101t127 37
q80 0 127.5 -37.5t47.5 -102.5zM754 -128q0 29 -12 50t-32 31.5t-36.5 15.5t-33.5 7q-16 -2 -30.5 -7.5t-33 -16t-29.5 -31t-11 -48.5q0 -49 29.5 -75t79.5 -26q51 0 80 25.5t29 74.5zM544 124q0 -29 11.5 -50t30 -31t34 -15t31.5 -6q96 15 96 101q0 45 -27 69.5t-75 24.5
q-47 0 -74 -24.5t-27 -68.5z" />
    <glyph glyph-name="arrowup" unicode="&#x2191;" horiz-adv-x="673" 
d="M572 309l-44 -35l-164 167l2 -451h-58l1 451l-163 -167l-44 35l235 236z" />
    <glyph glyph-name="arrowdown" unicode="&#x2193;" horiz-adv-x="710" 
d="M368 -9l-235 236l44 36l164 -168l-2 452h58l-1 -452l163 168l44 -36z" />
    <glyph glyph-name="arrowupleft" unicode="&#x2196;" horiz-adv-x="574" 
d="M437 385l-224 18l307 -311l-46 -42l-306 314l19 -230l-51 -7l-27 336l336 -27z" />
    <glyph glyph-name="arrowupright" unicode="&#x2197;" horiz-adv-x="574" 
d="M99 50l-46 42l308 311l-224 -18l-8 51l336 27l-28 -336l-50 7l18 229z" />
    <glyph glyph-name="arrowdownright" unicode="&#x2198;" horiz-adv-x="574" 
d="M494 52l-335 27l8 51l224 -19l-308 312l46 42l306 -313l-18 229l50 7z" />
    <glyph glyph-name="arrowdownleft" unicode="&#x2199;" horiz-adv-x="574" 
d="M415 79l-336 -27l28 336l50 -7l-18 -229l306 313l46 -42l-308 -312l224 19z" />
    <glyph glyph-name="minus" unicode="&#x2212;" horiz-adv-x="543" 
d="M504 247h-465v61h465v-61z" />
    <glyph glyph-name="uni2731" unicode="&#x2731;" horiz-adv-x="1590" 
d="M973 91l1 -2q-10 -7 -10 -21q0 -21 15 -31.5t37 -10.5q23 0 38 17.5t15 40.5q0 34 -23 60t-69 26q-63 0 -132 -44q-49 -64 -126.5 -102t-175.5 -38q-54 0 -104.5 16.5t-95.5 50.5t-72.5 95.5t-27.5 142.5q0 106 56 191q-53 -63 -122 -63q-51 0 -89 31t-38 95
q0 62 31.5 86.5t73.5 24.5q32 0 60 -25.5t46 -25.5q26 0 52 15t38 43l4 -3q-4 -38 -33.5 -65.5t-66.5 -27.5q-21 0 -49 9.5t-42 9.5q-20 0 -30 -6.5t-10 -26.5q0 -36 24.5 -54t59.5 -18t66 12.5t71 45.5q117 117 320 117q172 0 353 -94l1 3q-19 15 -19 42q0 21 16.5 38.5
t43.5 17.5q29 0 50 -16.5t21 -46.5q0 -22 -13.5 -33.5t-33.5 -11.5q-15 0 -23 9.5t-5 17.5l3 2q6 -18 22 -18q19 0 19 32q0 13 -12 25t-30 12q-17 0 -27 -12t-10 -27q0 -27 17 -44q94 -52 200 -132l11 9l18 -18l-10 -8l34 -33l13 10l17 -19l-13 -9q163 -169 232 -350h-92
q-63 189 -189 318l-50 -33q99 -123 148 -287h-93q-45 164 -110 250l-12 -7l-15 22l12 7l-19 26l-11 -9l-16 20l13 10l-39 49.5t-45 51t-55 52.5t-62.5 45.5t-74 40t-84 25t-97.5 10.5q-147 0 -242.5 -79.5t-95.5 -219.5q0 -57 17 -101.5t42 -71t58 -43.5t62 -23.5t56 -6.5
q128 0 219.5 85t91.5 190q0 57 -38 88t-87 31q-25 0 -58 -28q16 -33 63 -55t70 -7l1 -1q-1 -4 -3 -9.5t-13 -14.5t-27 -9q-26 0 -57 26.5t-42 62.5q-4 -4 -7 -9.5t-4 -9.5l-1 -3q21 -19 32.5 -53.5t11.5 -62.5q0 -24 -15 -36.5t-36 -12.5v-12q0 -43 -19.5 -63t-42.5 -20
q-14 0 -26 6.5t-17 12.5l-4 7q-30 -22 -64 -22q-48 0 -48 55l3 40h-7q-19 0 -35.5 10.5t-16.5 38.5q0 19 10.5 34.5t27 25t25.5 13t18 6.5q-2 1 -5.5 4.5t-7.5 11t-4 15.5q0 25 35 37t76 12q4 0 14.5 1t16.5 1q19 0 37 -6q1 1 6 7t9 10q-37 -1 -70 14.5t-33 47.5
q0 15 11.5 25t22.5 12l11 3l1 -1q-11 -10 -7 -29q6 -22 28 -40t47 -20q53 38 92 38q74 0 129 -44.5t55 -128.5t-46 -162q67 49 132 49q54 0 91 -31.5t37 -77.5q0 -45 -32.5 -75t-77.5 -30q-31 0 -50.5 16.5t-19.5 43.5q0 26 24 36zM1152 351l38 38q-151 117 -274 167l-3 -3
q69 -38 121.5 -84t117.5 -118zM554 294l-17 55l-53 -17l15 -54zM573 238l-16 50l-55 -17l17 -52zM612 313l-19 53l-50 -14l18 -55zM632 259l-17 46l-51 -15l17 -49zM619 315l38 12q0 30 -19 53l-38 -12zM511 216l-16 53l-41 -14q3 -29 20 -51zM1242 338l-33 34l-40 -39
l23 -26zM587 192l-12 39l-53 -19l9 -34q30 0 56 14zM590 372l-11 32q-30 0 -50 -10l11 -35zM493 276l-17 54l-10 -4q-16 -31 -13 -63zM638 243l-3 9l-53 -18l12 -38q29 20 44 47zM534 356l-13 35q-11 -4 -24.5 -18.5t-16.5 -27.5l1 -5zM639 262l6 2q13 23 13 55l-36 -12z
M524 178l-10 32l-35 -12q0 -1 5.5 -5.5t16.5 -9.5t23 -5zM597 375l37 11q-17 16 -47 19z" />
    <glyph glyph-name="uni2732" unicode="&#x2732;" horiz-adv-x="1590" 
d="M615 89l2 2q24 -10 24 -36q0 -27 -19.5 -43.5t-50.5 -16.5q-46 0 -78.5 30t-32.5 75q0 46 37.5 77.5t91.5 31.5q63 0 131 -49q-46 77 -46 162q0 84 55.5 128.5t128.5 44.5q44 0 93 -38q26 3 48 20.5t27 39.5q5 21 -7 29l1 1q5 -1 12.5 -3t20 -12t12.5 -25
q0 -32 -33 -47.5t-69 -13.5l14 -18q17 6 36 6q7 0 17.5 -1t15.5 -1q40 0 75.5 -12t35.5 -37q0 -11 -7.5 -20.5t-12.5 -10.5q13 -3 28.5 -9.5t35.5 -25.5t20 -44q0 -27 -17 -38t-36 -11h-6q2 -17 2 -40q0 -54 -47 -54q-15 0 -31.5 5.5t-25.5 10.5l-8 6q-15 -26 -46 -26
q-24 0 -43 19.5t-19 62.5v13q-22 0 -37 12t-15 36q0 29 11.5 63.5t33.5 52.5q-4 13 -12 22q-12 -36 -43 -65t-57 -29q-16 0 -26.5 8.5t-13.5 16.5l-3 8l2 1q22 -14 69.5 10t63.5 58q-33 27 -60 27q-48 0 -86 -31t-38 -88q0 -105 91.5 -190t219.5 -85q27 0 56 6.5t61.5 23.5
t58 43.5t42 71t16.5 101.5q0 140 -95.5 219.5t-241.5 79.5q-50 0 -97.5 -10.5t-84 -25t-74.5 -40t-62.5 -45.5t-55 -52.5t-45.5 -51l-39 -49.5l14 -10l-16 -20l-12 9l-19 -26l12 -7l-14 -22l-13 7q-63 -85 -110 -250h-93q51 166 149 287l-50 33q-125 -128 -190 -318h-91
q66 177 231 350l-13 9l18 19l12 -10l34 33l-9 8l18 18l10 -9q109 83 200 132q17 17 17 44q0 15 -10 27t-27 12q-18 0 -29.5 -12t-11.5 -25q0 -32 19 -32q7 0 12.5 4.5t6.5 9.5l2 4l4 -2q3 -8 -5 -17.5t-24 -9.5q-19 0 -32.5 11.5t-13.5 33.5q0 30 21 46.5t50 16.5
q27 0 43.5 -17.5t16.5 -38.5q0 -27 -19 -42v-3q181 94 354 94q201 0 319 -118q41 -33 71.5 -45t66.5 -12q34 0 59 18t25 54q0 33 -40 33q-14 0 -42 -9.5t-49 -9.5q-37 0 -66.5 27.5t-34.5 65.5l5 3q12 -28 37.5 -43t52.5 -15q18 0 45.5 25.5t59.5 25.5q42 0 74 -24.5
t32 -86.5q0 -64 -38 -95t-89 -31q-72 0 -127 70q61 -89 61 -198q0 -81 -27.5 -142.5t-73 -95.5t-96 -50.5t-104.5 -16.5q-196 0 -304 141q-69 43 -130 43q-45 0 -68.5 -26.5t-23.5 -59.5q0 -23 15.5 -40.5t37.5 -17.5t37.5 10.5t15.5 31.5q0 6 -3 11.5t-5 7.5zM399 389
l38 -38q67 73 118.5 118.5t120.5 83.5l-2 3q-121 -48 -275 -167zM1054 350l-18 -55l55 -16l16 54zM1033 288l-15 -50l54 -19l16 53zM997 366l-19 -53l51 -16l18 55zM975 305l-17 -46l52 -17l17 48zM933 327l39 -12l18 53l-38 12q-19 -23 -19 -53zM1095 269l-16 -53l38 -11
q16 20 20 50zM381 372l-33 -34l49 -31l24 26zM1016 232l-13 -39q25 -15 56 -15l10 34zM1011 405l-11 -32l50 -13l11 34q-22 11 -50 11zM1114 331l-16 -55l39 -13q3 39 -13 63zM956 252l-4 -9q14 -25 44 -47l12 39zM1069 391l-13 -35l53 -15l2 5q-4 13 -17.5 27t-24.5 18z
M946 264l6 -2l17 46l-37 11q0 -32 14 -55zM1076 210l-10 -32q12 0 23.5 5t16.5 10l6 5zM956 386l37 -11l10 30q-31 -3 -47 -19z" />
    <glyph glyph-name="uni2733" unicode="&#x2733;" horiz-adv-x="1263" 
d="M621 34l-20 18q-11 -58 -43 -86q-2 9 -6 25t-6.5 29t-1.5 25q-5 -6 -14.5 -9t-24 -5t-20.5 -3l8 15.5t7.5 15t5 15t2.5 19.5q0 35 -76 45q-127 -75 -272 -83l-1 40q54 3 102 15q3 5 3 16q0 9 -12 22.5t-21.5 20l-15.5 10.5q2 0 9.5 2.5t12 3t13.5 -0.5l-35 48
q2 0 12.5 3.5t15.5 3.5t17 -3q-6 28 -14 39q6 0 21 2.5t26 2.5q29 0 44.5 -16t15.5 -41q0 -26 -15.5 -52.5t-43.5 -44.5l-13 -11q153 43 255 141l-213 105l-4 -8q-5 -8 -12 -8t-11 6t0 13l4 8l-3 1q-38 -37 -99 -37q-57 0 -99 40.5t-42 95.5q0 15 3 31l-9 4q-9 4 -2 18
l28 56q6 14 14 10l10 -5q40 46 109 46q62 0 102.5 -44.5t36.5 -109.5l2 -2l4 8q3 7 10.5 7.5t11.5 -4.5t1 -13l-4 -8l228 -112q9 11 20 26t18 27l19 32l19 31q-4 61 -37 61q-1 -28 -12 -48t-25 -29t-28.5 -14t-23.5 -6h-10l-6 32l-55 -9q-1 33 -1 36q-14 -1 -33.5 6.5
t-32.5 7.5q21 29 31 49q-14 9 -27 23.5t-19 24.5l-6 11q7 0 38.5 11t61.5 14q-1 18 -17 34q2 0 22 8t39 8q16 0 31 -2.5t31.5 -11t28 -22t18 -37.5t3.5 -55q18 -1 31.5 -17.5t19.5 -39.5q70 108 151 108q36 0 90.5 -33.5t89.5 -33.5q23 0 49 10q2 22 16 38.5t37 19.5
q25 3 44.5 -12t22.5 -40q2 -23 -10 -41.5t-34 -23.5q37 -12 42 -50q3 -25 -12 -44t-40 -23q-29 -3 -49 14q7 -10 9 -24q3 -25 -12.5 -44t-40.5 -22q-24 -3 -43 11q-12 -7 -24 -8q-37 -5 -54 28q-15 -27 -46 -30q-25 -4 -44 10.5t-22 40.5q-3 13 3 30q-14 -11 -29 -12
q-23 -2 -40.5 12t-20.5 37q-2 23 12 41t37 20q33 3 50 -22q25 11 44.5 39t28.5 59q-36 16 -59 16q-43 0 -78.5 -40.5t-73 -105.5t-62.5 -91l172 -84l4 8q5 9 16 4.5t7 -14.5l-4 -9l253 -124l8 17q4 7 11.5 7t13 -6.5t1.5 -13.5l-68 -137q-5 -12 -18.5 -6.5t-7.5 18.5l8 16
l-252 124l-4 -7q-4 -7 -11 -7.5t-11.5 5t-0.5 13.5l4 8l-185 90q-50 -45 -89 -73q29 9 58 9q44 0 73 -21.5t29 -63.5q0 -8 -2.5 -18t-5 -16l-6 -14t-4.5 -10zM288 421q15 49 -30.5 87.5t-99.5 38.5q-39 0 -56 -23q-11 -18 -11 -41q0 -45 31.5 -77.5t76.5 -31.5
q25 -1 50.5 11.5t38.5 35.5zM762 170l23 45l-428 209l-22 -44zM1019 44l23 44l-234 116l-24 -45zM1039 423q29 3 48 -16q-7 12 -8 25q-2 16 3 28q-93 50 -109 60l23.5 -35l25.5 -38.5t14 -24.5h1q1 1 2 1zM843 435q2 -14 -3 -26q12 11 31 14q14 2 26 -3q14 35 19 104
q-30 -58 -77 -74q2 -5 4 -15zM911 414q13 -9 21 -24q11 19 30 25q-1 21 -29 113q-6 -84 -22 -114zM1083 536q-35 -16 -73 -14q18 -10 50 -26t33 -17q12 14 29 18q-29 8 -39 39zM980 417q17 0 28 -7l8 6q-6 12 -27.5 44.5t-30.5 47.5q21 -67 22 -91z" />
    <glyph glyph-name="uni2736" unicode="&#x2736;" horiz-adv-x="498" 
d="M428 143l-179 -71l-179 71v357h358v-357zM359 199v197l-52 -71l28 -53l-75 -45l25 106l-36 118l-36 -118l25 -106l-76 45l29 53l-52 71v-197h75l35 -64l35 64h75z" />
    <glyph glyph-name="uni2737" unicode="&#x2737;" horiz-adv-x="885" 
d="M620 0h-355l9 77q-6 -16 -27 -31t-53 -15q-48 0 -75 27t-27 59q0 41 29 56q-25 5 -41.5 16t-23 29.5t-8 29t-2.5 31.5l49 -6q2 13 5.5 23t10 23t17.5 20t26 7q-11 14 -11 25q0 13 10 23.5t26 10.5q17 0 25 -17v49l139 145h74q-7 4 -12 16.5t-5 23.5q0 38 42 48
q43 -11 43 -48q0 -11 -5 -23.5t-12 -16.5h74l139 -145v-49q9 17 25 17t25.5 -10t9.5 -24q0 -8 -10 -25q19 0 32.5 -14t17.5 -27t8 -32l50 6q-1 -21 -2.5 -31.5t-8 -29t-23 -29.5t-41.5 -16q28 -14 28 -56q0 -32 -26.5 -59t-74.5 -27q-32 0 -53 14.5t-28 31.5zM346 99h193
l120 136v193l-126 132h-181l-126 -132v-193zM510 162h-135l-91 97v145l91 97h135l91 -97v-145zM442 181q6 23 26 44t40 21l42 -7q-3 65 -3 91l6 87q-36 -9 -49 -20.5t-13 -31.5q0 -13 -1.5 -22.5t-3.5 -12.5l-2 -3l4 1h6.5t8.5 -0.5t9 -2.5t8 -5.5t6 -9.5t2 -15
q0 -15 -14 -24t-30 -9q-29 0 -29 35q0 34 0.5 50.5t4 34t11 23.5t19.5 6h2v6q0 7 -20 25.5t-30 39.5q-10 -22 -29.5 -40t-19.5 -25v-6h1q13 0 20.5 -6t11 -23.5t4 -34t0.5 -50.5q0 -35 -29 -35q-16 0 -30 9t-14 24q0 10 3 17t7 10t10 4.5t10 1.5h9l5 -1q-7 8 -7 38
q0 20 -13 31.5t-50 20.5q7 -44 7 -87l-4 -91q22 7 42 7t40 -21t26 -44zM695 105q-5 6 -2 14.5t10 8.5q17 0 17 -17q0 -9 -8 -14.5t-17 -5.5q-14 0 -23 11t-9 28q0 23 14 39.5t39 16.5h25q37 1 53.5 24t16.5 51q-23 -6 -51 -6t-47.5 -7t-43.5 -31q-55 -55 -55 -82
q0 -39 22.5 -60t52.5 -21q36 0 58.5 19.5t22.5 46.5q0 52 -51 52q-44 0 -44 -41q0 -11 5.5 -19t14.5 -7zM74 261q0 -28 16.5 -51t53.5 -24h25q25 0 39 -16.5t14 -39.5q0 -17 -9 -28t-23 -11q-24 0 -24 19q0 17 16 17q7 0 10 -9t-2 -14q8 -1 14 7t6 19q0 40 -45 40
q-23 0 -36 -13.5t-13 -36.5q0 -28 21.5 -47t57.5 -19q31 0 53.5 21t22.5 60q0 27 -55 82q-25 24 -44 31t-47 7t-51 6zM590 22l-9 95l-42 -42h-193l-42 42l-9 -95h295zM678 242l7 2q17 22 33.5 28.5t48.5 4.5q-3 18 -14 34t-28 16q-47 0 -47 -68v-17zM200 244l6 -2v17
q0 68 -46 68q-17 0 -28 -15.5t-14 -34.5q32 2 48.5 -4.5t33.5 -28.5zM417 622q0 -10 7.5 -22.5t17.5 -17.5q11 5 18.5 17.5t7.5 22.5q0 23 -26 29q-25 -5 -25 -29zM205 330q0 59 -26 59q-8 0 -14 -5.5t-6 -12.5q0 -27 46 -41zM680 330q45 14 45 41q0 8 -5.5 13t-13.5 5
q-26 0 -26 -59z" />
    <glyph glyph-name="uni2766" unicode="&#x2766;" horiz-adv-x="954" 
d="M549 305q10 -21 1 -42t-31 -31q-21 -9 -41.5 -1t-29.5 30q-10 21 -2 42.5t29 30.5q30 13 55 -6q22 20 36 57.5t12 68.5q-51 24 -113 24q-27 0 -59 -6q10 -27 10 -60q0 -69 -44 -131t-123 -90q22 -63 79.5 -98t123.5 -35q50 0 91 21.5t62 62.5l26 -15q-24 -51 -72.5 -77
t-108.5 -26q-79 0 -146.5 43t-90.5 119q-13 42 -13 83q0 79 46.5 138.5t116.5 83.5q-20 28 -49 42q-15 -47 -51.5 -68.5t-80.5 -21.5q-47 0 -80 20q24 51 25 52q-31 6 -52 15.5t-32.5 19t-13.5 10.5q3 1 11.5 20t20.5 25q-24 30 -31.5 57t-9.5 29q8 -2 35.5 7.5t53.5 9.5
q27 0 56 -8q-9 19 -6 62q49 9 114 -30.5t65 -110.5q0 -31 -12 -59q44 -22 68 -63q32 7 67 7q57 0 142 -26q34 -9 64 -9q51 0 94 25q-5 44 36 63q23 10 45.5 1.5t33.5 -31.5q10 -23 3 -44.5t-27 -32.5q30 -6 44 -34q10 -23 1 -46t-32 -34q-16 -6 -28 -5l5 -9q10 -22 0.5 -45
t-32.5 -33q-22 -10 -45 -2q-3 -30 -33 -43q-19 -8 -38.5 -3t-30.5 20q-9 -19 -29 -28q-23 -10 -45.5 -1.5t-33.5 31.5q-11 22 -2 45.5t32 33.5q10 5 25 5q5 41 -10 119q-12 -68 -59 -105q6 -8 8 -13zM242 216q69 26 107 80t38 113q0 32 -10 56q-63 -19 -102.5 -70.5
t-39.5 -120.5q0 -30 7 -58zM626 302q19 -4 34 -24q8 15 23 22q-13 45 -66 128q17 -82 9 -126zM698 305q16 3 28 0q2 22 16 36q-8 9 -25 22.5l-40.5 32t-38.5 31.5q51 -86 60 -122zM768 475q-35 -20 -85 -29q62 -20 103 -28q6 17 23 26q-28 7 -41 31zM762 356q13 6 29 4l-4 8
q-8 14 -6 29q-43 7 -118 33l35.5 -27.5l37.5 -29t22 -19.5z" />
    <glyph glyph-name="uni2767" unicode="&#x2767;" horiz-adv-x="653" 
d="M230 178q4 -21 -7.5 -37t-31.5 -21q-20 -4 -36 7t-20 31q-5 20 6 37t31 21q28 6 47 -16q27 17 45.5 47.5t16.5 58.5q-46 23 -116 23q-72 0 -122 -48l-33 14l11 10.5l12.5 12t13 11t16 11t18 8.5t22.5 7.5t25.5 4.5t30.5 2q10 0 30 -2q72 16 100 64q-60 31 -60 94
q0 33 15 65t33 48q6 -6 23.5 -19.5t21.5 -18.5q12 26 25 44.5t22.5 28t10.5 11.5q0 -2 16 -18t18 -29q21 11 40 14t25.5 1t14.5 3q-2 -5 -2 -11t1 -15.5t1 -16.5q0 -39 -28 -86q14 3 34.5 -2t21.5 -5q4 -37 -37 -88t-98 -51q-38 0 -78 27q-20 -32 -58 -50q18 -4 54 -18
q21 -9 92 -48t94 -46q13 20 36 24q22 4 40 -8t23 -34q4 -22 -8.5 -40t-34.5 -23q-25 -4 -43 9q11 -11 14 -26q4 -22 -9 -39.5t-34 -22.5q-39 -7 -56 25q1 -19 -10.5 -33t-29.5 -17q-19 -4 -36 6t-22 29q-11 -26 -40 -31q-22 -4 -39.5 7.5t-22.5 34.5q-4 22 8 40.5t34 21.5
q6 1 17 1q19 55 19 109q-7 -28 -26.5 -51t-42.5 -35zM375 149q24 -3 37 -24q-3 31 19 48q-32 53 -94 109q35 -79 38 -133zM296 156q21 -10 27 -33q9 19 32 25q-1 54 -39 134q3 -70 -20 -126zM455 184q22 3 41 -10q-10 11 -11 25q-3 9 -1 20q-25 6 -104 49q47 -49 70 -85
q3 0 5 1z" />
    <glyph glyph-name="st" unicode="&#xfb06;" horiz-adv-x="824" 
d="M409 367h-54l-6 49l-10 8l-20 13q-38 20 -75 20q-47 0 -76 -19t-29 -52q0 -34 30.5 -55.5t74.5 -34.5t87.5 -28t74 -46t30.5 -78q0 -69 -52.5 -113.5t-162.5 -44.5q-47 0 -88 6.5t-59 13.5l-18 6l-7 127l50 4l6 -83q57 -17 114 -17q67 0 101 26.5t34 65.5q0 34 -30.5 55
t-74 33t-86.5 26.5t-73.5 46t-30.5 81.5q0 62 49 99.5t124 37.5q12 0 17 -1q-21 40 -21 88q0 62 46 105.5t127 43.5h238v-250h152v-63h-152v-285q0 -51 15.5 -74.5t50.5 -23.5l78 8v-55q-44 -14 -102 -14q-63 0 -92.5 32.5t-29.5 108.5v515l11 52h-167q-58 0 -90.5 -29.5
t-32.5 -80.5q0 -52 36 -96q26 -13 41 -24l11 34h41v-138z" />
    <glyph glyph-name="halfcaron" horiz-adv-x="388" 
d="M236 545l-48 7q17 35 28 89t8 93l6 35l55 -7q-2 -50 -16.5 -115t-32.5 -102z" />
    <glyph glyph-name="commaaccent" horiz-adv-x="237" 
d="M49 -289l-25 22q38 30 55 72.5t10 77.5q-13 2 -21 8q-13 10 -13 27t13 27q10 9 27 9q16 0 28 -9q4 -4 5 -6q15 -19 15 -52q0 -45 -26 -95.5t-68 -80.5z" />
    <glyph glyph-name="zero.onum" horiz-adv-x="678" 
d="M339 -14q-134 0 -204 75t-70 198q0 121 69 188t205 67q135 0 204.5 -67.5t69.5 -187.5q0 -123 -70.5 -198t-203.5 -75zM339 49q95 0 143.5 58t48.5 152q0 92 -48 142t-144 50t-144 -50t-48 -142q0 -95 48.5 -152.5t143.5 -57.5z" />
    <glyph glyph-name="one.onum" horiz-adv-x="426" 
d="M234 500h64v-441l60 -3l-4 -56h-226l-3 60l93 3v371q-144 -36 -146 -36l-8 58z" />
    <glyph glyph-name="two.onum" horiz-adv-x="553" 
d="M123 348h-58l4 156h47l6 -39q65 49 141 49q96 0 146 -40t50 -110q0 -50 -29.5 -98t-78 -86t-91 -64t-89.5 -48h266l9 77l56 -4l-4 -141h-453v55l16 3l49 25t76.5 46t88.5 64.5t66.5 75t29.5 82.5q0 97 -131 97q-69 0 -113 -47z" />
    <glyph glyph-name="three.onum" horiz-adv-x="532" 
d="M448 453l-201 -229q3 0 10.5 0.5t11.5 0.5q93 0 149.5 -47t56.5 -128q0 -96 -76 -155t-196 -59q-52 0 -92 7.5t-53 14.5l-14 8l-4 125l54 4l8 -82q41 -13 102 -13q87 0 138 42.5t51 107.5q0 55 -38 86.5t-108 31.5q-19 0 -36 -5.5t-25 -10.5l-7 -6l-37 39l208 248h-237
l-7 -81h-56l4 152l65 -4h329v-47z" />
    <glyph glyph-name="four.onum" horiz-adv-x="562" 
d="M449 -150h-80v150h-330l-5 53q131 230 211 453l76 -6q-61 -182 -204 -439h252v242l11 102h69v-344h84v-57l-84 -4v-150z" />
    <glyph glyph-name="five.onum" horiz-adv-x="523" 
d="M48 -134l-4 125l54 3l8 -80q37 -14 105 -14q82 0 131 46.5t49 115.5q0 58 -46 94t-121 36q-28 0 -52 -5.5t-34.5 -11t-12.5 -8.5l-42 5l33 328h270l6 36l56 -4l-4 -103l-68 4h-199l-20 -192q38 9 74 9q111 0 176.5 -50t65.5 -138q0 -102 -74.5 -164t-189.5 -62
q-56 0 -96 7.5t-53 14.5z" />
    <glyph glyph-name="six.onum" horiz-adv-x="601" 
d="M481 509h-58l-4 51q-44 41 -102 41q-160 0 -175 -248q74 60 174 60q108 0 169 -51t61 -142q0 -97 -61 -165.5t-173 -68.5q-117 0 -182 73.5t-65 200.5q0 30 3 63q12 169 75 254.5t166 85.5q58 0 115 -43l10 34h47v-145zM307 359q-65 0 -104 -27t-52 -54q-4 -12 -4 -41
q0 -88 41.5 -140.5t123.5 -52.5q77 0 114.5 53t37.5 124q0 60 -39.5 99t-117.5 39z" />
    <glyph glyph-name="seven.onum" horiz-adv-x="488" 
d="M467 434q-75 -125 -144 -283.5t-103 -300.5h-93q64 257 247 579h-276l-6 -81h-56l4 156l64 -4h363v-66z" />
    <glyph glyph-name="eight.onum" horiz-adv-x="582" 
d="M513 497q0 -114 -134 -163q27 -7 50.5 -19t47 -31t37.5 -50t14 -69q0 -91 -62.5 -135t-174.5 -44t-174 44.5t-62 137.5q0 64 41.5 104t102.5 61q-129 44 -129 166q0 78 59.5 121t161.5 43q103 0 162.5 -43.5t59.5 -122.5zM440 170q0 37 -16.5 64.5t-43 41.5t-48 20.5
t-44.5 8.5q-20 -2 -40.5 -8.5t-46.5 -20.5t-42 -41.5t-16 -63.5q0 -65 39 -98t109 -33t109.5 33t39.5 97zM153 495q0 -37 15 -64.5t39.5 -42t45 -21t41.5 -9.5q19 3 38 9.5t43 21t39 42t15 63.5q0 115 -138 115t-138 -114z" />
    <glyph glyph-name="nine.onum" horiz-adv-x="601" 
d="M261 -101q83 0 136.5 64t60.5 181q-64 -69 -173 -69q-106 0 -168 60.5t-62 154.5q0 95 64 159.5t178 64.5q239 0 239 -254q0 -52 -3 -82q-7 -166 -81 -253.5t-191 -87.5q-46 0 -86 5t-57 10l-16 5l-4 134l54 4l8 -86q48 -10 101 -10zM294 129q33 0 61 8t46.5 20.5
t29 23.5t17.5 21q6 30 6 78q0 176 -157 176q-78 0 -119 -49t-41 -117q0 -64 40.5 -112.5t116.5 -48.5z" />
    <glyph glyph-name="dollar.onum" horiz-adv-x="469" 
d="M268 -117h-60l-5 103q-42 1 -78.5 7.5t-52.5 12.5l-16 6l-7 127l50 4l6 -83q57 -17 114 -17q67 0 101 26.5t34 65.5q0 34 -30.5 55t-74 33t-86.5 26.5t-73.5 46t-30.5 81.5q0 56 39.5 92t103.5 43l2 121h60l4 -123q45 -8 89 -39l11 34h41v-138h-54l-6 49q-47 41 -105 41
q-47 0 -76 -19t-29 -52q0 -34 30.5 -55.5t74.5 -34.5t87.5 -28t74 -46t30.5 -78q0 -61 -41 -103.5t-126 -51.5z" />
    <glyph glyph-name="cent.onum" horiz-adv-x="487" 
d="M304 -119h-60l-5 108q-97 13 -149 81.5t-52 184.5q0 117 51.5 182.5t149.5 74.5l1 119h60l4 -121q44 -9 91 -45l11 40h52v-170h-62l-5 71q-46 49 -108 49q-84 0 -123 -46.5t-39 -152.5q0 -105 45.5 -158t127.5 -53q41 0 77.5 15t52.5 30l15 15l36 -40q-2 -3 -6 -8
t-19 -17.5t-32.5 -22.5t-48 -19t-64.5 -11z" />
    <glyph glyph-name="sterling.onum" horiz-adv-x="548" 
d="M524 0h-471v60h86q21 25 21 80q0 19 -4 79l-103 1v54h100v43q0 87 46 142.5t133 55.5q55 0 108 -39l8 29h51v-137h-62l-4 48q-39 32 -83 32q-58 0 -87.5 -36t-29.5 -92v-46h226v-55h-223q2 -44 2 -60q0 -65 -19 -99h243l9 79l57 -4z" />
    <glyph glyph-name="yen.onum" horiz-adv-x="563" 
d="M180 495l-33 -2l141 -202l138 201l-33 2v56h205v-58l-91 -3l-168 -245h154v-61h-167v-122l70 -2l-4 -59h-213l-4 59l69 2v122h-171v61h156l-171 248l-94 3l4 55h212v-55z" />
    <glyph glyph-name="Euro.onum" horiz-adv-x="567" 
d="M511 363h-61l-5 49q-38 43 -103 43q-83 0 -123.5 -43t-44.5 -139h336v-55h-335q8 -86 53.5 -129.5t119.5 -43.5q41 0 77 13.5t51 26.5l15 13l37 -37q-2 -3 -6 -8t-20 -18t-35.5 -23t-53.5 -18t-73 -8q-109 0 -172 59.5t-72 172.5l-60 1v54h59q4 117 62.5 179t164.5 62
q70 0 128 -46l10 37h51v-142z" />
    <glyph glyph-name="uni20B4.onum" horiz-adv-x="501" 
d="M151 374h-50l3 131h42l6 -32q52 41 112 41q72 0 114 -35t42 -91q0 -63 -66 -110h87v-55h-211q-72 -29 -72 -92q0 -41 31.5 -63.5t87.5 -22.5q50 0 90 10l5 72l50 -4l-3 -117q-41 -20 -156 -20q-86 0 -132.5 34t-46.5 93q0 65 64 110l-94 1v54h215q78 31 78 95
q0 38 -27.5 60t-76.5 22q-52 0 -87 -38z" />
    <glyph glyph-name="afii61352.onum" horiz-adv-x="1163" 
d="M597 -5h-83l-335 438h-2l4 -17v-360l71 -4l-4 -52h-207l-4 59l70 2v431l-71 3l3 55h151l334 -444l-2 16v369l-70 3l3 56h210v-55l-68 -2v-498zM907 190q-99 0 -149.5 49t-50.5 136t50.5 136t149.5 49t150 -49t51 -136t-51.5 -136t-149.5 -49zM907 235q126 0 126 140
q0 138 -126 138t-126 -138q0 -140 126 -140zM1039 0h-264v61h264v-61z" />
    <glyph glyph-name="onefifth" horiz-adv-x="948" 
d="M236 750h62v-463l95 -2l-3 -55h-270l-4 55l109 5v389l-114 -55l-22 53zM362 -4l-50 28l352 561l50 -27zM564 -252l-4 104l50 3l7 -63q33 -11 83 -11q63 0 100.5 32.5t37.5 84.5q0 45 -35.5 75.5t-92.5 30.5q-22 0 -41.5 -4.5t-28.5 -8.5t-12 -7l-37 5l27 266h216l5 28
l50 -3l-3 -90l-62 3h-151l-15 -142q32 6 54 6q90 0 143.5 -43.5t53.5 -116.5q0 -82 -60 -128t-154 -46q-45 0 -78 6.5t-43 12.5z" />
    <glyph glyph-name="twofifths" horiz-adv-x="954" 
d="M115 624h-53l4 129h43l8 -35q54 43 115 43q82 0 123.5 -42t41.5 -110q0 -42 -25 -89.5t-67 -90t-80 -75t-80 -61.5h212l7 60l52 -4l-4 -119h-361v61q3 2 29 21t66 54t78 74t65 83.5t27 79.5q0 49 -24 73.5t-80 24.5t-94 -41zM368 -4l-50 28l352 561l50 -27zM569 -252
l-4 104l50 3l7 -63q33 -11 83 -11q63 0 100.5 32.5t37.5 84.5q0 45 -35.5 75.5t-92.5 30.5q-22 0 -41.5 -4.5t-28.5 -8.5t-12 -7l-37 5l27 266h216l5 28l50 -3l-3 -90l-62 3h-151l-15 -142q32 6 54 6q90 0 143.5 -43.5t53.5 -116.5q0 -82 -60 -128t-154 -46q-45 0 -78 6.5
t-43 12.5z" />
    <glyph glyph-name="threefifths" horiz-adv-x="953" 
d="M389 707l-154 -176q4 1 12 1q72 0 117.5 -41.5t45.5 -108.5q0 -77 -61 -120.5t-158 -43.5q-41 0 -73 6t-44 12l-11 7l-3 104l50 3l7 -64q30 -10 78 -10q68 0 105.5 29.5t37.5 77.5q0 43 -28.5 69.5t-79.5 26.5q-16 0 -30 -4.5t-20 -8.5l-7 -5l-33 36l164 192h-180l-6 -64
h-51l3 128l60 -3h259v-43zM368 -4l-50 28l352 561l50 -27zM569 -252l-4 104l50 3l7 -63q33 -11 83 -11q63 0 100.5 32.5t37.5 84.5q0 45 -35.5 75.5t-92.5 30.5q-22 0 -41.5 -4.5t-28.5 -8.5t-12 -7l-37 5l27 266h216l5 28l50 -3l-3 -90l-62 3h-151l-15 -142q32 6 54 6
q90 0 143.5 -43.5t53.5 -116.5q0 -82 -60 -128t-154 -46q-45 0 -78 6.5t-43 12.5z" />
    <glyph glyph-name="fourfifths" horiz-adv-x="953" 
d="M368 230h-165l-3 51l52 2v90h-250l-5 45q88 159 137 340l70 -8q-46 -159 -129 -321h177v161l11 84h63v-245h63v-52l-63 -4v-89l45 -3zM368 -4l-50 28l352 561l50 -27zM569 -252l-4 104l50 3l7 -63q33 -11 83 -11q63 0 100.5 32.5t37.5 84.5q0 45 -35.5 75.5t-92.5 30.5
q-22 0 -41.5 -4.5t-28.5 -8.5t-12 -7l-37 5l27 266h216l5 28l50 -3l-3 -90l-62 3h-151l-15 -142q32 6 54 6q90 0 143.5 -43.5t53.5 -116.5q0 -82 -60 -128t-154 -46q-45 0 -78 6.5t-43 12.5z" />
    <glyph glyph-name="ct" horiz-adv-x="881" 
d="M458 335h-62l-5 71q-46 49 -108 49q-84 0 -123 -46.5t-39 -152.5q0 -105 45.5 -158t127.5 -53q41 0 77.5 15t52.5 30l15 15l36 -40q-2 -3 -6.5 -8.5t-20.5 -19t-36 -24t-53.5 -19t-71.5 -8.5q-121 0 -185 69.5t-64 199.5q0 127 60 193t173 66h7q-28 43 -28 93
q0 60 50.5 101.5t133.5 41.5h262v-250h152v-63h-152v-285q0 -51 15.5 -74.5t50.5 -23.5l78 8v-55q-44 -14 -102 -14q-63 0 -92.5 32.5t-29.5 108.5v515l11 52h-191q-61 0 -98 -27t-37 -77q0 -54 50 -104q20 -10 44 -28l11 40h52v-170z" />
    <glyph glyph-name="a.alt" horiz-adv-x="600" 
d="M564 0h-127l-8 59q-8 -13 -21.5 -26t-52 -30t-87.5 -17q-103 0 -166.5 71.5t-63.5 189.5q0 126 61.5 196.5t180.5 70.5q46 0 82.5 -14t50.5 -28l14 -15h2l5 43h74v-441l59 -3zM291 48q28 0 52 8t39 19t26 22t16 19l4 8v271q-4 6 -13.5 16t-42 26t-71.5 16
q-93 0 -136.5 -51.5t-43.5 -152.5q0 -97 44.5 -149t125.5 -52z" />
    <glyph glyph-name="aring.alt" horiz-adv-x="600" 
d="M564 0h-127l-8 59q-8 -13 -21.5 -26t-52 -30t-87.5 -17q-103 0 -166.5 71.5t-63.5 189.5q0 126 61.5 196.5t180.5 70.5q46 0 82.5 -14t50.5 -28l14 -15h2l5 43h74v-441l59 -3zM291 48q28 0 52 8t39 19t26 22t16 19l4 8v271q-4 6 -13.5 16t-42 26t-71.5 16
q-93 0 -136.5 -51.5t-43.5 -152.5q0 -97 44.5 -149t125.5 -52zM313 587q-46 0 -74 28.5t-28 74.5q0 45 29 74.5t73 29.5q43 0 72 -29.5t29 -74.5q0 -46 -28.5 -74.5t-72.5 -28.5zM313 623q27 0 45 18.5t18 48.5t-18.5 49t-44.5 19q-27 0 -45.5 -19t-18.5 -49t18.5 -48.5
t45.5 -18.5z" />
    <glyph glyph-name="agrave.alt" horiz-adv-x="600" 
d="M564 0h-127l-8 59q-8 -13 -21.5 -26t-52 -30t-87.5 -17q-103 0 -166.5 71.5t-63.5 189.5q0 126 61.5 196.5t180.5 70.5q46 0 82.5 -14t50.5 -28l14 -15h2l5 43h74v-441l59 -3zM291 48q28 0 52 8t39 19t26 22t16 19l4 8v271q-4 6 -13.5 16t-42 26t-71.5 16
q-93 0 -136.5 -51.5t-43.5 -152.5q0 -97 44.5 -149t125.5 -52zM351 577l-57 -5l-116 139l77 9z" />
    <glyph glyph-name="adieresis.alt" horiz-adv-x="600" 
d="M564 0h-127l-8 59q-8 -13 -21.5 -26t-52 -30t-87.5 -17q-103 0 -166.5 71.5t-63.5 189.5q0 126 61.5 196.5t180.5 70.5q46 0 82.5 -14t50.5 -28l14 -15h2l5 43h74v-441l59 -3zM291 48q28 0 52 8t39 19t26 22t16 19l4 8v271q-4 6 -13.5 16t-42 26t-71.5 16
q-93 0 -136.5 -51.5t-43.5 -152.5q0 -97 44.5 -149t125.5 -52zM431 614q-13 -10 -30 -10q-19 0 -30 10q-13 12 -13 30q0 19 13 31q13 10 30 10q15 0 30 -10q13 -13 13 -31q0 -17 -13 -30zM253 614q-11 -10 -30 -10q-18 0 -29 10q-13 12 -13 30q0 19 13 31q13 10 29 10
q17 0 30 -10q13 -13 13 -31q0 -17 -13 -30z" />
    <glyph glyph-name="aogonek.alt" horiz-adv-x="600" 
d="M528 -208v-42q-184 0 -184 117q0 76 94 133h-1l-8 59q-8 -13 -21.5 -26t-52 -30t-87.5 -17q-103 0 -166.5 71.5t-63.5 189.5q0 126 61.5 196.5t180.5 70.5q46 0 82.5 -14t50.5 -28l14 -15h2l5 43h74v-441l59 -3l-3 -56h-59l-11 -5.5t-25 -15.5t-31.5 -26.5t-24.5 -37
t-11 -47.5q0 -76 126 -76zM291 48q28 0 52 8t39 19t26 22t16 19l4 8v271q-4 6 -13.5 16t-42 26t-71.5 16q-93 0 -136.5 -51.5t-43.5 -152.5q0 -97 44.5 -149t125.5 -52z" />
    <glyph glyph-name="abreve.alt" horiz-adv-x="600" 
d="M564 0h-127l-8 59q-8 -13 -21.5 -26t-52 -30t-87.5 -17q-103 0 -166.5 71.5t-63.5 189.5q0 126 61.5 196.5t180.5 70.5q46 0 82.5 -14t50.5 -28l14 -15h2l5 43h74v-441l59 -3zM291 48q28 0 52 8t39 19t26 22t16 19l4 8v271q-4 6 -13.5 16t-42 26t-71.5 16
q-93 0 -136.5 -51.5t-43.5 -152.5q0 -97 44.5 -149t125.5 -52zM313 629q24 0 43.5 6t30 14.5t17.5 17.5t9 15l2 6l70 -10q-1 -4 -3 -11t-14 -24.5t-29 -31t-50.5 -24.5t-75.5 -11q-43 0 -76 10.5t-50.5 25.5t-28.5 30t-14 26l-3 10l69 10q1 -2 2.5 -6t9 -14.5t17.5 -18
t30 -14t44 -6.5z" />
    <glyph glyph-name="aacute.alt" horiz-adv-x="600" 
d="M564 0h-127l-8 59q-8 -13 -21.5 -26t-52 -30t-87.5 -17q-103 0 -166.5 71.5t-63.5 189.5q0 126 61.5 196.5t180.5 70.5q46 0 82.5 -14t50.5 -28l14 -15h2l5 43h74v-441l59 -3zM291 48q28 0 52 8t39 19t26 22t16 19l4 8v271q-4 6 -13.5 16t-42 26t-71.5 16
q-93 0 -136.5 -51.5t-43.5 -152.5q0 -97 44.5 -149t125.5 -52zM327 572l-57 4l95 143l77 -8z" />
    <glyph glyph-name="amacron.alt" horiz-adv-x="600" 
d="M564 0h-127l-8 59q-8 -13 -21.5 -26t-52 -30t-87.5 -17q-103 0 -166.5 71.5t-63.5 189.5q0 126 61.5 196.5t180.5 70.5q46 0 82.5 -14t50.5 -28l14 -15h2l5 43h74v-441l59 -3zM291 48q28 0 52 8t39 19t26 22t16 19l4 8v271q-4 6 -13.5 16t-42 26t-71.5 16
q-93 0 -136.5 -51.5t-43.5 -152.5q0 -97 44.5 -149t125.5 -52zM420 633h-214v42h214v-42z" />
    <glyph glyph-name="acircumflex.alt" horiz-adv-x="600" 
d="M564 0h-127l-8 59q-8 -13 -21.5 -26t-52 -30t-87.5 -17q-103 0 -166.5 71.5t-63.5 189.5q0 126 61.5 196.5t180.5 70.5q46 0 82.5 -14t50.5 -28l14 -15h2l5 43h74v-441l59 -3zM291 48q28 0 52 8t39 19t26 22t16 19l4 8v271q-4 6 -13.5 16t-42 26t-71.5 16
q-93 0 -136.5 -51.5t-43.5 -152.5q0 -97 44.5 -149t125.5 -52zM442 594l-130 95l-129 -95l-27 48l134 101h45l133 -101z" />
    <glyph glyph-name="atilde.alt" horiz-adv-x="600" 
d="M564 0h-127l-8 59q-8 -13 -21.5 -26t-52 -30t-87.5 -17q-103 0 -166.5 71.5t-63.5 189.5q0 126 61.5 196.5t180.5 70.5q46 0 82.5 -14t50.5 -28l14 -15h2l5 43h74v-441l59 -3zM291 48q28 0 52 8t39 19t26 22t16 19l4 8v271q-4 6 -13.5 16t-42 26t-71.5 16
q-93 0 -136.5 -51.5t-43.5 -152.5q0 -97 44.5 -149t125.5 -52zM481 672l10 -42q-2 -4 -6 -10.5t-25 -17t-51 -10.5q-35 0 -93 24.5t-89 24.5q-21 0 -40.5 -8.5t-28.5 -16.5l-9 -8l-10 47q2 5 8 13t30 21t56 13q38 0 96 -25.5t86 -25.5q20 0 36.5 5.5t22.5 10.5z" />
    <glyph glyph-name="g.alt" horiz-adv-x="592" 
d="M507 -22q0 -126 -72 -184t-189 -58q-55 0 -95 6t-53 12l-12 6l-3 143l53 3l9 -99q46 -14 101 -14q181 0 181 195v46q-6 -5 -17 -13t-50.5 -21.5t-85.5 -13.5q-113 0 -174.5 76t-61.5 202q0 116 63 183t167 67q34 0 63 -7.5t46.5 -18t30 -21t16.5 -17.5l5 -8l8 58h70v-522
zM301 45q82 0 126 44v297q-45 68 -136 68q-170 0 -170 -188q0 -221 180 -221z" />
    <glyph glyph-name="gcommaaccent.alt" horiz-adv-x="592" 
d="M507 -22q0 -126 -72 -184t-189 -58q-55 0 -95 6t-53 12l-12 6l-3 143l53 3l9 -99q46 -14 101 -14q181 0 181 195v46q-6 -5 -17 -13t-50.5 -21.5t-85.5 -13.5q-113 0 -174.5 76t-61.5 202q0 116 63 183t167 67q34 0 63 -7.5t46.5 -18t30 -21t16.5 -17.5l5 -8l8 58h70v-522
zM301 45q82 0 126 44v297q-45 68 -136 68q-170 0 -170 -188q0 -221 180 -221zM322 819l25 -22q-38 -30 -55 -72.5t-10 -77.5q13 -2 21 -8q13 -10 13 -27t-13 -27q-11 -9 -27 -9t-28 9q-4 4 -5 6q-15 19 -15 52q0 45 26 95.5t68 80.5z" />
    <glyph glyph-name="gbreve.alt" horiz-adv-x="592" 
d="M507 -22q0 -126 -72 -184t-189 -58q-55 0 -95 6t-53 12l-12 6l-3 143l53 3l9 -99q46 -14 101 -14q181 0 181 195v46q-6 -5 -17 -13t-50.5 -21.5t-85.5 -13.5q-113 0 -174.5 76t-61.5 202q0 116 63 183t167 67q34 0 63 -7.5t46.5 -18t30 -21t16.5 -17.5l5 -8l8 58h70v-522
zM301 45q82 0 126 44v297q-45 68 -136 68q-170 0 -170 -188q0 -221 180 -221zM318 629q24 0 43.5 6t30 14.5t17.5 17.5t9 15l2 6l70 -10q-1 -4 -3 -11t-14 -24.5t-29 -31t-50.5 -24.5t-75.5 -11q-43 0 -76 10.5t-50.5 25.5t-28.5 30t-14 26l-3 10l69 10q1 -2 2.5 -6t9 -14.5
t17.5 -18t30 -14t44 -6.5z" />
    <glyph glyph-name="y.alt" horiz-adv-x="595" 
d="M430 110v327l-59 3l4 60h136v-522q0 -126 -72 -184t-190 -58q-55 0 -95 6t-52 12l-13 6l-4 143l54 3l9 -99q46 -14 101 -14q181 0 181 195v57q-51 -59 -162 -59q-87 0 -136 38t-49 117v296l-59 3l4 60h135v-344q0 -102 132 -102q44 0 78 14t45 28z" />
    <glyph glyph-name="yacute.alt" horiz-adv-x="595" 
d="M430 110v327l-59 3l4 60h136v-522q0 -126 -72 -184t-190 -58q-55 0 -95 6t-52 12l-13 6l-4 143l54 3l9 -99q46 -14 101 -14q181 0 181 195v57q-51 -59 -162 -59q-87 0 -136 38t-49 117v296l-59 3l4 60h135v-344q0 -102 132 -102q44 0 78 14t45 28zM320 572l-57 4l95 143
l77 -8z" />
    <glyph glyph-name="ydieresis.alt" horiz-adv-x="595" 
d="M430 110v327l-59 3l4 60h136v-522q0 -126 -72 -184t-190 -58q-55 0 -95 6t-52 12l-13 6l-4 143l54 3l9 -99q46 -14 101 -14q181 0 181 195v57q-51 -59 -162 -59q-87 0 -136 38t-49 117v296l-59 3l4 60h135v-344q0 -102 132 -102q44 0 78 14t45 28zM423 614
q-13 -10 -30 -10q-19 0 -30 10q-13 12 -13 30q0 19 13 31q13 10 30 10q15 0 30 -10q13 -13 13 -31q0 -17 -13 -30zM245 614q-11 -10 -30 -10q-18 0 -29 10q-13 12 -13 30q0 19 13 31q13 10 29 10q17 0 30 -10q13 -13 13 -31q0 -17 -13 -30z" />
    <glyph glyph-name="afii10065.alt" horiz-adv-x="600" 
d="M564 0h-127l-8 59q-8 -13 -21.5 -26t-52 -30t-87.5 -17q-103 0 -166.5 71.5t-63.5 189.5q0 126 61.5 196.5t180.5 70.5q46 0 82.5 -14t50.5 -28l14 -15h2l5 43h74v-441l59 -3zM291 48q28 0 52 8t39 19t26 22t16 19l4 8v271q-4 6 -13.5 16t-42 26t-71.5 16
q-93 0 -136.5 -51.5t-43.5 -152.5q0 -97 44.5 -149t125.5 -52z" />
    <glyph glyph-name="afii10066.alt" horiz-adv-x="573" 
d="M286 -14q-120 0 -184 71.5t-64 196.5q0 178 124 235q-85 43 -85 129q0 65 51.5 103t132.5 38q30 0 78.5 -6.5t65.5 -6.5q24 0 40 4t21 8l4 5l44 -9q0 -3 -1.5 -8.5t-8.5 -19.5t-17 -24.5t-30.5 -19t-46.5 -8.5q-22 0 -68.5 9t-72.5 9q-51 0 -85.5 -20t-34.5 -66
q0 -81 113 -93q8 1 24 1q121 0 184.5 -68t63.5 -192t-65 -196t-183 -72zM286 45q84 0 124.5 54.5t40.5 153.5q0 202 -165 202t-165 -202q0 -98 41 -153t124 -55z" />
    <glyph glyph-name="afii10069.alt" horiz-adv-x="592" 
d="M507 -22q0 -126 -72 -184t-189 -58q-55 0 -95 6t-53 12l-12 6l-3 143l53 3l9 -99q46 -14 101 -14q181 0 181 195v46q-6 -5 -17 -13t-50.5 -21.5t-85.5 -13.5q-113 0 -174.5 76t-61.5 202q0 116 63 183t167 67q34 0 63 -7.5t46.5 -18t30 -21t16.5 -17.5l5 -8l8 58h70v-522
zM301 45q82 0 126 44v297q-45 68 -136 68q-170 0 -170 -188q0 -221 180 -221z" />
    <glyph glyph-name="afii10085.alt" horiz-adv-x="595" 
d="M430 110v327l-59 3l4 60h136v-522q0 -126 -72 -184t-190 -58q-55 0 -95 6t-52 12l-13 6l-4 143l54 3l9 -99q46 -14 101 -14q181 0 181 195v57q-51 -59 -162 -59q-87 0 -136 38t-49 117v296l-59 3l4 60h135v-344q0 -102 132 -102q44 0 78 14t45 28z" />
    <glyph glyph-name="afii10110.alt" horiz-adv-x="595" 
d="M430 110v327l-59 3l4 60h136v-522q0 -126 -72 -184t-190 -58q-55 0 -95 6t-52 12l-13 6l-4 143l54 3l9 -99q46 -14 101 -14q181 0 181 195v57q-51 -59 -162 -59q-87 0 -136 38t-49 117v296l-59 3l4 60h135v-344q0 -102 132 -102q44 0 78 14t45 28zM306 629q24 0 43.5 6
t30 14.5t17.5 17.5t9 15l2 6l70 -10q-1 -4 -3 -11t-14 -24.5t-29 -31t-50.5 -24.5t-75.5 -11q-43 0 -76 10.5t-50.5 25.5t-28.5 30t-14 26l-3 10l69 10q1 -2 2.5 -6t9 -14.5t17.5 -18t30 -14t44 -6.5z" />
    <glyph glyph-name="Epsilon.alt" horiz-adv-x="669" 
d="M532 284h-387q10 -113 75 -171.5t173 -58.5q40 0 77 10t61 24t43 27.5t28 23.5l8 10l33 -53q-3 -4 -10 -11.5t-31 -26.5t-51 -33.5t-71 -26.5t-92 -12q-155 0 -244 92t-89 248q0 153 90 245t231 92q80 0 154 -51l12 42h51v-187h-62l-6 84q-60 44 -140 44
q-107 0 -171.5 -63.5t-70.5 -184.5h389v-63z" />
    <glyph glyph-name="Epsilontonos.alt" horiz-adv-x="699" 
d="M56 561l-40 12l64 188l53 -16zM562 284h-387q10 -113 75 -171.5t173 -58.5q40 0 77 10t61 24t43 27.5t28 23.5l8 10l33 -53q-3 -4 -10 -11.5t-31 -26.5t-51 -33.5t-71 -26.5t-92 -12q-155 0 -244 92t-89 248q0 153 90 245t231 92q80 0 154 -51l12 42h51v-187h-62l-6 84
q-61 44 -140 44q-107 0 -171.5 -63.5t-70.5 -184.5h389v-63z" />
    <glyph glyph-name="epsilon.alt" horiz-adv-x="496" 
d="M456 368h-61l-5 48q-44 38 -106 38q-83 0 -121 -41t-42 -136l254 1v-63l-252 1q16 -169 172 -169q44 0 82 12.5t54 25.5l16 13l24 -45q-2 -3 -6.5 -7.5t-21 -16t-36 -20.5t-53.5 -16t-73 -7q-119 0 -181 70t-62 200q0 125 62 191.5t174 66.5q62 0 122 -41l9 32h51v-137z
" />
    <glyph glyph-name="epsilontonos.alt" horiz-adv-x="496" 
d="M456 368h-61l-5 48q-44 38 -106 38q-83 0 -121 -41t-42 -136l254 1v-63l-252 1q16 -169 172 -169q44 0 82 12.5t54 25.5l16 13l24 -45q-2 -3 -6.5 -7.5t-21 -16t-36 -20.5t-53.5 -16t-73 -7q-119 0 -181 70t-62 200q0 125 62 191.5t174 66.5q62 0 122 -41l9 32h51v-137z
M304 561l-40 12l64 188l53 -16z" />
    <glyph glyph-name="AndrijType" horiz-adv-x="1851" 
d="M828 323l3 -1l-10 -36.5t-7.5 -27.5t-4 -19.5t-3.5 -14t-3 -8t-3.5 -4.5t-5 -1.5l-7.5 -1.5q-5 0 -8 -1l-5 -1q-4 -1 -9 -1.5t-8 -0.5t-3 1q6 19 10.5 36.5l7 28t4 19.5t3.5 13.5t3 8t3.5 5t4.5 2t8 1.5q5 0 8 1l4 1q4 0 9.5 0.5t8.5 0.5zM276 332q-49 13 -75 13
q-15 0 -20 -8q-24 -35 -27 -111q61 43 122 106zM541 356q11 0 11 -4t-9.5 -24t-19 -53.5t-9.5 -69.5q-2 -8 -34 -8q-11 0 -13 2q0 14 1 26.5t2 20t5 19t5.5 15l7 17t7.5 17.5q-16 0 -44 -35t-44 -71q-1 -4 -12.5 -6t-22.5 -2l-11 -1q24 117 46 154q4 6 32 6h8q2 0 4 1h2
q-17 -26 -37 -108q23 33 37 50.5t39 35.5t49 18zM868 353q1 9 48 9q-18 -145 -86 -229q-28 -33 -73.5 -55.5t-79.5 -22.5q5 54 89 105l3 -3q-40 -32 -50 -81q35 17 61.5 43.5t40.5 51t24.5 63t14 59.5t8.5 60zM819 385q8 0 17.5 -10t11.5 -18q-24 0 -54.5 -6.5t-39.5 -13.5
q-12 -9 -19 -33t-11 -55.5t-7 -40.5q-1 -4 -13 -5.5t-24 -1.5t-12 -1l3 12q0 1 0.5 2.5t0.5 2.5q28 98 61 122q56 37 86 46zM100 195q0 91 24.5 125.5t95.5 34.5q34 0 72 -6q39 36 48 41q3 2 21.5 6t20.5 4l-4 -11q-56 -144 -58 -224q0 -4 -15 -8t-27 -4q-2 0 -4 1h-3
q2 70 45 189q-33 -36 -84.5 -79.5t-86.5 -65.5q-2 -2 -18.5 -5t-23.5 -3q-2 0 -3 1v4zM990 451q7 0 7 -1t-4.5 -2t-14.5 -5.5t-20 -12.5l-3 -3q-18 -18 -51 -18q-9 0 -9 1q39 41 95 41zM598 213q13 8 28.5 50.5t15.5 70.5q0 41 -34.5 76t-99.5 57q3 1 18 10t24 10
q7 0 26 -8.5t42.5 -24.5t41.5 -45.5t18 -65.5q0 -46 -34.5 -97.5t-72.5 -51.5q-21 0 -21 26q0 51 41 111q5 6 13 6q4 0 13 -2.5t14 -2.5q-35 -46 -35 -107q0 -4 2 -12zM967 260q6 10 42 10q7 0 7 -1q0 -2 -4.5 -7t-10 -10l-11.5 -10l-5 -5q-8 -8 -42 -8q-6 0 -6 1t5.5 5.5
l13.5 11.5t11 13zM1645 330q-6 0 -18 -13.5t-18 -28.5l15 -2q26 19 26 38q0 6 -5 6zM1659 213q0 -8 -27 -25.5t-47 -17.5q-30 0 -30 40q0 51 35 94t84 43q21 0 21 -19q0 -13 -9.5 -27.5t-22.5 -18.5q6 -1 18 -1q63 0 81 47q4 -2 14 -2h13q11 0 15 -4q-23 -54 -145 -54
q-38 0 -58 4q-8 -13 -8 -43q0 -38 10 -38t30 13t22 13q4 0 4 -4zM1560 324q0 -24 -31 -72.5t-61 -48.5q-7 0 -17.5 4.5t-15.5 4.5q48 31 79 110q-29 -11 -60.5 -42.5t-44.5 -71.5q-5 -16 -12 -56.5t-7 -58.5l-3 -5q-3 0 -13 -1t-16 -1q-16 0 -16 5q4 16 14.5 71t22.5 102
t26 85q31 11 41 11q4 0 10 -2q-19 -32 -38 -94q21 28 54 53.5t64 25.5q24 0 24 -19zM1228 359q23 0 35.5 6t24.5 6t12 -5q0 -8 -22 -14q-15 -26 -33 -102q24 35 57 59t58 24v-4q0 -18 -11.5 -56t-36 -89t-75.5 -91.5t-118 -46.5q3 29 29.5 57.5t59.5 48.5l2 -4
q-38 -30 -48 -81q35 11 63 37t44.5 59t26 63.5t13.5 61.5q-43 -26 -72 -81q-1 -4 -12.5 -6t-22.5 -2h-11q12 102 41 146q-42 0 -69 5q-34 -95 -48 -171q-1 -4 -17.5 -7t-27.5 -3l-4 1q0 32 55 185q-9 1 -34.5 5.5t-38.5 4.5q-40 0 -55 -33h-5q-26 0 -28 16q15 36 67 36
q15 0 99 -15q11 1 24.5 7.5t26.5 8.5l-9 -20q32 -6 60 -6z" />
    <glyph glyph-name="ampersand.alt" horiz-adv-x="728" 
d="M669 331l-83 -1q5 -35 5 -63q0 -111 -60 -186q52 -33 93 -33q31 0 61 15l10 -58q-10 -5 -36.5 -12t-48.5 -7q-63 0 -133 46q-68 -46 -169 -46q-124 0 -189 60t-65 152q0 52 28.5 92.5t62.5 60t73 30.5q-24 65 -24 120q0 74 51 118t138 44q67 0 126 -47l10 38h47v-145h-61
l-3 46q-6 8 -16.5 17t-34.5 19t-51 10q-62 0 -95 -28.5t-33 -78.5q0 -75 60.5 -183.5t140.5 -183.5q42 59 42 143q0 58 -21 118v7h175v-64zM420 77q-110 99 -178 245q-41 -11 -73.5 -41t-32.5 -83q0 -68 42 -109t127 -41q65 0 115 29z" />
    <glyph glyph-name="afii10086.hist" horiz-adv-x="405" 
d="M407 614h-57l-5 61q-28 28 -65 28q-46 0 -66 -31.5t-20 -108.5v-85h170v-63h-170v-78h170v-63h-170v-216l59 -2l-3 -56h-193l-4 60l60 3v211h-61v60l61 2v79h-61v60l61 2v94q0 192 148 192q42 0 90 -34l9 25h47v-140z" />
    <glyph glyph-name="afii10097.hist" horiz-adv-x="612" 
d="M575 0h-126l-9 62q-62 -76 -187 -76q-97 0 -155 45t-58 114q0 87 95 116q-70 40 -70 114q0 60 58 99.5t145 39.5q110 0 173 -54l8 40h70v-441l60 -3zM276 46q38 0 70.5 10t51.5 25t27.5 23.5t13.5 16.5v282q-5 6 -14.5 14.5t-48.5 23t-87 14.5q-65 0 -106 -28t-41 -67
q0 -64 70 -86h116v-44h-96q-53 0 -83 -21.5t-30 -61.5q0 -41 42 -71t115 -30z" />
    <glyph glyph-name="a.sc" horiz-adv-x="619" 
d="M189 0h-203l-3 59l78 2l196 489h107l194 -489l78 -2l-3 -59h-210v44l58 2l-52 128h-248l-51 -127l63 -2zM306 483l-105 -261h209z" />
    <glyph glyph-name="b.sc" horiz-adv-x="557" 
d="M285 0h-244l-4 59l70 2v431l-71 3l3 55h244q99 0 148 -35.5t49 -97.5q0 -77 -77 -121q108 -29 108 -129q0 -78 -54.5 -122.5t-171.5 -44.5zM315 259h-136v-199h101q83 0 118.5 27.5t35.5 82.5q0 89 -119 89zM179 306h137q33 2 61 27.5t28 73.5q0 83 -126 83h-100v-184z
" />
    <glyph glyph-name="c.sc" horiz-adv-x="585" 
d="M527 356h-63l-3 93q-54 47 -118 47q-98 0 -156 -55.5t-58 -160.5q0 -104 59 -164.5t158 -60.5q34 0 66.5 8.5t54.5 21t38.5 25t24.5 20.5l8 9l31 -51l-8.5 -11t-26 -24.5t-45 -31t-65.5 -24.5t-87 -11q-135 0 -213 78.5t-78 212.5q0 132 79.5 209.5t203.5 77.5
q69 0 137 -54l13 44h48v-198z" />
    <glyph glyph-name="d.sc" horiz-adv-x="661" 
d="M41 0l-4 59l70 2v431l-71 3l3 55h275q145 0 223 -68t78 -200q0 -135 -78 -208.5t-223 -73.5h-273zM314 484h-127v-418h128q106 0 161.5 55t55.5 161q0 202 -218 202z" />
    <glyph glyph-name="e.sc" horiz-adv-x="531" 
d="M472 426h-63l-4 68h-218v-190h257v-54h-257v-194h241l8 76l59 -4l-4 -128h-450l-4 59l70 2v431l-71 3l3 55h364l70 3z" />
    <glyph glyph-name="f.sc" horiz-adv-x="487" 
d="M271 0h-230l-4 59l70 2v431l-71 3l3 55h373l69 3v-131h-63l-3 64h-228v-181h248v-57h-248v-191l88 -2z" />
    <glyph glyph-name="g.sc" horiz-adv-x="635" 
d="M523 384h-63l-2 79q-50 38 -112 38q-108 0 -162.5 -56t-54.5 -162q0 -109 55.5 -170.5t149.5 -61.5q40 0 71 9.5t47.5 25t25 27t12.5 22.5v92h-135v49h203v-278h-47l-12 63q-61 -75 -182 -75q-129 0 -200 79t-71 218q0 133 76.5 207t206.5 74q75 0 135 -46l11 36h48v-170
z" />
    <glyph glyph-name="h.sc" horiz-adv-x="677" 
d="M253 0h-212l-4 59l70 2v431l-71 3l3 55h215v-55l-67 -3v-190h303v190l-70 3l3 55h215v-59l-67 -2v-428l70 -2l-4 -59h-213l-3 55l69 3v186h-303v-187l70 -2z" />
    <glyph glyph-name="i.sc" horiz-adv-x="294" 
d="M254 0h-213l-4 59l70 2v431l-71 3l3 55h215v-55l-67 -2v-436l71 -2z" />
    <glyph glyph-name="j.sc" horiz-adv-x="398" 
d="M362 491l-54 -2v-330q0 -96 -42 -134.5t-118 -38.5q-37 0 -68 5.5t-44 10.5l-12 5l-8 122l56 4l7 -76q22 -8 60 -8q88 0 88 110v333l-84 3l4 55h215v-59z" />
    <glyph glyph-name="k.sc" horiz-adv-x="637" 
d="M253 0h-212l-4 59l70 2v431l-71 3l3 55h208v-51l-60 -3v-241l82 61l169 183l-34 1v50h213v-59l-104 -2l-178 -196l201 -233l103 -1l-4 -59h-143l-51 49l-168 193l-86 -54v-138l66 -2v-48z" />
    <glyph glyph-name="l.sc" horiz-adv-x="493" 
d="M483 0h-442l-4 59l70 2v431l-71 3l3 55h215v-59l-67 -2v-426h234l7 77l59 -4z" />
    <glyph glyph-name="m.sc" horiz-adv-x="887" 
d="M241 0h-200l-4 59l70 2v431l-71 3l4 55h94l-1 -1l78 1l233 -465h2l230 465h171v-59l-68 -2l1 -432l70 -2l-4 -55h-203l-4 48l63 2v387h-1l-221 -437h-76l-222 437l-1 -389l63 -3z" />
    <glyph glyph-name="n.sc" horiz-adv-x="697" 
d="M597 -5h-83l-335 438h-2l4 -17v-360l71 -4l-4 -52h-207l-4 59l70 2v431l-71 3l3 55h151l334 -444l-2 16v369l-70 3l3 56h210v-55l-68 -2v-498z" />
    <glyph glyph-name="o.sc" horiz-adv-x="670" 
d="M624 284q0 -137 -77 -217.5t-212 -80.5t-212 80.5t-77 217.5q0 133 76 206.5t213 73.5q136 0 212.5 -73.5t76.5 -206.5zM541 284q0 103 -54.5 158t-151.5 55q-98 0 -152 -55t-54 -158q0 -106 54.5 -167.5t151.5 -61.5q96 0 151 61.5t55 167.5z" />
    <glyph glyph-name="p.sc" horiz-adv-x="516" 
d="M261 0h-220l-4 59l70 2v431l-71 3l3 55h228q215 0 215 -168q0 -96 -63.5 -142t-151.5 -46h-85v-144l83 -2zM253 489h-71v-244h71q64 0 105.5 32t41.5 100q0 112 -147 112z" />
    <glyph glyph-name="q.sc" horiz-adv-x="670" 
d="M575 -62l8 -64q-31 -11 -64 -11q-59 0 -116.5 33t-93.5 91q-124 8 -193.5 87.5t-69.5 209.5q0 133 76 206.5t213 73.5q136 0 212.5 -73.5t76.5 -206.5q0 -122 -62 -200t-172 -94q63 -60 136 -60q26 0 49 8zM335 54q96 0 151 62t55 168q0 103 -54.5 158t-151.5 55
q-98 0 -152 -55t-54 -158q0 -107 54.5 -168.5t151.5 -61.5z" />
    <glyph glyph-name="r.sc" horiz-adv-x="557" 
d="M573 0h-132l-40 45l-111 154h-108v-153l62 -2l-4 -44h-199l-4 59l70 2v431l-71 3l3 55h228q104 0 160 -41.5t56 -122.5q0 -61 -32 -103.5t-83 -64.5l114 -158l94 -1zM254 489h-72v-235h94q48 0 86 32.5t38 95.5q0 107 -146 107z" />
    <glyph glyph-name="s.sc" horiz-adv-x="511" 
d="M439 423h-62l-4 35q-42 45 -104 45q-57 0 -88.5 -24.5t-31.5 -68.5q0 -38 33 -61t79.5 -35t93.5 -26.5t80 -46t33 -82.5q0 -80 -55 -126.5t-154 -46.5q-57 0 -105.5 8t-69.5 16l-20 9l-2 124l47 4l9 -77q57 -21 134 -21q66 0 101.5 28.5t35.5 71.5q0 35 -33 56t-79.5 33
t-93.5 27t-80 49t-33 89q0 73 49.5 117t137.5 44q63 0 121 -44l9 34h52v-131z" />
    <glyph glyph-name="t.sc" horiz-adv-x="474" 
d="M57 414h-63l4 139l69 -3h343l70 3l-1 -139h-62l-4 72h-136v-425l70 -2l-4 -59h-213l-4 59l70 2v425h-134z" />
    <glyph glyph-name="u.sc" horiz-adv-x="654" 
d="M238 495l-67 -2v-287q0 -66 40 -107.5t117 -41.5q78 0 118.5 41.5t40.5 107.5v285l-72 3l3 56h213v-55l-67 -3v-303q0 -88 -59.5 -145.5t-177.5 -57.5q-117 0 -177 58t-60 145v303l-71 3l4 55h215v-55z" />
    <glyph glyph-name="v.sc" horiz-adv-x="593" 
d="M352 0h-106l-193 488l-75 3l4 59h207v-55l-55 -3l167 -430l165 429l-59 3v56h209v-59l-73 -2z" />
    <glyph glyph-name="w.sc" horiz-adv-x="904" 
d="M189 495l-55 -3l128 -402l153 460h85l156 -457l124 397l-61 4l4 56h204v-59l-68 -2l-160 -489h-86l-157 450h-1l-155 -450h-86l-161 485l-74 2l4 63h206v-55z" />
    <glyph glyph-name="x.sc" horiz-adv-x="616" 
d="M217 499l-35 -2l127 -166l125 165l-35 1v53h213v-59l-94 -2l-162 -214l167 -214l100 -2l-4 -59h-217v51l32 1l-128 166l-125 -161l32 -1v-56h-216l-4 59l99 2l166 213l-165 218l-94 3l3 55h215v-51z" />
    </font>
</defs>
</svg>
